<?xml version="1.0" encoding="UTF-8" standalone="no"?>
<svg
   xmlns:dc="http://purl.org/dc/elements/1.1/"
   xmlns:cc="http://creativecommons.org/ns#"
   xmlns:rdf="http://www.w3.org/1999/02/22-rdf-syntax-ns#"
   xmlns:svg="http://www.w3.org/2000/svg"
   xmlns="http://www.w3.org/2000/svg"
   version="1.1"
   id="svg2"
   viewBox="0 0 63.000002 63.000002"
   height="17.780001mm"
   width="17.780001mm">
  <defs
     id="defs4" />
  <metadata
     id="metadata7">
    <rdf:RDF>
      <cc:Work
         rdf:about="">
        <dc:format>image/svg+xml</dc:format>
        <dc:type
           rdf:resource="http://purl.org/dc/dcmitype/StillImage" />
        <dc:title></dc:title>
      </cc:Work>
    </rdf:RDF>
  </metadata>
  <g
     transform="translate(-465.57884,-360.2902)"
     id="layer1">
    <g
       transform="translate(465.07884,359.7902)"
       id="g3423">
      <g
         id="g3407">
        <rect
           x="29.4"
           y="49.5"
           width="6.5999999"
           height="14"
           id="rect3409" />
        <path
           d="m 0.5,0.5 0,63 20.8,0 0,-22.1 22.9,0 0,22.1 19.3,0 0,-63 -63,0 z m 18.6,34.8 -8.1,0 0,-8.1 8.1,0 0,8.1 z m 0,-16.2 -8.1,0 0,-8.1 8.1,0 0,8.1 z m 17,16.2 -8.1,0 0,-8.1 8.1,0 0,8.1 z m 0,-16.2 -8.1,0 0,-8.1 8.1,0 0,8.1 z m 16.9,16.2 -8.1,0 0,-8.1 8.1,0 0,8.1 z m 0,-16.2 -8.1,0 0,-8.1 8.1,0 0,8.1 z"
           id="path3411" />
      </g>
    </g>
  </g>
</svg>
