<svg id="Layer_1" data-name="Layer 1" xmlns="http://www.w3.org/2000/svg" viewBox="0 0 198 79.64"><defs><style>.cls-1{fill:#028848;}.cls-2{fill:#78b935;}.cls-3{fill:#39b54a;}.cls-4{fill:#b2d235;}.cls-5,.cls-7{fill:none;stroke-linecap:round;stroke-miterlimit:10;}.cls-5{stroke:#ec668c;stroke-width:0.78px;}.cls-6{fill:#00a651;}.cls-7{stroke:#662d91;stroke-width:6.27px;}.cls-8{fill:#231f20;}</style></defs><title>HL_198x80_rus</title><path class="cls-1" d="M70.48,15a0.38,0.38,0,0,1-.37-0.29l-0.37-1.14a0.38,0.38,0,0,1,.73-0.18l0.37,1.15a0.38,0.38,0,0,1-.28.45H70.48Z" transform="translate(0 0.03)"/><path class="cls-1" d="M58.37,71.52a0.39,0.39,0,0,1-.15,0A0.38,0.38,0,0,1,58,71l0.4-.95a0.38,0.38,0,0,1,.7.29l-0.4.95A0.38,0.38,0,0,1,58.37,71.52Zm1.18-2.85-0.14,0a0.38,0.38,0,0,1-.21-0.49l0.39-1a0.38,0.38,0,0,1,.7.28l-0.39,1A0.38,0.38,0,0,1,59.55,68.67ZM60.7,65.8l-0.14,0a0.38,0.38,0,0,1-.21-0.49l0.38-1a0.38,0.38,0,1,1,.7.28l-0.38,1A0.38,0.38,0,0,1,60.7,65.8Zm1.12-2.87-0.14,0a0.38,0.38,0,0,1-.22-0.49l0.37-1a0.38,0.38,0,1,1,.71.27l-0.37,1A0.38,0.38,0,0,1,61.82,62.93ZM62.91,60l-0.13,0a0.38,0.38,0,0,1-.22-0.49l0.36-1a0.38,0.38,0,0,1,.71.26l-0.36,1A0.38,0.38,0,0,1,62.91,60ZM64,57.12l-0.11,0a0.36,0.36,0,0,1-.24-0.46l0.34-1a0.38,0.38,0,1,1,.71.25l-0.33.92A0.41,0.41,0,0,1,64,57.12Zm1-2.89-0.12,0a0.38,0.38,0,0,1-.23-0.48l0.33-1a0.38,0.38,0,0,1,.72.24l-0.33,1A0.38,0.38,0,0,1,65,54.23Zm1-2.93-0.12,0a0.38,0.38,0,0,1-.24-0.48l0.31-1a0.38,0.38,0,0,1,.72.23l-0.32,1A0.38,0.38,0,0,1,66,51.31Zm0.93-2.94-0.11,0a0.38,0.38,0,0,1-.25-0.47l0.29-1a0.38,0.38,0,1,1,.72.22l-0.3,1A0.38,0.38,0,0,1,66.89,48.36Zm0.87-3-0.1,0a0.38,0.38,0,0,1-.26-0.46l0.28-1a0.38,0.38,0,0,1,.73.2l-0.28,1A0.38,0.38,0,0,1,67.76,45.4Zm0.81-3H68.47A0.38,0.38,0,0,1,68.2,42l0.25-1a0.38,0.38,0,0,1,.73.18l-0.25,1A0.38,0.38,0,0,1,68.56,42.43Zm0.73-3H69.21A0.38,0.38,0,0,1,68.93,39l0.23-1a0.38,0.38,0,0,1,.74.16l-0.23,1A0.38,0.38,0,0,1,69.29,39.43Zm0.65-3H69.87a0.38,0.38,0,0,1-.3-0.45q0.1-.5.19-1a0.38,0.38,0,0,1,.74.14l-0.2,1A0.38,0.38,0,0,1,69.94,36.41Zm0.55-3H70.43a0.38,0.38,0,0,1-.31-0.44c0.06-.34.11-0.68,0.16-1A0.38,0.38,0,1,1,71,32q-0.07.5-.16,1A0.38,0.38,0,0,1,70.49,33.38Zm0.44-3.05h0a0.38,0.38,0,0,1-.33-0.42q0.06-.51.12-1a0.38,0.38,0,0,1,.42-0.33,0.38,0.38,0,0,1,.34.41q-0.05.51-.12,1A0.38,0.38,0,0,1,70.93,30.32Zm0.3-3.07h0a0.38,0.38,0,0,1-.35-0.4c0-.34,0-0.68.06-1a0.38,0.38,0,0,1,.4-0.36,0.38,0.38,0,0,1,.36.4q0,0.51-.07,1A0.38,0.38,0,0,1,71.23,27.25Zm0.14-3.08h0A0.38,0.38,0,0,1,71,23.79v-1a0.38,0.38,0,0,1,.37-0.38h0a0.38,0.38,0,0,1,.38.37v1A0.38,0.38,0,0,1,71.36,24.17Zm-0.06-3.08a0.38,0.38,0,0,1-.38-0.36c0-.34,0-0.68-0.07-1a0.38,0.38,0,1,1,.75-0.06c0,0.34,0,.68.07,1a0.38,0.38,0,0,1-.36.4h0ZM71,18a0.38,0.38,0,0,1-.37-0.33q-0.07-.51-0.15-1a0.38,0.38,0,0,1,.31-0.43,0.37,0.37,0,0,1,.43.31c0.06,0.34.1,0.68,0.15,1a0.38,0.38,0,0,1-.32.43H71Z" transform="translate(0 0.03)"/><path class="cls-1" d="M57.36,73.9a0.37,0.37,0,0,1-.15,0,0.38,0.38,0,0,1-.2-0.49l0.2-.47a0.38,0.38,0,1,1,.69.3l-0.2.46A0.38,0.38,0,0,1,57.36,73.9Z" transform="translate(0 0.03)"/><path class="cls-1" d="M20.62,10.28a0.38,0.38,0,0,1-.19-0.71l0.45-.24a0.38,0.38,0,1,1,.36.66l-0.44.24A0.37,0.37,0,0,1,20.62,10.28Z" transform="translate(0 0.03)"/><path class="cls-1" d="M22.89,9.09a0.38,0.38,0,0,1-.17-0.71l0.93-.46a0.38,0.38,0,1,1,.33.68L23.06,9A0.39,0.39,0,0,1,22.89,9.09Zm2.8-1.35A0.38,0.38,0,0,1,25.53,7l0.94-.43a0.38,0.38,0,0,1,.31.69l-0.94.43A0.38,0.38,0,0,1,25.69,7.74Zm2.83-1.26a0.38,0.38,0,0,1-.15-0.73l1-.4a0.38,0.38,0,0,1,.49.21,0.38,0.38,0,0,1-.2.49l-1,.4A0.37,0.37,0,0,1,28.52,6.48Zm2.87-1.17a0.38,0.38,0,0,1-.14-0.73l1-.37a0.38,0.38,0,1,1,.27.71l-1,.37A0.35,0.35,0,0,1,31.39,5.31ZM34.3,4.23a0.38,0.38,0,0,1-.12-0.74l1-.34a0.38,0.38,0,0,1,.24.71l-1,.33Zm2.94-1a0.38,0.38,0,0,1-.11-0.74l1-.3a0.38,0.38,0,0,1,.21.72l-1,.3Zm25.18-.13a0.37,0.37,0,0,1-.19,0c-0.29-.17-0.59-0.32-0.89-0.47a0.38,0.38,0,1,1,.33-0.68q0.48,0.23.94,0.49A0.38,0.38,0,0,1,62.42,3.13ZM40.23,2.41a0.38,0.38,0,0,1-.1-0.74l1-.25a0.38,0.38,0,0,1,.18.73l-1,.25H40.23ZM59.6,1.88l-0.12,0-1-.3a0.38,0.38,0,0,1-.26-0.47A0.37,0.37,0,0,1,58.71.83c0.34,0.1.67,0.2,1,.31A0.38,0.38,0,0,1,59.6,1.88ZM43.25,1.7A0.38,0.38,0,0,1,43.17,1l1-.2a0.37,0.37,0,0,1,.44.3,0.38,0.38,0,0,1-.3.44l-1,.2H43.25Zm3.05-.54A0.38,0.38,0,0,1,45.93.83,0.38,0.38,0,0,1,46.25.4l1-.14a0.38,0.38,0,0,1,.42.33,0.37,0.37,0,0,1-.33.42l-1,.14H46.3Zm10.29,0H56.53l-1-.16A0.38,0.38,0,0,1,55.2.52,0.38,0.38,0,0,1,55.62.2l1,0.16A0.38,0.38,0,0,1,56.6,1.11Zm-7.21-.29a0.38,0.38,0,0,1,0-.75l1-.06a0.38,0.38,0,1,1,0,.75l-1,.06h0Zm4.13-.05h0l-1,0a0.38,0.38,0,0,1,0-.75h0l1,0A0.38,0.38,0,0,1,53.52.76Z" transform="translate(0 0.03)"/><path class="cls-1" d="M65,4.92a0.37,0.37,0,0,1-.24-0.08l-0.8-.64a0.38,0.38,0,0,1,.46-0.6l0.82,0.66A0.38,0.38,0,0,1,65,4.92Z" transform="translate(0 0.03)"/><path class="cls-2" d="M57.36,73.9a0.38,0.38,0,0,1-.26-0.65C64.6,66,67.73,60.83,66.15,58.2,61.75,50.82,24.34,62.73,24,62.85a0.38,0.38,0,1,1-.23-0.72c1.56-.5,38.35-12.22,43.07-4.32,1.83,3.06-1.18,8.28-9.18,16A0.38,0.38,0,0,1,57.36,73.9Z" transform="translate(0 0.03)"/><path class="cls-1" d="M23.85,62.87H23.77c-0.2,0-19.69-4.21-23.22-17.37-2.62-9.77,4-21.84,19.81-35.88a0.38,0.38,0,0,1,.5.56C5.34,24-1.25,35.83,1.28,45.3,4.69,58,23.73,62.08,23.93,62.12A0.38,0.38,0,0,1,23.85,62.87Z" transform="translate(0 0.03)"/><path class="cls-3" d="M50.09,79.6a5.52,5.52,0,0,1-3.25-1c-3.37-2.36-3-7.52-1.52-14.55a3,3,0,1,1,5.9,1.29c-1.18,5.4-1,7.47-.84,8.18C51,73.44,52.54,73,55.75,71A3,3,0,0,1,59,76.08C56.07,77.9,52.9,79.6,50.09,79.6Z" transform="translate(0 0.03)"/><path class="cls-4" d="M48.28,67.73a3.08,3.08,0,0,1-.65-0.07,3,3,0,0,1-2.31-3.59l2.48-11.39A3,3,0,0,1,53.71,54L51.23,65.35A3,3,0,0,1,48.28,67.73Z" transform="translate(0 0.03)"/><path class="cls-2" d="M50.76,56.34a3,3,0,0,1-.64-0.07,3,3,0,0,1-2.32-3.59c1.9-8.83-.08-11-0.74-11.45-1.65-1.15-5.51-.16-9.62,2.45a3,3,0,1,1-3.24-5.1c6.52-4.14,12.46-5,16.31-2.31,4,2.81,5.11,8.76,3.19,17.68A3,3,0,0,1,50.76,56.34Z" transform="translate(0 0.03)"/><path class="cls-3" d="M26.24,53.55a3,3,0,0,1-2.55-4.64A35.09,35.09,0,0,1,34.21,38.59a3,3,0,1,1,3.24,5.1,29.26,29.26,0,0,0-8.66,8.46A3,3,0,0,1,26.24,53.55Z" transform="translate(0 0.03)"/><path class="cls-2" d="M17.31,38.27a0.38,0.38,0,0,1-.37-0.34c-2-18.3,3.15-27.92,3.38-28.25a0.38,0.38,0,0,1,.62.43c-0.05.08-5.23,9.75-3.25,27.74a0.38,0.38,0,0,1-.33.42h0Z" transform="translate(0 0.03)"/><path class="cls-5" d="M17.31,37.9" transform="translate(0 0.03)"/><path class="cls-2" d="M23.85,62.87a0.38,0.38,0,0,1-.35-0.24,131.63,131.63,0,0,1-5.1-16.71,0.38,0.38,0,0,1,.74-0.17A130.9,130.9,0,0,0,24.2,62.36a0.38,0.38,0,0,1-.22.49Z" transform="translate(0 0.03)"/><path class="cls-6" d="M21,79.61a3,3,0,0,1-.62-0.06A3,3,0,0,1,18,76c0-.08,1.72-8.24,2.88-14.07a3,3,0,1,1,5.92,1.18c-1.17,5.86-2.87,14-2.89,14.12A3,3,0,0,1,21,79.61Z" transform="translate(0 0.03)"/><path class="cls-6" d="M26.81,63.08L20.89,61.9l8-40.09A3,3,0,0,1,34.81,23Z" transform="translate(0 0.03)"/><path class="cls-2" d="M31.86,25.43a3,3,0,0,1-3-3.61L31.64,8a3,3,0,1,1,5.92,1.18L34.81,23A3,3,0,0,1,31.86,25.43Z" transform="translate(0 0.03)"/><path class="cls-3" d="M20.62,12.92a3,3,0,0,1-1.72-5.5c4.39-3,12.39-7.74,16.6-5,1.38,0.9,2.85,2.81,2.06,6.78A3,3,0,1,1,31.64,8c0-.14.05-0.27,0.07-0.38-1.91.35-6,2.37-9.36,4.73A3,3,0,0,1,20.62,12.92Z" transform="translate(0 0.03)"/><path class="cls-7" d="M40.9,5.77" transform="translate(0 0.03)"/><circle class="cls-2" cx="57.69" cy="72.73" r="5.35"/><circle class="cls-6" cx="23.85" cy="62.52" r="5.35"/><circle class="cls-4" cx="20.62" cy="9.93" r="5.35"/><path class="cls-2" d="M18.48,44.35l2.41-6.23a15.48,15.48,0,0,1-3.32,1,15.74,15.74,0,0,1-3.46.2Z" transform="translate(0 0.03)"/><path class="cls-1" d="M66.23,6.41L66,13.08a15.45,15.45,0,0,1,2.8-2A15.76,15.76,0,0,1,72,9.69Z" transform="translate(0 0.03)"/><path class="cls-8" d="M88.65,51.33V41a5.06,5.06,0,0,0-1-3.51,4.1,4.1,0,0,0-3.15-1.1,5.45,5.45,0,0,0-4.2,1.45Q79,39.25,79,42.5v8.83H77.5V28.43H79v7.28l-0.07,2H79a5.37,5.37,0,0,1,2.27-2.09,7.93,7.93,0,0,1,3.4-.65q5.44,0,5.44,5.84V51.33H88.65Z" transform="translate(0 0.03)"/><path class="cls-8" d="M108.2,43.31a9.06,9.06,0,0,1-1.9,6.11,6.55,6.55,0,0,1-5.24,2.2,6.78,6.78,0,0,1-3.71-1,6.49,6.49,0,0,1-2.46-2.91A10.6,10.6,0,0,1,94,43.31a9,9,0,0,1,1.9-6.1A6.54,6.54,0,0,1,101.15,35a6.42,6.42,0,0,1,5.17,2.21A9.1,9.1,0,0,1,108.2,43.31Zm-12.62,0A8.14,8.14,0,0,0,97,48.45a5.47,5.47,0,0,0,8.2,0,8.15,8.15,0,0,0,1.45-5.14,8,8,0,0,0-1.46-5.14,5,5,0,0,0-4.11-1.82A4.9,4.9,0,0,0,97,38.16,8.12,8.12,0,0,0,95.57,43.31Z" transform="translate(0 0.03)"/><path class="cls-8" d="M116.55,50.33a10.94,10.94,0,0,0,2.41-.24v1.18a7.71,7.71,0,0,1-2.44.35,4,4,0,0,1-3.13-1.13,5.26,5.26,0,0,1-1-3.56V36.6H110V35.74l2.37-.66,0.74-3.62h0.75v3.87h4.69V36.6h-4.69V46.72a4.62,4.62,0,0,0,.65,2.72A2.35,2.35,0,0,0,116.55,50.33Z" transform="translate(0 0.03)"/><path class="cls-8" d="M128.58,51.62a7,7,0,0,1-5.44-2.15,8.63,8.63,0,0,1-2-6,9.38,9.38,0,0,1,1.88-6.13,6.21,6.21,0,0,1,5.08-2.3,5.48,5.48,0,0,1,4.46,2,8.14,8.14,0,0,1,1.63,5.36v1.18H122.72a7.57,7.57,0,0,0,1.54,5,5.41,5.41,0,0,0,4.32,1.74,13.42,13.42,0,0,0,2.41-.19,14.63,14.63,0,0,0,2.63-.82v1.32a11.7,11.7,0,0,1-2.5.8A13.9,13.9,0,0,1,128.58,51.62Zm-0.43-15.3a4.79,4.79,0,0,0-3.71,1.52,7.19,7.19,0,0,0-1.63,4.39h9.89a7,7,0,0,0-1.21-4.35A4,4,0,0,0,128.15,36.32Z" transform="translate(0 0.03)"/><path class="cls-8" d="M139.82,51.33h-1.46V28.43h1.46v22.9Z" transform="translate(0 0.03)"/><path class="cls-8" d="M146.33,51.33h-1.46V28.43h1.46v22.9Z" transform="translate(0 0.03)"/><path class="cls-8" d="M164.61,43.31a9.06,9.06,0,0,1-1.9,6.11,6.55,6.55,0,0,1-5.24,2.2,6.78,6.78,0,0,1-3.71-1,6.49,6.49,0,0,1-2.46-2.91,10.59,10.59,0,0,1-.85-4.39,9,9,0,0,1,1.9-6.1A6.54,6.54,0,0,1,157.56,35a6.42,6.42,0,0,1,5.17,2.21A9.09,9.09,0,0,1,164.61,43.31Zm-12.62,0a8.14,8.14,0,0,0,1.45,5.14,5.47,5.47,0,0,0,8.2,0,8.14,8.14,0,0,0,1.45-5.14,8,8,0,0,0-1.46-5.14,5,5,0,0,0-4.11-1.82,4.9,4.9,0,0,0-4.08,1.82A8.13,8.13,0,0,0,152,43.31Z" transform="translate(0 0.03)"/><path class="cls-8" d="M182,43.31a9.06,9.06,0,0,1-1.9,6.11,6.55,6.55,0,0,1-5.24,2.2,6.78,6.78,0,0,1-3.71-1,6.49,6.49,0,0,1-2.46-2.91,10.59,10.59,0,0,1-.85-4.39,9,9,0,0,1,1.9-6.1A6.54,6.54,0,0,1,174.92,35a6.42,6.42,0,0,1,5.17,2.21A9.09,9.09,0,0,1,182,43.31Zm-12.62,0a8.14,8.14,0,0,0,1.45,5.14,5.47,5.47,0,0,0,8.2,0,8.14,8.14,0,0,0,1.45-5.14A8,8,0,0,0,179,38.17a5,5,0,0,0-4.11-1.82,4.9,4.9,0,0,0-4.08,1.82A8.12,8.12,0,0,0,169.34,43.31Z" transform="translate(0 0.03)"/><path class="cls-8" d="M187.52,44.31l8.17-9h1.77l-6.3,6.83L198,51.33h-1.75l-6.08-8.08-2.62,2.38v5.69h-1.46V28.43h1.46V39.91l-0.1,4.4h0.07Z" transform="translate(0 0.03)"/><path class="cls-8" d="M79.23,73.45a1.91,1.91,0,0,1-1.48-.6,2.37,2.37,0,0,1-.54-1.66,4.83,4.83,0,0,1,.4-2,3.23,3.23,0,0,1,1.07-1.39,2.65,2.65,0,0,1,1.57-.48,3.48,3.48,0,0,1,1.3.23l-0.15.49a2.9,2.9,0,0,0-1.18-.25,2.06,2.06,0,0,0-1.26.42,2.74,2.74,0,0,0-.88,1.2,4.55,4.55,0,0,0-.32,1.73,2,2,0,0,0,.4,1.32,1.41,1.41,0,0,0,1.13.46,3.09,3.09,0,0,0,1.42-.32v0.5A3.31,3.31,0,0,1,79.23,73.45Z" transform="translate(0 0.03)"/><path class="cls-8" d="M84,73.43a1.39,1.39,0,0,1-1.51-1.18h0q-0.07.39-.81,3.76H81.16L83,67.46h0.44l-0.24,1.48h0a3.75,3.75,0,0,1,1.06-1.21,2.15,2.15,0,0,1,1.24-.38,1.35,1.35,0,0,1,1.12.5,2.45,2.45,0,0,1,.4,1.53,5.24,5.24,0,0,1-.39,2,3.64,3.64,0,0,1-1.07,1.5A2.38,2.38,0,0,1,84,73.43Zm1.35-5.59a1.68,1.68,0,0,0-.94.32,3.34,3.34,0,0,0-.87.91,4.32,4.32,0,0,0-.6,1.28,4.39,4.39,0,0,0-.19,1.13,1.67,1.67,0,0,0,.33,1.08A1.11,1.11,0,0,0,84,73a1.85,1.85,0,0,0,1.22-.45,3.2,3.2,0,0,0,.89-1.32,4.75,4.75,0,0,0,.34-1.76Q86.47,67.84,85.38,67.84Z" transform="translate(0 0.03)"/><path class="cls-8" d="M91.06,67.37a1.38,1.38,0,0,1,1.51,1.18h0l0.32-1.09h0.43l-1.24,5.88H91.67l0.24-1.48h0a3.91,3.91,0,0,1-1,1.18,2.1,2.1,0,0,1-1.28.41q-1.52,0-1.52-2a5.22,5.22,0,0,1,.41-2,3.61,3.61,0,0,1,1.08-1.5A2.39,2.39,0,0,1,91.06,67.37ZM89.71,73a1.66,1.66,0,0,0,1-.34,3.41,3.41,0,0,0,.86-0.9,4.42,4.42,0,0,0,.58-1.24,4.22,4.22,0,0,0,.2-1.15,2,2,0,0,0-.14-0.77A1.22,1.22,0,0,0,91.76,68a1.15,1.15,0,0,0-.69-0.2,1.86,1.86,0,0,0-1.21.44A3.17,3.17,0,0,0,89,69.61a4.81,4.81,0,0,0-.35,1.76,2.14,2.14,0,0,0,.27,1.21A0.93,0.93,0,0,0,89.71,73Z" transform="translate(0 0.03)"/><path class="cls-8" d="M97.18,67.37a1.84,1.84,0,0,1,1.24.38,1.32,1.32,0,0,1,.44,1.06,1.43,1.43,0,0,1-.4,1,2.17,2.17,0,0,1-1.12.56v0a1.54,1.54,0,0,1,.88.41,1.12,1.12,0,0,1,.32.82,1.6,1.6,0,0,1-.27.91,1.81,1.81,0,0,1-.79.64,3,3,0,0,1-1.23.23,2,2,0,0,1-1.6-.62,2.58,2.58,0,0,1-.55-1.77,4.39,4.39,0,0,1,.39-1.86,3.23,3.23,0,0,1,1.1-1.34A2.73,2.73,0,0,1,97.18,67.37Zm-2.54,3.34v0.4a2,2,0,0,0,.44,1.39,1.64,1.64,0,0,0,1.27.47,2,2,0,0,0,1.21-.34A1.09,1.09,0,0,0,98,71.71q0-1-1.46-1H94.64Zm2.49-2.87a2.17,2.17,0,0,0-1.57.66,3.23,3.23,0,0,0-.88,1.74H96a3.44,3.44,0,0,0,1.74-.35,1.11,1.11,0,0,0,.59-1,1,1,0,0,0-.3-0.75A1.24,1.24,0,0,0,97.14,67.84Z" transform="translate(0 0.03)"/><path class="cls-8" d="M101.36,67.46l-0.54,2.59h3.38l0.56-2.59h0.54l-1.25,5.88H103.5l0.6-2.79h-3.37l-0.6,2.79H99.58l1.26-5.88h0.52Z" transform="translate(0 0.03)"/><path class="cls-8" d="M108.14,73.45a1.85,1.85,0,0,1-1.46-.59,2.41,2.41,0,0,1-.52-1.65,4.73,4.73,0,0,1,.38-1.88,3.54,3.54,0,0,1,1.06-1.43,2.34,2.34,0,0,1,1.48-.53,1.42,1.42,0,0,1,1,.33,1.14,1.14,0,0,1,.37.9,1.63,1.63,0,0,1-.88,1.49,5.34,5.34,0,0,1-2.63.51h-0.18a4,4,0,0,0,0,.53,2,2,0,0,0,.4,1.36,1.43,1.43,0,0,0,1.15.47,3.3,3.3,0,0,0,1.49-.39v0.51A3.61,3.61,0,0,1,108.14,73.45ZM109,67.84a1.82,1.82,0,0,0-1.32.62,3.64,3.64,0,0,0-.88,1.67h0.26q2.8,0,2.8-1.46a0.81,0.81,0,0,0-.24-0.6A0.85,0.85,0,0,0,109,67.84Z" transform="translate(0 0.03)"/><path class="cls-8" d="M112.69,67.46l-0.54,2.59h3.38l0.56-2.59h0.55l-1.25,5.88h-0.55l0.6-2.79h-3.37l-0.6,2.79h-0.54l1.26-5.88h0.52Z" transform="translate(0 0.03)"/><path class="cls-8" d="M119,67.46l-0.82,3.77a4.68,4.68,0,0,0-.12.85,0.82,0.82,0,0,0,.26.64,1.07,1.07,0,0,0,.75.24,2,2,0,0,0,1.12-.35,2.81,2.81,0,0,0,.89-1,5.41,5.41,0,0,0,.54-1.51l0.57-2.62h0.53l-1.25,5.88H121l0.15-1.11h0A2.66,2.66,0,0,1,119,73.43a1.54,1.54,0,0,1-1.07-.33,1.26,1.26,0,0,1-.36-1,5.06,5.06,0,0,1,.12-0.92l0.81-3.73H119Z" transform="translate(0 0.03)"/><path class="cls-8" d="M125.54,73.45a1.85,1.85,0,0,1-1.46-.59,2.41,2.41,0,0,1-.52-1.65,4.73,4.73,0,0,1,.38-1.88A3.54,3.54,0,0,1,125,67.9a2.34,2.34,0,0,1,1.48-.53,1.42,1.42,0,0,1,1,.33,1.14,1.14,0,0,1,.37.9,1.63,1.63,0,0,1-.88,1.49,5.34,5.34,0,0,1-2.63.51h-0.18a4,4,0,0,0,0,.53,2,2,0,0,0,.4,1.36,1.43,1.43,0,0,0,1.15.47,3.3,3.3,0,0,0,1.49-.39v0.51A3.61,3.61,0,0,1,125.54,73.45Zm0.88-5.61a1.82,1.82,0,0,0-1.32.62,3.64,3.64,0,0,0-.88,1.67h0.26q2.8,0,2.8-1.46a0.81,0.81,0,0,0-.24-0.6A0.85,0.85,0,0,0,126.42,67.84Z" transform="translate(0 0.03)"/><path class="cls-8" d="M132.74,67.46l-0.82,3.77a4.45,4.45,0,0,0-.12.85,0.82,0.82,0,0,0,.26.64,1.07,1.07,0,0,0,.75.24,2,2,0,0,0,1.12-.35,2.8,2.8,0,0,0,.89-1,5.41,5.41,0,0,0,.54-1.51l0.57-2.62h0.53l-0.89,4.14a4.64,4.64,0,0,0-.12.92,0.41,0.41,0,0,0,.45.48l0.34,0-0.54,2.35h-0.55l0.43-1.9a0.74,0.74,0,0,1-.51-0.29,1.18,1.18,0,0,1-.15-0.65V72.2h0a3.2,3.2,0,0,1-1,.92,2.4,2.4,0,0,1-1.18.31,1.56,1.56,0,0,1-1.08-.33,1.26,1.26,0,0,1-.36-1,5.06,5.06,0,0,1,.12-0.92l0.81-3.73h0.54Z" transform="translate(0 0.03)"/><path class="cls-8" d="M139.42,73.45a1.85,1.85,0,0,1-1.46-.59,2.41,2.41,0,0,1-.52-1.65,4.73,4.73,0,0,1,.38-1.88,3.54,3.54,0,0,1,1.06-1.43,2.34,2.34,0,0,1,1.48-.53,1.42,1.42,0,0,1,1,.33,1.14,1.14,0,0,1,.37.9,1.63,1.63,0,0,1-.88,1.49,5.34,5.34,0,0,1-2.63.51H138a4,4,0,0,0,0,.53,2,2,0,0,0,.4,1.36,1.43,1.43,0,0,0,1.15.47,3.3,3.3,0,0,0,1.49-.39v0.51A3.61,3.61,0,0,1,139.42,73.45Zm0.88-5.61a1.82,1.82,0,0,0-1.32.62,3.64,3.64,0,0,0-.88,1.67h0.26q2.8,0,2.8-1.46a0.81,0.81,0,0,0-.24-0.6A0.85,0.85,0,0,0,140.3,67.84Z" transform="translate(0 0.03)"/><path class="cls-8" d="M144,67.46l-0.54,2.59h3.38l0.56-2.59h0.55l-1.25,5.88h-0.55l0.6-2.79h-3.37l-0.6,2.79H142.2l1.26-5.88H144Z" transform="translate(0 0.03)"/><path class="cls-8" d="M153.16,67.46l-0.54,2.59H156l0.56-2.59h0.55l-1.25,5.88H155.3l0.6-2.79h-3.37l-0.6,2.79h-0.54l1.26-5.88h0.52Z" transform="translate(0 0.03)"/><path class="cls-8" d="M160.95,67.37a1.38,1.38,0,0,1,1.51,1.18h0l0.32-1.09h0.43L162,73.34h-0.44l0.24-1.48h0a3.91,3.91,0,0,1-1,1.18,2.1,2.1,0,0,1-1.28.41q-1.52,0-1.52-2a5.21,5.21,0,0,1,.41-2,3.61,3.61,0,0,1,1.08-1.5A2.39,2.39,0,0,1,160.95,67.37ZM159.6,73a1.66,1.66,0,0,0,1-.34,3.43,3.43,0,0,0,.86-0.9,4.44,4.44,0,0,0,.58-1.24,4.24,4.24,0,0,0,.2-1.15,2,2,0,0,0-.14-0.77,1.21,1.21,0,0,0-.42-0.54,1.15,1.15,0,0,0-.69-0.2,1.86,1.86,0,0,0-1.21.44,3.16,3.16,0,0,0-.89,1.33,4.79,4.79,0,0,0-.35,1.76,2.13,2.13,0,0,0,.27,1.21A0.93,0.93,0,0,0,159.6,73Z" transform="translate(0 0.03)"/><path class="cls-8" d="M169.7,67.35a1.93,1.93,0,0,1,1.51.59,2.32,2.32,0,0,1,.53,1.62,5.15,5.15,0,0,1-.39,2A3.23,3.23,0,0,1,170.29,73a2.57,2.57,0,0,1-1.55.49,1.9,1.9,0,0,1-1.51-.59,2.5,2.5,0,0,1-.52-1.7,4.77,4.77,0,0,1,.39-1.94,3.29,3.29,0,0,1,1.07-1.39A2.52,2.52,0,0,1,169.7,67.35Zm0,0.46a1.89,1.89,0,0,0-1.21.42,2.88,2.88,0,0,0-.85,1.22,4.45,4.45,0,0,0-.32,1.68q0,1.85,1.53,1.85a1.92,1.92,0,0,0,1.22-.42,2.82,2.82,0,0,0,.85-1.23,4.89,4.89,0,0,0,.32-1.79,1.88,1.88,0,0,0-.4-1.28A1.43,1.43,0,0,0,169.65,67.81Z" transform="translate(0 0.03)"/><path class="cls-8" d="M176,73.34l0.79-3.64a6,6,0,0,0,.14-0.88,0.81,0.81,0,0,0-.83-1,1.82,1.82,0,0,0-1.08.36,2.94,2.94,0,0,0-.86,1,5.79,5.79,0,0,0-.54,1.55l-0.54,2.57h-0.53l1.25-5.88h0.43L174,68.6h0a3.06,3.06,0,0,1,1-.92,2.32,2.32,0,0,1,1.15-.31,1.1,1.1,0,0,1,.88.36,1.65,1.65,0,0,1,.32,1.05h0a3.12,3.12,0,0,1,1-1.06,2.19,2.19,0,0,1,1.2-.36,1.38,1.38,0,0,1,1,.33,1.25,1.25,0,0,1,.35,1c0,0.1,0,.21,0,0.31s0,0.31-.11.65L180,73.34h-0.54l0.81-3.68a5.26,5.26,0,0,0,.13-1,0.87,0.87,0,0,0-.23-0.65,0.88,0.88,0,0,0-.64-0.23,2,2,0,0,0-1.5.74,4.26,4.26,0,0,0-.91,2l-0.59,2.8H176Z" transform="translate(0 0.03)"/><path class="cls-8" d="M184,73.45a1.85,1.85,0,0,1-1.46-.59,2.41,2.41,0,0,1-.52-1.65,4.73,4.73,0,0,1,.38-1.88,3.54,3.54,0,0,1,1.06-1.43,2.34,2.34,0,0,1,1.48-.53,1.42,1.42,0,0,1,1,.33,1.14,1.14,0,0,1,.37.9,1.63,1.63,0,0,1-.88,1.49,5.34,5.34,0,0,1-2.63.51h-0.18a4,4,0,0,0,0,.53,2,2,0,0,0,.4,1.36,1.43,1.43,0,0,0,1.15.47,3.3,3.3,0,0,0,1.49-.39v0.51A3.61,3.61,0,0,1,184,73.45Zm0.88-5.61a1.82,1.82,0,0,0-1.32.62,3.64,3.64,0,0,0-.88,1.67H183q2.8,0,2.8-1.46a0.81,0.81,0,0,0-.24-0.6A0.85,0.85,0,0,0,184.93,67.84Z" transform="translate(0 0.03)"/><path class="cls-8" d="M190.34,73.34h-0.52L191,67.9a2.53,2.53,0,0,0-.4,0,1.47,1.47,0,0,0-.82.21,2,2,0,0,0-.61.72,10.92,10.92,0,0,0-.66,1.66,13.09,13.09,0,0,1-.76,1.91,2.19,2.19,0,0,1-.65.78,1.53,1.53,0,0,1-.88.24,1.06,1.06,0,0,1-.33,0V72.86a1.18,1.18,0,0,0,.32,0,1,1,0,0,0,.66-0.21,2.09,2.09,0,0,0,.51-0.71,15.37,15.37,0,0,0,.66-1.69,9.93,9.93,0,0,1,.79-1.88,2.11,2.11,0,0,1,.77-0.77,2.26,2.26,0,0,1,1.08-.24,5.1,5.1,0,0,1,.93.09Z" transform="translate(0 0.03)"/><path class="cls-8" d="M193.93,67.46l-0.82,3.77a4.68,4.68,0,0,0-.12.85,0.82,0.82,0,0,0,.26.64A1.07,1.07,0,0,0,194,73a2,2,0,0,0,1.12-.35,2.8,2.8,0,0,0,.89-1,5.41,5.41,0,0,0,.54-1.51l0.57-2.62h0.53l-1.25,5.88H196l0.15-1.11h0a2.66,2.66,0,0,1-2.18,1.19,1.54,1.54,0,0,1-1.07-.33,1.26,1.26,0,0,1-.36-1,5.06,5.06,0,0,1,.12-0.92l0.81-3.73h0.54Z" transform="translate(0 0.03)"/></svg>