<?xml version="1.0" encoding="UTF-8" standalone="no"?>
<svg
   xmlns:dc="http://purl.org/dc/elements/1.1/"
   xmlns:cc="http://creativecommons.org/ns#"
   xmlns:rdf="http://www.w3.org/1999/02/22-rdf-syntax-ns#"
   xmlns:svg="http://www.w3.org/2000/svg"
   xmlns="http://www.w3.org/2000/svg"
   version="1.1"
   id="svg7132"
   viewBox="0 0 276.51366 110.23333"
   height="31.110296mm"
   width="78.0383mm">
  <defs
     id="defs7134" />
  <metadata
     id="metadata7137">
    <rdf:RDF>
      <cc:Work
         rdf:about="">
        <dc:format>image/svg+xml</dc:format>
        <dc:type
           rdf:resource="http://purl.org/dc/dcmitype/StillImage" />
        <dc:title></dc:title>
      </cc:Work>
    </rdf:RDF>
  </metadata>
  <g
     transform="translate(-398.01689,-756.16681)"
     id="layer1">
    <g
       transform="matrix(1.3333333,0,0,-1.3333333,166.72411,1189.2828)"
       id="g10">
      <g
         transform="scale(0.1,0.1)"
         id="g12">
        <path
           id="path16"
           style="fill:#278944;fill-opacity:1;fill-rule:nonzero;stroke:none"
           d="m 2466.35,3092.55 c -1.79,0 -3.4,1.23 -3.82,3.05 l -1.18,5.01 c -0.52,2.1 0.77,4.22 2.88,4.73 2.14,0.55 4.22,-0.78 4.73,-2.87 l 1.21,-5.12 c 0.48,-2.11 -0.83,-4.21 -2.94,-4.7 -0.3,-0.06 -0.6,-0.1 -0.88,-0.1" />
        <path
           id="path18"
           style="fill:#278944;fill-opacity:1;fill-rule:nonzero;stroke:none"
           d="m 2471.98,3061.06 c -1.94,0 -3.62,1.43 -3.88,3.4 -0.47,3.54 -0.99,7.01 -1.55,10.43 -0.35,2.15 1.1,4.16 3.24,4.51 2.17,0.41 4.16,-1.11 4.5,-3.24 0.57,-3.49 1.09,-7.05 1.58,-10.66 0.28,-2.15 -1.22,-4.12 -3.37,-4.42 -0.18,-0.02 -0.35,-0.02 -0.52,-0.02 z m 2.95,-31.89 c -2.07,0 -3.8,1.6 -3.91,3.69 -0.2,3.58 -0.42,7.09 -0.7,10.57 -0.16,2.17 1.45,4.04 3.61,4.22 2.03,0.31 4.04,-1.45 4.2,-3.62 0.28,-3.53 0.52,-7.11 0.72,-10.74 0.11,-2.17 -1.55,-4 -3.7,-4.12 -0.08,0 -0.15,0 -0.22,0 z m 0.6,-32.01 -0.05,0 c -2.16,0.02 -3.9,1.8 -3.87,3.96 l 0.05,7.19 -0.01,3.4 c -0.02,2.17 1.72,3.93 3.89,3.94 l 0.02,0 c 2.15,0 3.9,-1.71 3.92,-3.88 l 0.01,-3.46 -0.05,-7.28 c -0.02,-2.15 -1.76,-3.87 -3.91,-3.87 z m -1.42,-31.99 c -0.09,0 -0.18,0 -0.28,0 -2.16,0.15 -3.79,2.03 -3.63,4.19 0.26,3.58 0.48,7.1 0.67,10.57 0.11,2.17 1.85,3.61 4.12,3.71 2.17,-0.11 3.83,-1.95 3.71,-4.12 -0.18,-3.53 -0.41,-7.11 -0.68,-10.72 -0.15,-2.07 -1.87,-3.63 -3.91,-3.63 z m -3.07,-31.88 c -0.16,0 -0.33,0.02 -0.48,0.02 -2.15,0.27 -3.68,2.23 -3.43,4.38 0.43,3.55 0.83,7.07 1.2,10.54 0.23,2.15 2.22,3.73 4.31,3.48 2.15,-0.22 3.72,-2.15 3.48,-4.3 -0.37,-3.51 -0.77,-7.07 -1.2,-10.66 -0.24,-1.99 -1.93,-3.46 -3.88,-3.46 z m -4.53,-31.7 c -0.2,0 -0.42,0 -0.63,0.04 -2.14,0.35 -3.59,2.38 -3.23,4.51 0.58,3.54 1.12,7.03 1.64,10.49 0.32,2.15 2.29,3.61 4.45,3.3 2.14,-0.33 3.62,-2.32 3.3,-4.45 -0.52,-3.5 -1.07,-7.03 -1.66,-10.61 -0.31,-1.93 -1.98,-3.28 -3.87,-3.28 z m -5.7,-31.5 c -0.25,0 -0.51,0.02 -0.77,0.06 -2.12,0.43 -3.5,2.5 -3.08,4.63 0.71,3.49 1.38,6.97 2.01,10.43 0.41,2.1 2.43,3.47 4.58,3.12 2.13,-0.39 3.53,-2.44 3.14,-4.57 -0.65,-3.48 -1.33,-6.99 -2.03,-10.53 -0.37,-1.85 -2.01,-3.14 -3.85,-3.14 z m -6.75,-31.31 c -0.29,0 -0.58,0.02 -0.88,0.1 -2.11,0.48 -3.42,2.58 -2.94,4.68 l 2.35,10.4 c 0.47,2.08 2.54,3.41 4.68,2.96 2.11,-0.46 3.44,-2.56 2.97,-4.66 l -2.36,-10.45 c -0.42,-1.82 -2.03,-3.03 -3.82,-3.03 z m -7.61,-31.13 c -0.32,0 -0.65,0.06 -0.97,0.13 -2.1,0.55 -3.36,2.68 -2.82,4.77 l 2.61,10.33 c 0.53,2.09 2.61,3.36 4.76,2.85 2.1,-0.52 3.38,-2.65 2.86,-4.74 l -2.64,-10.39 c -0.46,-1.76 -2.05,-2.95 -3.8,-2.95 z m -8.36,-30.9 c -0.36,0 -0.72,0.04 -1.07,0.15 -2.08,0.59 -3.3,2.76 -2.7,4.83 l 2.86,10.27 c 0.57,2.07 2.71,3.3 4.82,2.74 2.08,-0.59 3.31,-2.74 2.74,-4.83 l -2.88,-10.31 c -0.49,-1.72 -2.07,-2.85 -3.77,-2.85 z m -9.02,-30.75 c -0.38,0 -0.76,0.05 -1.14,0.17 -2.07,0.63 -3.24,2.83 -2.61,4.9 l 3.07,10.2 c 0.61,2.07 2.76,3.24 4.88,2.64 2.07,-0.63 3.25,-2.8 2.64,-4.89 l -3.09,-10.23 c -0.52,-1.7 -2.07,-2.79 -3.75,-2.79 z m -9.61,-30.55 c -0.4,0 -0.81,0.06 -1.22,0.2 -2.05,0.66 -3.17,2.88 -2.51,4.94 1.12,3.39 2.2,6.77 3.25,10.13 0.66,2.05 2.86,3.17 4.93,2.56 2.06,-0.66 3.21,-2.87 2.55,-4.92 -1.07,-3.38 -2.15,-6.78 -3.27,-10.21 -0.54,-1.65 -2.08,-2.7 -3.73,-2.7 z m -10.11,-30.39 c -0.42,0 -0.85,0.06 -1.27,0.21 -2.06,0.71 -3.15,2.93 -2.45,4.98 l 3.42,10.1 c 0.7,2.03 2.87,3.17 4.97,2.46 2.05,-0.68 3.16,-2.91 2.47,-4.96 l -3.43,-10.13 c -0.56,-1.65 -2.08,-2.66 -3.71,-2.66 z m -10.61,-29.96 c -0.39,0 -0.79,0.06 -1.17,0.19 -2.04,0.73 -3.19,2.74 -2.47,4.77 l 3.55,10.04 c 0.71,2.05 2.93,3.1 5,2.4 2.04,-0.72 3.12,-2.95 2.4,-5 l -3.39,-9.57 c -0.59,-1.66 -2.23,-2.83 -3.92,-2.83 z m -10.93,-30.37 c -0.46,0 -0.92,0.07 -1.36,0.25 -2.04,0.74 -3.07,3.01 -2.31,5.04 l 3.69,10 c 0.75,2.03 3.01,3.08 5.04,2.32 2.03,-0.74 3.07,-2.99 2.33,-5.04 l -3.72,-10.02 c -0.58,-1.58 -2.08,-2.55 -3.67,-2.55 z m -11.34,-29.96 c -0.46,0 -0.94,0.09 -1.4,0.27 -2.02,0.78 -3.03,3.05 -2.26,5.06 l 3.82,9.96 c 0.77,2.03 3.04,3.04 5.06,2.26 2.02,-0.76 3.04,-3.02 2.26,-5.05 l -3.81,-9.99 c -0.61,-1.56 -2.09,-2.51 -3.67,-2.51 z m -11.66,-29.83 c -0.47,0 -0.96,0.1 -1.44,0.28 -2.01,0.8 -3,3.08 -2.2,5.09 l 3.93,9.92 c 0.79,2.02 3.08,2.99 5.08,2.21 2.02,-0.8 3,-3.07 2.2,-5.08 l -3.92,-9.94 c -0.61,-1.54 -2.08,-2.48 -3.65,-2.48 z m -11.96,-29.71 c -0.5,0 -0.99,0.1 -1.48,0.3 -2.01,0.82 -2.97,3.1 -2.14,5.12 l 4.01,9.88 c 0.81,1.99 3.06,2.97 5.11,2.15 2,-0.81 2.97,-3.09 2.16,-5.1 l -4.04,-9.9 c -0.61,-1.53 -2.08,-2.45 -3.62,-2.45 z m -12.24,-29.61 c -0.5,0 -1.02,0.12 -1.51,0.32 -2,0.84 -2.94,3.14 -2.1,5.13 l 4.1,9.85 c 0.83,1.99 3.13,2.97 5.13,2.11 2,-0.82 2.95,-3.13 2.12,-5.12 l -4.12,-9.86 c -0.63,-1.51 -2.08,-2.43 -3.62,-2.43" />
        <path
           id="path20"
           style="fill:#278944;fill-opacity:1;fill-rule:nonzero;stroke:none"
           d="m 2330.16,2480.88 c -0.51,0 -1.04,0.1 -1.54,0.31 -1.99,0.84 -2.92,3.15 -2.08,5.14 l 2.07,4.84 c 0.84,1.99 3.13,2.91 5.15,2.07 1.98,-0.86 2.91,-3.16 2.06,-5.15 l -2.05,-4.83 c -0.64,-1.48 -2.09,-2.38 -3.61,-2.38" />
        <path
           id="path22"
           style="fill:#278944;fill-opacity:1;fill-rule:nonzero;stroke:none"
           d="m 1948.76,3141.36 c -1.37,0 -2.7,0.72 -3.42,1.99 -1.06,1.89 -0.39,4.28 1.5,5.35 l 4.62,2.52 c 1.9,1.04 4.29,0.33 5.32,-1.58 1.03,-1.91 0.32,-4.28 -1.58,-5.31 l -4.52,-2.47 c -0.61,-0.35 -1.27,-0.5 -1.92,-0.5" />
        <path
           id="path24"
           style="fill:#278944;fill-opacity:1;fill-rule:nonzero;stroke:none"
           d="m 2290.24,3240.15 c -0.06,0 -0.13,0 -0.13,0 -3.59,0.19 -7.11,0.31 -10.67,0.39 -2.15,0.04 -3.88,1.81 -3.83,3.98 0.03,2.15 1.78,3.85 3.91,3.85 0.02,0 0.05,0 0.05,0 3.66,-0.08 7.29,-0.2 10.88,-0.39 2.16,-0.12 3.82,-1.96 3.71,-4.12 -0.11,-2.09 -1.85,-3.71 -3.92,-3.71 z m -42.88,-0.55 c -2.04,0 -3.76,1.56 -3.9,3.63 -0.17,2.17 1.45,4.04 3.62,4.2 3.62,0.27 7.23,0.47 10.82,0.63 2.2,0.02 4,-1.57 4.09,-3.73 0.1,-2.17 -1.58,-4.01 -3.74,-4.1 -3.51,-0.16 -7.06,-0.36 -10.6,-0.61 -0.1,-0.02 -0.2,-0.02 -0.29,-0.02 z m 74.87,-3.05 c -0.23,0 -0.46,0.02 -0.69,0.06 -3.44,0.63 -6.92,1.15 -10.43,1.62 -2.15,0.28 -3.66,2.25 -3.38,4.4 0.29,2.14 2.36,3.65 4.4,3.38 3.62,-0.49 7.22,-1.04 10.78,-1.68 2.14,-0.38 3.55,-2.41 3.17,-4.53 -0.33,-1.92 -1.99,-3.25 -3.85,-3.25 z m -106.86,-0.47 c -1.92,0 -3.59,1.39 -3.88,3.34 -0.31,2.15 1.18,4.14 3.31,4.46 3.58,0.52 7.15,0.99 10.73,1.44 2.07,0.32 4.11,-1.27 4.36,-3.42 0.28,-2.14 -1.26,-4.1 -3.41,-4.35 -3.51,-0.45 -7.03,-0.92 -10.54,-1.43 -0.2,-0.04 -0.38,-0.04 -0.57,-0.04 z m -31.71,-5.64 c -1.81,0 -3.45,1.27 -3.84,3.11 -0.44,2.12 0.92,4.19 3.04,4.64 3.53,0.73 7.07,1.43 10.61,2.09 2.25,0.45 4.19,-0.99 4.58,-3.1 0.41,-2.13 -1,-4.18 -3.12,-4.59 -3.49,-0.67 -6.98,-1.35 -10.47,-2.07 -0.27,-0.06 -0.53,-0.08 -0.8,-0.08 z m 169.72,-1.84 c -0.42,0 -0.84,0.08 -1.26,0.22 -3.3,1.13 -6.66,2.17 -10.05,3.12 -2.08,0.59 -3.3,2.76 -2.71,4.85 0.59,2.09 2.75,3.34 4.84,2.69 3.52,-0.99 7,-2.07 10.44,-3.24 2.05,-0.68 3.14,-2.91 2.45,-4.96 -0.56,-1.64 -2.08,-2.68 -3.71,-2.68 z m -201.04,-5.54 c -1.74,0 -3.33,1.17 -3.79,2.93 -0.54,2.09 0.71,4.24 2.81,4.78 3.46,0.9 6.95,1.78 10.45,2.64 2.13,0.53 4.21,-0.76 4.73,-2.87 0.52,-2.11 -0.77,-4.22 -2.88,-4.75 -3.46,-0.84 -6.9,-1.72 -10.33,-2.6 -0.33,-0.09 -0.66,-0.13 -0.99,-0.13 z m 230.39,-7.52 c -0.66,0 -1.32,0.15 -1.93,0.51 -3.04,1.71 -6.12,3.34 -9.27,4.84 -1.95,0.96 -2.77,3.3 -1.83,5.23 0.95,1.98 3.3,2.78 5.23,1.84 3.3,-1.58 6.54,-3.28 9.74,-5.1 1.88,-1.05 2.55,-3.46 1.47,-5.33 -0.72,-1.27 -2.05,-1.99 -3.41,-1.99 z m -261.34,-1.31 c -1.68,0 -3.24,1.09 -3.75,2.77 -0.64,2.07 0.52,4.26 2.59,4.9 3.43,1.04 6.87,2.09 10.32,3.11 2.12,0.59 4.25,-0.59 4.87,-2.66 0.62,-2.07 -0.58,-4.25 -2.65,-4.86 -3.42,-1.01 -6.84,-2.05 -10.23,-3.09 -0.39,-0.11 -0.77,-0.17 -1.15,-0.17 z m -30.58,-10.1 c -1.62,0 -3.13,1.02 -3.7,2.64 -0.71,2.05 0.36,4.28 2.4,5 3.37,1.17 6.77,2.34 10.19,3.49 2.05,0.71 4.27,-0.41 4.97,-2.46 0.69,-2.05 -0.4,-4.28 -2.45,-4.96 -3.4,-1.15 -6.78,-2.3 -10.11,-3.48 -0.43,-0.15 -0.87,-0.23 -1.3,-0.23 z m -30.2,-11.17 c -1.58,0 -3.05,0.96 -3.66,2.5 -0.78,2.01 0.22,4.3 2.24,5.08 3.3,1.29 6.65,2.56 10.05,3.85 2.04,0.74 4.28,-0.26 5.06,-2.29 0.76,-2.03 -0.27,-4.28 -2.29,-5.06 -3.38,-1.27 -6.71,-2.54 -9.99,-3.81 -0.46,-0.19 -0.95,-0.27 -1.41,-0.27 z m -29.82,-12.17 c -1.52,0 -2.97,0.9 -3.6,2.4 -0.85,2 0.08,4.28 2.07,5.14 l 9.92,4.18 c 1.98,0.8 4.28,-0.14 5.13,-2.13 0.83,-1.99 -0.12,-4.3 -2.12,-5.12 l -9.87,-4.14 c -0.49,-0.21 -1.01,-0.33 -1.53,-0.33 z m -29.42,-13.09 c -1.48,0 -2.89,0.86 -3.56,2.29 -0.91,1.97 -0.06,4.3 1.91,5.2 3.16,1.46 6.43,2.96 9.8,4.49 1.99,0.88 4.3,0 5.19,-1.98 0.89,-1.97 0.01,-4.29 -1.97,-5.17 -3.35,-1.51 -6.6,-3.01 -9.72,-4.45 -0.54,-0.26 -1.1,-0.38 -1.65,-0.38 z m -29.03,-13.98 c -1.43,0 -2.81,0.78 -3.5,2.17 -0.97,1.93 -0.19,4.28 1.75,5.25 2.97,1.51 6.21,3.11 9.66,4.79 1.97,0.93 4.3,0.15 5.25,-1.8 0.95,-1.95 0.13,-4.3 -1.81,-5.25 -3.44,-1.66 -6.63,-3.24 -9.59,-4.75 -0.56,-0.27 -1.16,-0.41 -1.76,-0.41" />
        <path
           id="path26"
           style="fill:#278944;fill-opacity:1;fill-rule:nonzero;stroke:none"
           d="m 2404.75,3200.52 c -0.88,0 -1.76,0.27 -2.49,0.88 -1.32,1.09 -2.66,2.12 -4.01,3.16 -1.72,1.31 -2.06,3.77 -0.75,5.49 1.32,1.74 3.78,2.05 5.5,0.76 1.42,-1.09 2.84,-2.21 4.24,-3.36 1.67,-1.37 1.91,-3.83 0.53,-5.51 -0.77,-0.93 -1.89,-1.42 -3.02,-1.42" />
        <path
           id="path28"
           style="fill:#6ac02f;fill-opacity:1;fill-rule:nonzero;stroke:none"
           d="m 2330.16,2480.88 c -1.03,0 -2.05,0.41 -2.83,1.21 -1.5,1.54 -1.45,4.04 0.11,5.53 77.83,74.9 110.33,128.92 94.01,156.27 -45.76,76.64 -434.06,-47.05 -437.96,-48.3 -2.06,-0.67 -4.27,0.46 -4.94,2.51 -0.66,2.08 0.47,4.28 2.53,4.95 16.24,5.21 398.16,126.81 447.09,44.86 18.96,-31.72 -12.22,-86 -95.3,-165.94 -0.76,-0.72 -1.74,-1.09 -2.71,-1.09" />
        <path
           id="path30"
           style="fill:#278944;fill-opacity:1;fill-rule:nonzero;stroke:none"
           d="m 1982.29,2595.39 c -0.27,0 -0.53,0.02 -0.8,0.08 -2.04,0.43 -204.45,43.73 -241.04,180.28 -27.18,101.47 42.02,226.78 205.7,372.46 1.62,1.45 4.09,1.31 5.54,-0.33 1.44,-1.62 1.29,-4.08 -0.32,-5.53 -161.28,-143.53 -229.7,-266.19 -203.34,-364.57 35.35,-131.94 233.05,-174.23 235.05,-174.63 2.12,-0.43 3.48,-2.5 3.04,-4.63 -0.38,-1.86 -2.01,-3.13 -3.83,-3.13" />
        <path
           id="path32"
           style="fill:#41b93c;fill-opacity:1;fill-rule:nonzero;stroke:none"
           d="m 2254.73,2421.72 c -12.05,0 -23.45,3.03 -33.71,10.21 -35,24.54 -31.6,78.13 -15.74,151.04 3.68,16.91 20.39,27.62 37.31,23.96 16.91,-3.67 27.64,-20.37 23.96,-37.3 -12.2,-56.1 -10.5,-77.54 -8.77,-84.92 6.35,0.97 22.39,5.66 55.67,26.62 14.66,9.22 34,4.84 43.23,-9.83 9.23,-14.65 4.83,-34 -9.82,-43.22 -30.09,-18.96 -63.03,-36.56 -92.13,-36.56" />
        <path
           id="path34"
           style="fill:#a5d71e;fill-opacity:1;fill-rule:nonzero;stroke:none"
           d="m 2235.95,2544.94 c -2.21,0 -4.46,0.24 -6.7,0.72 -16.92,3.69 -27.65,20.39 -23.97,37.31 l 25.74,118.2 c 3.71,16.92 20.38,27.64 37.31,23.97 16.91,-3.69 27.65,-20.39 23.96,-37.31 l -25.74,-118.2 c -3.2,-14.67 -16.18,-24.69 -30.6,-24.69" />
        <path
           id="path36"
           style="fill:#6ac02f;fill-opacity:1;fill-rule:nonzero;stroke:none"
           d="m 2261.69,2663.15 c -2.19,0 -4.4,0.23 -6.62,0.72 -16.93,3.63 -27.7,20.31 -24.05,37.22 19.71,91.67 -0.87,114.19 -7.65,118.92 -17.09,11.89 -57.24,1.68 -99.88,-25.41 -14.61,-9.32 -34,-4.98 -43.28,9.63 -9.28,14.61 -4.97,33.98 9.64,43.28 67.69,43.01 129.39,51.76 169.35,23.95 41.89,-29.17 53.04,-90.92 33.1,-183.55 -3.16,-14.71 -16.16,-24.76 -30.61,-24.76" />
        <path
           id="path38"
           style="fill:#41b93c;fill-opacity:1;fill-rule:nonzero;stroke:none"
           d="m 2007.05,2692.17 c -5.75,0 -11.57,1.58 -16.79,4.9 -14.61,9.28 -18.92,28.65 -9.63,43.26 25.6,40.31 65.41,79.37 109.23,107.18 14.62,9.3 33.99,4.96 43.27,-9.65 9.28,-14.63 4.96,-34 -9.65,-43.28 -35.79,-22.72 -69.41,-55.58 -89.94,-87.88 -5.97,-9.4 -16.12,-14.53 -26.49,-14.53" />
        <path
           id="path40"
           style="fill:#6ac02f;fill-opacity:1;fill-rule:nonzero;stroke:none"
           d="m 1912.57,2867.49 c -1.97,0 -3.67,1.48 -3.9,3.48 -20.92,190.02 34.49,273.08 36.86,276.52 1.23,1.8 3.65,2.25 5.45,1.02 1.78,-1.24 2.23,-3.66 1.01,-5.45 -0.56,-0.82 -56.08,-84.48 -35.53,-271.23 0.24,-2.15 -1.31,-4.09 -3.46,-4.32 -0.15,-0.02 -0.3,-0.02 -0.43,-0.02" />
        <path
           id="path42"
           style="fill:#6ac02f;fill-opacity:1;fill-rule:nonzero;stroke:none"
           d="m 1982.29,2595.39 c -1.58,0 -3.06,0.96 -3.67,2.52 -21.74,56.44 -38.97,111.84 -51.22,164.65 -0.49,2.11 0.82,4.22 2.93,4.72 2.14,0.46 4.22,-0.83 4.71,-2.94 12.16,-52.47 29.29,-107.5 50.91,-163.62 0.77,-2.03 -0.24,-4.29 -2.26,-5.07 -0.46,-0.18 -0.94,-0.26 -1.4,-0.26" />
        <path
           id="path44"
           style="fill:#2eab49;fill-opacity:1;fill-rule:nonzero;stroke:none"
           d="m 1952.38,2421.62 c -2.12,0 -4.27,0.22 -6.42,0.66 -16.96,3.54 -27.83,20.14 -24.3,37.09 0.19,0.86 17.83,85.55 29.88,146.06 3.38,16.99 19.87,28.01 36.87,24.63 16.98,-3.38 28.01,-19.88 24.62,-36.88 -12.1,-60.78 -29.81,-145.74 -29.98,-146.6 -3.09,-14.78 -16.13,-24.96 -30.67,-24.96" />
        <path
           id="path46"
           style="fill:#2eab49;fill-opacity:1;fill-rule:nonzero;stroke:none"
           d="m 2013.03,2593.18 -61.49,12.27 83.08,416.16 c 3.39,16.97 19.78,27.97 36.88,24.59 16.98,-3.38 27.99,-19.9 24.6,-36.87 l -83.07,-416.15" />
        <path
           id="path48"
           style="fill:#6ac02f;fill-opacity:1;fill-rule:nonzero;stroke:none"
           d="m 2065.39,2984.11 c -2.03,0 -4.09,0.2 -6.16,0.61 -16.98,3.39 -28,19.9 -24.61,36.87 l 28.53,143.01 c 3.39,16.97 19.89,27.97 36.88,24.61 16.98,-3.38 28,-19.9 24.61,-36.88 l -28.54,-143 c -2.97,-14.91 -16.06,-25.22 -30.71,-25.22" />
        <path
           id="path50"
           style="fill:#41b93c;fill-opacity:1;fill-rule:nonzero;stroke:none"
           d="m 1948.79,3113.94 c -9.93,0 -19.7,4.7 -25.79,13.47 -9.87,14.24 -6.33,33.77 7.9,43.64 45.56,31.6 128.58,80.33 172.33,51.62 14.3,-9.38 29.62,-29.2 21.41,-70.34 -3.39,-16.97 -19.8,-27.97 -36.89,-24.6 -16.97,3.39 -27.98,19.9 -24.6,36.89 0.3,1.48 0.52,2.81 0.69,3.98 -19.87,-3.69 -61.89,-24.59 -97.22,-49.08 -5.44,-3.79 -11.67,-5.58 -17.83,-5.58" />
        <path
           id="path52"
           style="fill:#6ac02f;fill-opacity:1;fill-rule:nonzero;stroke:none"
           d="m 2389.14,2493.36 c 0,-30.64 -24.85,-55.49 -55.52,-55.49 -30.67,0 -55.52,24.85 -55.52,55.49 0,30.7 24.85,55.57 55.52,55.57 30.67,0 55.52,-24.87 55.52,-55.57" />
        <path
           id="path54"
           style="fill:#2eab49;fill-opacity:1;fill-rule:nonzero;stroke:none"
           d="m 2037.81,2599.34 c 0,-30.71 -24.88,-55.57 -55.52,-55.57 -30.68,0 -55.53,24.86 -55.53,55.57 0,30.64 24.85,55.48 55.53,55.48 30.64,0 55.52,-24.84 55.52,-55.48" />
        <path
           id="path56"
           style="fill:#a5d71e;fill-opacity:1;fill-rule:nonzero;stroke:none"
           d="m 2004.32,3145.28 c 0,-30.62 -24.9,-55.56 -55.56,-55.56 -30.67,0 -55.56,24.94 -55.56,55.56 0,30.71 24.89,55.55 55.56,55.55 30.66,0 55.56,-24.84 55.56,-55.55" />
        <path
           id="path58"
           style="fill:#6ac02f;fill-opacity:1;fill-rule:nonzero;stroke:none"
           d="m 1910.38,2841.83 c -0.62,3.49 1.7,6.81 5.18,7.42 3.47,0.62 6.79,-1.68 7.44,-5.18 0.61,-3.46 -1.71,-6.79 -5.2,-7.42 -3.48,-0.62 -6.8,1.7 -7.42,5.18 z m 26.39,-57.05 -6.59,36.99 c 4.99,4.26 7.66,10.95 6.43,17.89 -1.84,10.35 -11.73,17.24 -22.09,15.41 -10.35,-1.86 -17.25,-11.74 -15.39,-22.11 1.23,-6.99 6.14,-12.38 12.4,-14.61 l 1.31,-7.32 6.79,-4.67 -3.79,-5.47 5.41,-3.58 -3.84,-5.31 5.47,-3.81 -3.8,-5.45 10.69,-5.64 7,7.68" />
        <path
           id="path60"
           style="fill:#278944;fill-opacity:1;fill-rule:nonzero;stroke:none"
           d="m 2456,3138.33 c 1.87,-3.01 0.94,-6.97 -2.06,-8.81 -3,-1.87 -6.95,-0.96 -8.82,2.05 -1.87,2.99 -0.94,6.94 2.07,8.81 3,1.89 6.93,0.96 8.81,-2.05 z m -45.66,43.22 19.84,-31.93 c -3.07,-5.78 -3.07,-13.01 0.64,-18.98 5.56,-8.95 17.29,-11.69 26.24,-6.14 8.93,5.55 11.66,17.29 6.09,26.25 -3.72,6.02 -10.3,9.22 -16.93,8.95 l -3.93,6.32 -8.04,1.84 1.49,6.47 -6.34,1.32 1.6,6.35 -6.5,1.52 1.51,6.47 -12.03,1.27 -3.64,-9.71" />
        <g
           transform="scale(10,10)"
           id="g62"><g
   id="text66"
   style="font-variant:normal;font-weight:300;font-size:31.28420067px;font-family:OpenSans;-inkscape-font-specification:OpenSans-Light;writing-mode:lr-tb;fill:#1b1919;fill-opacity:1;fill-rule:nonzero;stroke:none"
   transform="matrix(1,0,0,-1,251.011,272.559)">
  <path
     id="path7262"
     style=""
     d="m 16.466977,-10.32623 0,10.32623 -1.405345,0 0,-10.234577 q 0,-3.299506 -1.115111,-4.6743 -1.115111,-1.374794 -3.375883,-1.374794 -2.5968329,0 -4.1091063,1.527549 -1.5122734,1.527549 -1.5122734,5.0867377 l 0,9.6693843 -1.4053449,0 0,-23.76866 1.4053449,0 0,9.822139 q 0.4888156,-1.313692 1.7414057,-2.33715 1.4969979,-1.237314 4.216035,-1.237314 2.535731,0 4.048004,1.817783 1.512274,1.833058 1.512274,5.376972 z" />
  <path
     id="path7264"
     style=""
     d="m 31.856976,-14.175653 q -1.512273,-2.108018 -4.124382,-2.108018 -2.612108,0 -4.124382,2.092742 -1.527549,2.077467 -1.527549,5.6213799 0,3.6355663 1.512274,5.7130327 1.512273,2.09274197 4.139657,2.09274197 2.612109,0 4.124382,-2.09274197 1.527549,-2.1080174 1.527549,-5.7130327 0,-3.4980869 -1.527549,-5.6061039 z m -4.139657,-3.345332 q 3.268954,0 5.163115,2.444078 1.909436,2.459353 1.909436,6.5226334 0,4.2007593 -1.909436,6.629562 -1.894161,2.44407821 -5.163115,2.44407821 -3.299506,0 -5.208942,-2.42880271 -1.89416,-2.4288027 -1.89416,-6.6448375 0,-4.1091064 1.909436,-6.5379094 1.909436,-2.428802 5.193666,-2.428802 z" />
  <path
     id="path7266"
     style=""
     d="m 41.183824,-21.966153 0,4.857606 5.78941,0 0,1.191488 -5.78941,0 0,10.2804037 q 0,1.9552625 0.504091,2.7343125 1.038733,1.7108547 3.024546,1.7108547 l 2.260773,0 0,1.1914881 -2.184395,0 Q 42.696097,0 41.22965,-1.2220391 39.763203,-2.4440782 39.763203,-5.6366553 l 0,-10.2804037 -2.046915,0 0,-1.191488 2.046915,0 0,-4.857606 1.420621,0 z" />
  <path
     id="path7268"
     style=""
     d="m 63.203599,-9.2569461 0,0.8859783 -12.984165,0 q 0,4.124382 1.603926,5.7741347 1.771957,1.83305867 5.270044,1.83305867 0.916529,0 2.428803,-0.39716267 1.527548,-0.3971627 3.024546,-1.1914881 l 0,1.48172235 q -1.512273,0.64157052 -3.100924,0.97763127 -1.588651,0.33606075 -2.520455,0.33606075 -3.956352,0 -5.957441,-2.13856837 -2.169119,-2.2760478 -2.169119,-6.6753886 0,-4.5673712 1.985813,-6.8128682 2.03164,-2.337149 5.651931,-2.337149 3.360607,0 5.071462,2.214945 1.695579,2.321875 1.695579,6.0490939 z m -1.42062,-0.3055098 q 0,-3.6050151 -1.619202,-5.2547681 -1.359518,-1.466447 -3.696668,-1.466447 -2.551007,0 -4.277137,1.527549 -1.588651,1.42062 -1.909436,5.1936661 l 11.502443,0 z" />
  <path
     id="path7270"
     style=""
     d="m 66.724497,-23.76866 1.405345,0 0,23.76866 -1.405345,0 0,-23.76866 z" />
  <path
     id="path7272"
     style=""
     d="m 73.484282,-23.76866 1.405345,0 0,23.76866 -1.405345,0 0,-23.76866 z" />
  <path
     id="path7274"
     style=""
     d="m 90.417508,-14.175653 q -1.512274,-2.108018 -4.124382,-2.108018 -2.612109,0 -4.124382,2.092742 -1.527549,2.077467 -1.527549,5.6213799 0,3.6355663 1.512273,5.7130327 1.512274,2.09274197 4.139658,2.09274197 2.612108,0 4.124382,-2.09274197 1.527549,-2.1080174 1.527549,-5.7130327 0,-3.4980869 -1.527549,-5.6061039 z m -4.139658,-3.345332 q 3.268955,0 5.163116,2.444078 1.909436,2.459353 1.909436,6.5226334 0,4.2007593 -1.909436,6.629562 -1.894161,2.44407821 -5.163116,2.44407821 -3.299505,0 -5.208941,-2.42880271 -1.894161,-2.4288027 -1.894161,-6.6448375 0,-4.1091064 1.909436,-6.5379094 1.909436,-2.428802 5.193666,-2.428802 z" />
  <path
     id="path7276"
     style=""
     d="m 108.43511,-14.175653 q -1.51227,-2.108018 -4.12438,-2.108018 -2.61211,0 -4.12439,2.092742 -1.527544,2.077467 -1.527544,5.6213799 0,3.6355663 1.512274,5.7130327 1.51227,2.09274197 4.13966,2.09274197 2.61211,0 4.12438,-2.09274197 1.52755,-2.1080174 1.52755,-5.7130327 0,-3.4980869 -1.52755,-5.6061039 z m -4.13966,-3.345332 q 3.26896,0 5.16312,2.444078 1.90943,2.459353 1.90943,6.5226334 0,4.2007593 -1.90943,6.629562 -1.89416,2.44407821 -5.16312,2.44407821 -3.2995,0 -5.20894,-2.42880271 -1.894161,-2.4288027 -1.894161,-6.6448375 0,-4.1091064 1.909436,-6.5379094 1.909435,-2.428802 5.193665,-2.428802 z" />
  <path
     id="path7278"
     style=""
     d="m 117.69983,-23.76866 1.42062,0 0,14.4353365 8.50845,-7.7752235 1.92471,0 -8.84451,8.0807332 L 129.84385,0 l -1.81779,0 -8.90561,-8.7681305 0,8.7681305 -1.42062,0 0,-23.76866 z" />
</g>

<g
   id="text70"
   style="font-style:italic;font-variant:normal;font-size:12.84010029px;font-family:OpenSansLight;-inkscape-font-specification:OpenSansLight-Italic;writing-mode:lr-tb;fill:#1b1919;fill-opacity:1;fill-rule:nonzero;stroke:none"
   transform="matrix(1,0,0,-1,252.36022,248.0879)">
  <path
     id="path7281"
     style=""
     d="M 7.153591,-4.2382362 6.332276,0 5.1724037,0 5.9937187,-4.1943492 q 0.056426,-0.2946702 0.087774,-0.5203751 0.031348,-0.2257049 0.031348,-0.3573661 0,-0.5266447 -0.3322877,-0.821315 -0.3322878,-0.2946703 -0.9278979,-0.2946703 -0.9278979,0 -1.6112821,0.626958 -0.6771147,0.6269581 -0.8777413,1.6677084 L 1.6050125,0 0.45140978,0 2.3510926,-9.7554668 l 1.1536027,0 -0.74608,3.8369831 q 0.4388706,-0.5893406 1.1222549,-0.9278979 0.6833842,-0.3448269 1.4357338,-0.3448269 0.9278979,0 1.4357339,0.5015664 0.5141056,0.5015664 0.5141056,1.4106556 0,0.2257048 -0.031348,0.4827576 -0.025078,0.2570528 -0.081505,0.5579927 z" />
  <path
     id="path7283"
     style=""
     d="m 10.298273,0.18181783 q -1.2351074,0 -1.9561091,-0.75861921 Q 7.6274317,-1.3416902 7.6274317,-2.658302 q 0,-0.7648888 0.2445137,-1.5548559 0.2507832,-0.7962367 0.6457667,-1.3354206 0.6206885,-0.8401237 1.3855772,-1.2413769 0.7648887,-0.4012531 1.7304037,-0.4012531 1.19749,0 1.931031,0.74608 0.739811,0.7460801 0.739811,1.9498395 0,0.8338542 -0.244514,1.6614387 -0.244514,0.8275846 -0.639497,1.3730381 -0.614419,0.84012376 -1.379308,1.24137689 -0.764889,0.40125314 -1.742943,0.40125314 z M 8.8249215,-2.6959195 q 0,0.9529762 0.3949836,1.4294643 0.4012531,0.47021851 1.2100289,0.47021851 1.159872,0 1.918492,-1.00940241 0.764888,-1.015672 0.764888,-2.5705279 0,-0.9090891 -0.407522,-1.3730381 -0.407523,-0.4639489 -1.19749,-0.4639489 -0.652036,0 -1.159872,0.3072094 -0.5078365,0.3009399 -0.9090896,0.9216283 -0.2946703,0.463949 -0.4576793,1.0595591 -0.1567396,0.5956101 -0.1567396,1.2288377 z" />
  <path
     id="path7285"
     style=""
     d="m 19.385512,-7.0219298 -0.175548,0.8965499 -2.300936,0 -0.74608,3.8119048 q -0.03762,0.2131657 -0.05643,0.3573661 -0.01881,0.1442003 -0.01881,0.2257049 0,0.4012531 0.238244,0.5830709 0.244514,0.18181785 0.777428,0.18181785 l 1.166142,0 L 18.07517,0 16.971724,0 Q 15.943513,0 15.435677,-0.40125313 14.93411,-0.80250627 14.93411,-1.6175517 q 0,-0.1442003 0.01881,-0.313479 0.01881,-0.1755483 0.05643,-0.3824444 l 0.74608,-3.8119048 -0.978054,0 0.181817,-0.8965499 0.959246,0 0.388714,-1.9937266 1.153603,0 -0.382444,1.9937266 2.307205,0 z" />
  <path
     id="path7287"
     style=""
     d="m 23.86597,-4.1379229 q 0.01881,-0.1003133 0.02508,-0.2068962 0.01254,-0.1065829 0.01254,-0.2131657 0,-0.7648888 -0.451409,-1.210029 -0.44514,-0.4451402 -1.216299,-0.4451402 -0.858932,0 -1.517238,0.5454535 -0.658306,0.5391839 -0.996864,1.5360471 l 4.144193,-0.00627 z m 1.003133,0.9028195 -5.366761,0 q -0.03762,0.2382441 -0.05016,0.3761748 -0.01254,0.1379308 -0.01254,0.2382441 0,0.8714716 0.532915,1.3479597 0.539184,0.47648811 1.517238,0.47648811 0.75235,0 1.423195,-0.16927866 0.670845,-0.16927865 1.247646,-0.49529685 l -0.219435,1.14106361 q -0.620688,0.25078321 -1.285264,0.37617481 -0.658306,0.12539161 -1.34169,0.12539161 -1.460812,0 -2.250779,-0.69592341 -0.783698,-0.70219302 -0.783698,-1.98745692 0,-1.0971765 0.388714,-2.0376136 0.394984,-0.9467066 1.153603,-1.6865171 0.489027,-0.4639489 1.159872,-0.7147321 0.677115,-0.2507832 1.435734,-0.2507832 1.19122,0 1.893413,0.7147321 0.708463,0.7147322 0.708463,1.9184916 0,0.2884007 -0.03762,0.6206884 -0.03762,0.3260182 -0.112852,0.702193 z" />
  <path
     id="path7289"
     style=""
     d="m 25.730968,-9.7554668 1.153603,0 L 24.984888,0 23.831285,0 25.730968,-9.7554668 Z" />
  <path
     id="path7291"
     style=""
     d="m 35.85656,-6.8150337 -0.219435,1.090907 q -0.457679,-0.2507832 -0.965515,-0.3761749 -0.507836,-0.1253916 -1.04702,-0.1253916 -0.909089,0 -1.435734,0.3134791 -0.520375,0.3072094 -0.520375,0.8401237 0,0.6206884 1.216298,0.9529762 0.09404,0.025078 0.137931,0.037618 l 0.369905,0.1128524 q 1.153603,0.3197486 1.536047,0.6708451 0.388714,0.3510965 0.388714,0.9592458 0,1.1159853 -0.89028,1.81817824 -0.884011,0.70219299 -2.319745,0.70219299 -0.557992,0 -1.172411,-0.10658287 -0.614419,-0.10658286 -1.35423,-0.33228775 L 29.806415,-1.448273 q 0.633228,0.3260181 1.247647,0.49529681 0.614419,0.16927866 1.178681,0.16927866 0.846393,0 1.373038,-0.36363567 0.532914,-0.3636356 0.532914,-0.9216283 0,-0.6018797 -1.391847,-0.9717849 l -0.119122,-0.031348 -0.394983,-0.1003133 q -0.877741,-0.2319745 -1.285264,-0.6081493 -0.407523,-0.3824444 -0.407523,-0.9717849 0,-1.1222549 0.840124,-1.7805608 0.846393,-0.6583059 2.294666,-0.6583059 0.570532,0 1.109716,0.094044 0.545453,0.094044 1.072098,0.2821311 z" />
  <path
     id="path7293"
     style=""
     d="m 40.668685,-4.1379229 q 0.01881,-0.1003133 0.02508,-0.2068962 0.01254,-0.1065829 0.01254,-0.2131657 0,-0.7648888 -0.45141,-1.210029 -0.44514,-0.4451402 -1.216299,-0.4451402 -0.858932,0 -1.517238,0.5454535 -0.658306,0.5391839 -0.996863,1.5360471 l 4.144192,-0.00627 z m 1.003133,0.9028195 -5.366761,0 q -0.03762,0.2382441 -0.05016,0.3761748 -0.01254,0.1379308 -0.01254,0.2382441 0,0.8714716 0.532914,1.3479597 0.539184,0.47648811 1.517238,0.47648811 0.75235,0 1.423195,-0.16927866 0.670845,-0.16927865 1.247647,-0.49529685 l -0.219436,1.14106361 q -0.620688,0.25078321 -1.285264,0.37617481 -0.658306,0.12539161 -1.34169,0.12539161 -1.460812,0 -2.250779,-0.69592341 -0.783698,-0.70219302 -0.783698,-1.98745692 0,-1.0971765 0.388714,-2.0376136 0.394984,-0.9467066 1.153603,-1.6865171 0.489027,-0.4639489 1.159872,-0.7147321 0.677115,-0.2507832 1.435734,-0.2507832 1.191221,0 1.893414,0.7147321 0.708462,0.7147322 0.708462,1.9184916 0,0.2884007 -0.03762,0.6206884 -0.03762,0.3260182 -0.112853,0.702193 z" />
  <path
     id="path7295"
     style=""
     d="M 47.079129,-4.0062618 46.295431,0 45.141828,0 45.354994,-1.0658286 q -0.507836,0.62695798 -1.159872,0.940437 -0.645767,0.30720943 -1.442004,0.30720943 -0.89655,0 -1.473351,-0.54545348 -0.570532,-0.55172306 -0.570532,-1.41065555 0,-1.2288377 0.978055,-1.9435699 0.984324,-0.7147321 2.708458,-0.7147321 l 1.605013,0 0.0627,-0.3072094 q 0.01254,-0.050157 0.01881,-0.1065829 0.0063,-0.062696 0.0063,-0.1880874 0,-0.5579927 -0.457679,-0.8652021 -0.45141,-0.313479 -1.272725,-0.313479 -0.564262,0 -1.159872,0.1442003 -0.589341,0.1442004 -1.216299,0.4326011 l 0.200627,-1.0658287 q 0.652036,-0.2445136 1.272724,-0.3636356 0.626958,-0.1253916 1.210029,-0.1253916 1.241377,0 1.887144,0.5391839 0.652036,0.5391839 0.652036,1.567395 0,0.2068962 -0.03135,0.4890273 -0.03135,0.2758615 -0.09404,0.5893405 z m -1.247647,0.4764881 -1.153602,0 q -1.416926,0 -2.10031,0.3824444 -0.677115,0.3761748 -0.677115,1.1724115 0,0.5517231 0.344827,0.8652021 0.351097,0.31347901 0.965516,0.31347901 0.940437,0 1.64263,-0.67084511 0.702193,-0.6771146 0.927898,-1.8056391 l 0.05016,-0.2570528 z" />
  <path
     id="path7297"
     style=""
     d="m 52.882292,-5.9561012 q -0.175549,-0.094044 -0.401253,-0.1442004 -0.225705,-0.050157 -0.482758,-0.050157 -0.921628,0 -1.611282,0.702193 -0.689654,0.6959234 -0.915359,1.8683349 L 48.763178,0 l -1.153603,0 1.373038,-7.0219298 1.153603,0 -0.219436,1.0909069 q 0.45768,-0.6081493 1.090907,-0.9341674 0.639497,-0.3260182 1.360499,-0.3260182 0.188088,0 0.369905,0.025078 0.181818,0.018809 0.363636,0.068965 l -0.219435,1.1410636 z" />
  <path
     id="path7299"
     style=""
     d="m 58.628113,-6.7523379 -0.231974,1.1410636 q -0.413793,-0.3009398 -0.884011,-0.4514098 -0.463949,-0.1504699 -0.965516,-0.1504699 -0.551723,0 -1.053289,0.194357 -0.495297,0.194357 -0.833854,0.551723 -0.539184,0.5454535 -0.833854,1.2789944 -0.294671,0.7335409 -0.294671,1.5172384 0,0.9467066 0.470219,1.4106556 0.476488,0.46394891 1.442003,0.46394891 0.476488,0 1.009403,-0.14420034 0.539184,-0.14420037 1.122255,-0.43260107 l -0.219436,1.14106363 q -0.501566,0.20689615 -1.034481,0.30720943 -0.526644,0.10658287 -1.084637,0.10658287 -1.398116,0 -2.150466,-0.69592341 -0.75235,-0.70219302 -0.75235,-1.99999612 0,-1.0909069 0.388714,-2.0062656 0.394984,-0.9216283 1.166142,-1.6551692 0.526645,-0.5015664 1.235108,-0.7586192 0.708462,-0.2570528 1.548586,-0.2570528 0.489027,0 0.971785,0.1128524 0.482758,0.1065829 0.984324,0.3260182 z" />
  <path
     id="path7301"
     style=""
     d="M 64.330345,-4.2382362 63.50903,0 62.349158,0 63.170473,-4.1943492 q 0.05643,-0.2946702 0.08777,-0.5203751 0.03135,-0.2257049 0.03135,-0.3573661 0,-0.5266447 -0.332288,-0.821315 -0.332288,-0.2946703 -0.927898,-0.2946703 -0.927898,0 -1.611282,0.626958 -0.677115,0.6269581 -0.877741,1.6677084 L 58.781767,0 l -1.153603,0 1.899683,-9.7554668 1.153602,0 -0.74608,3.8369831 q 0.438871,-0.5893406 1.122255,-0.9278979 0.683384,-0.3448269 1.435734,-0.3448269 0.927898,0 1.435734,0.5015664 0.514105,0.5015664 0.514105,1.4106556 0,0.2257048 -0.03135,0.4827576 -0.02508,0.2570528 -0.08151,0.5579927 z" />
  <path
     id="path7303"
     style=""
     d="m 73.597412,-4.1379229 q 0.01881,-0.1003133 0.02508,-0.2068962 0.01254,-0.1065829 0.01254,-0.2131657 0,-0.7648888 -0.45141,-1.210029 -0.44514,-0.4451402 -1.216298,-0.4451402 -0.858933,0 -1.517239,0.5454535 -0.658306,0.5391839 -0.996863,1.5360471 l 4.144193,-0.00627 z m 1.003132,0.9028195 -5.36676,0 q -0.03762,0.2382441 -0.05016,0.3761748 -0.01254,0.1379308 -0.01254,0.2382441 0,0.8714716 0.532914,1.3479597 0.539184,0.47648811 1.517239,0.47648811 0.752349,0 1.423194,-0.16927866 0.670845,-0.16927865 1.247647,-0.49529685 l -0.219436,1.14106361 q -0.620688,0.25078321 -1.285263,0.37617481 -0.658306,0.12539161 -1.341691,0.12539161 -1.460812,0 -2.250779,-0.69592341 -0.783697,-0.70219302 -0.783697,-1.98745692 0,-1.0971765 0.388714,-2.0376136 0.394983,-0.9467066 1.153602,-1.6865171 0.489028,-0.4639489 1.159873,-0.7147321 0.677114,-0.2507832 1.435733,-0.2507832 1.191221,0 1.893414,0.7147321 0.708462,0.7147322 0.708462,1.9184916 0,0.2884007 -0.03762,0.6206884 -0.03762,0.3260182 -0.112853,0.702193 z" />
  <path
     id="path7305"
     style=""
     d="M 80.264904,-4.2382362 79.443589,0 78.283717,0 79.105032,-4.1943492 q 0.05643,-0.2946702 0.08777,-0.5203751 0.03135,-0.2257049 0.03135,-0.3573661 0,-0.5266447 -0.332288,-0.821315 -0.332288,-0.2946703 -0.927898,-0.2946703 -0.927898,0 -1.598743,0.6206885 -0.670845,0.6144188 -0.877741,1.6739779 L 74.716325,0 l -1.153602,0 1.360499,-7.0219298 1.153602,0 -0.231974,1.1034461 q 0.482758,-0.6081493 1.159872,-0.9404371 0.677115,-0.3322877 1.423195,-0.3322877 0.927898,0 1.435734,0.5015664 0.514105,0.5015664 0.514105,1.4106556 0,0.2257048 -0.03135,0.4827576 -0.02508,0.2570528 -0.0815,0.5579927 z" />
  <path
     id="path7307"
     style=""
     d="m 87.804564,-7.0219298 -1.19749,6.15045815 q -0.344827,1.78683036 -1.322881,2.66457155 -0.971785,0.8777413 -2.620685,0.8777413 -0.608149,0 -1.128524,-0.094044 -0.520375,-0.087774 -0.971785,-0.2758616 l 0.213165,-1.1222548 q 0.426332,0.2758615 0.90282,0.4075227 0.476488,0.1316612 1.015672,0.1316612 1.097177,0 1.79937,-0.6018797 0.708462,-0.59561014 0.934167,-1.717865 l 0.100313,-0.5266447 Q 85.045949,-0.57680138 84.406451,-0.28840069 83.766954,0 83.027144,0 81.961315,0 81.346896,-0.70219298 80.738747,-1.4106555 80.738747,-2.6457629 q 0,-0.9717849 0.369905,-1.8996828 0.369905,-0.9341674 1.040751,-1.6551691 0.44514,-0.4764881 1.03448,-0.7335409 0.59561,-0.2570528 1.241377,-0.2570528 0.708463,0 1.235107,0.3322877 0.526645,0.3260182 0.783698,0.9278979 l 0.200627,-1.0909069 1.159872,0 z m -1.736674,2.5767974 q 0,-0.8526629 -0.401253,-1.3166118 -0.401253,-0.463949 -1.141064,-0.463949 -0.457679,0 -0.871471,0.1818179 -0.413793,0.1818178 -0.708463,0.507836 -0.476488,0.5391839 -0.74608,1.2727248 -0.263322,0.7272713 -0.263322,1.5046992 0,0.8652021 0.401253,1.329151 0.407523,0.46394895 1.166142,0.46394895 1.097176,0 1.830717,-0.99059365 0.733541,-0.9968633 0.733541,-2.4890234 z" />
  <path
     id="path7309"
     style=""
     d="m 88.892093,-9.7554668 1.153603,0 -0.282131,1.4608122 -1.153603,0 0.282131,-1.4608122 z m -0.526645,2.733537 1.153603,0 L 88.146013,0 86.99241,0 88.365448,-7.0219298 Z" />
  <path
     id="path7311"
     style=""
     d="M 96.544201,-4.2382362 95.722886,0 94.563013,0 95.384328,-4.1943492 q 0.05643,-0.2946702 0.08778,-0.5203751 0.03135,-0.2257049 0.03135,-0.3573661 0,-0.5266447 -0.332287,-0.821315 -0.332288,-0.2946703 -0.927898,-0.2946703 -0.927898,0 -1.598743,0.6206885 -0.670845,0.6144188 -0.877741,1.6739779 L 90.995622,0 89.84202,0 l 1.360498,-7.0219298 1.153603,0 -0.231974,1.1034461 q 0.482757,-0.6081493 1.159872,-0.9404371 0.677115,-0.3322877 1.423195,-0.3322877 0.927898,0 1.435734,0.5015664 0.514105,0.5015664 0.514105,1.4106556 0,0.2257048 -0.03135,0.4827576 -0.02508,0.2570528 -0.0815,0.5579927 z" />
  <path
     id="path7313"
     style=""
     d="m 102.60423,-4.1379229 q 0.0188,-0.1003133 0.0251,-0.2068962 0.0125,-0.1065829 0.0125,-0.2131657 0,-0.7648888 -0.45141,-1.210029 -0.44514,-0.4451402 -1.2163,-0.4451402 -0.85893,0 -1.517237,0.5454535 -0.658306,0.5391839 -0.996863,1.5360471 l 4.14419,-0.00627 z m 1.00314,0.9028195 -5.366766,0 q -0.03762,0.2382441 -0.05016,0.3761748 -0.01254,0.1379308 -0.01254,0.2382441 0,0.8714716 0.532914,1.3479597 0.539184,0.47648811 1.517237,0.47648811 0.75235,0 1.4232,-0.16927866 0.67084,-0.16927865 1.24764,-0.49529685 l -0.21943,1.14106361 q -0.62069,0.25078321 -1.28527,0.37617481 -0.6583,0.12539161 -1.34169,0.12539161 -1.460809,0 -2.250776,-0.69592341 -0.783698,-0.70219302 -0.783698,-1.98745692 0,-1.0971765 0.388714,-2.0376136 0.394984,-0.9467066 1.153603,-1.6865171 0.489027,-0.4639489 1.159872,-0.7147321 0.677115,-0.2507832 1.435735,-0.2507832 1.19122,0 1.89341,0.7147321 0.70846,0.7147322 0.70846,1.9184916 0,0.2884007 -0.0376,0.6206884 -0.0376,0.3260182 -0.11285,0.702193 z" />
</g>

</g>
      </g>
    </g>
  </g>
</svg>
