<svg id="Layer_1" data-name="Layer 1" xmlns="http://www.w3.org/2000/svg" viewBox="0 0 75.18 30"><defs><style>.cls-1,.cls-2{fill:#fff;}.cls-2{opacity:0.5;}</style></defs><title>1--Agoda_w</title><path class="cls-1" d="M32.28,12.12a5.14,5.14,0,0,1-.24-1.5c0-.51,0-1,0-1.39s0-.92,0-1.52a5.51,5.51,0,0,0-.4-2.28A2.46,2.46,0,0,0,30.3,4.17a7.09,7.09,0,0,0-2.65-.4,6.68,6.68,0,0,0-2.51.41,3.41,3.41,0,0,0-1.49,1,2.17,2.17,0,0,0-.48,1.31,0.9,0.9,0,0,0,.31.71,1.09,1.09,0,0,0,.74.28,0.81,0.81,0,0,0,.62-0.17c0.1-.12.26-0.35,0.49-0.71a2.38,2.38,0,0,1,.84-0.81,3.1,3.1,0,0,1,1.46-.27A1.82,1.82,0,0,1,29.15,6a2.66,2.66,0,0,1,.41,1.48q-0.8.24-1.49,0.4t-1.65.36l-1.21.25a3.32,3.32,0,0,0-1.82,1,2.58,2.58,0,0,0-.66,1.78,2.73,2.73,0,0,0,.4,1.44,2.82,2.82,0,0,0,1.14,1.05,3.68,3.68,0,0,0,1.72.39,5,5,0,0,0,1.94-.36,7.91,7.91,0,0,0,1.79-1.08,5.5,5.5,0,0,0,.81,1.07,1.12,1.12,0,0,0,.78.37,1.24,1.24,0,0,0,.84-0.32,0.94,0.94,0,0,0,.37-0.72A4.71,4.71,0,0,0,32.28,12.12ZM30,9.4a3.62,3.62,0,0,1-.57,1.91,2.56,2.56,0,0,1-1.05.86,3.22,3.22,0,0,1-1.45.33,1.7,1.7,0,0,1-1.18-.41,1.31,1.31,0,0,1-.45-1,1.07,1.07,0,0,1,.37-0.87,2,2,0,0,1,.78-0.42c0.27-.07,1-0.18,1.7-0.34A14.77,14.77,0,0,1,30,9V9.4Z" transform="translate(-22.17)"/><path class="cls-1" d="M48.65,4.27a1.08,1.08,0,0,0-1-.48A1.56,1.56,0,0,0,46,5.19V5.53a2,2,0,0,0-1.28-1.3,3.62,3.62,0,0,0-1.78-.42,4,4,0,0,0-1.61.32,3.72,3.72,0,0,0-1.31,1,4.32,4.32,0,0,0-.88,1.56,6.47,6.47,0,0,0-.31,2.08,6.76,6.76,0,0,0,.52,2.72,4.17,4.17,0,0,0,1.47,1.83,3.86,3.86,0,0,0,2.24.66,3.72,3.72,0,0,0,1.84-.43,4.18,4.18,0,0,0,1.36-1.25q0,1.25-.06,1.82a3.09,3.09,0,0,1-.26,1.06,1.57,1.57,0,0,1-.77.77,3.48,3.48,0,0,1-1.54.28,3.73,3.73,0,0,1-.86-0.09,1.93,1.93,0,0,1-.64-0.27,2.46,2.46,0,0,1-.49-0.44l-0.42-.51a1.26,1.26,0,0,0-1-.5,1.08,1.08,0,0,0-.77.3,1,1,0,0,0-.32.76,1.73,1.73,0,0,0,.56,1.2,4.06,4.06,0,0,0,1.6,1,7,7,0,0,0,2.35.37,8.5,8.5,0,0,0,2.41-.29,3.77,3.77,0,0,0,2.54-2.4A7.51,7.51,0,0,0,49,13.07V5.66A3,3,0,0,0,48.65,4.27Zm-2.71,6.39a2.5,2.5,0,0,1-.92,1,2.29,2.29,0,0,1-1.2.34,2.19,2.19,0,0,1-1.75-.79A3.53,3.53,0,0,1,41.4,8.9a3.74,3.74,0,0,1,.66-2.36,2.13,2.13,0,0,1,1.75-.83,2.19,2.19,0,0,1,1.81.87A3.83,3.83,0,0,1,46.3,9,3.59,3.59,0,0,1,45.95,10.67Z" transform="translate(-22.17)"/><path class="cls-1" d="M64.73,6.88a4.62,4.62,0,0,0-1-1.65,4.56,4.56,0,0,0-1.62-1.06,6.1,6.1,0,0,0-4.19,0,4.51,4.51,0,0,0-1.61,1.05,4.6,4.6,0,0,0-1,1.65A6.08,6.08,0,0,0,54.92,9a6,6,0,0,0,.35,2.1,4.6,4.6,0,0,0,2.63,2.71,5.52,5.52,0,0,0,2.08.37,5.66,5.66,0,0,0,2.1-.37,4.54,4.54,0,0,0,1.61-1.06,4.63,4.63,0,0,0,1-1.65A6,6,0,0,0,65.08,9,6.06,6.06,0,0,0,64.73,6.88Zm-2.9,4.52a2.22,2.22,0,0,1-1.84.87,2.25,2.25,0,0,1-1.33-.4,2.49,2.49,0,0,1-.87-1.14A4.63,4.63,0,0,1,57.48,9a4.66,4.66,0,0,1,.31-1.77,2.46,2.46,0,0,1,.88-1.15A2.29,2.29,0,0,1,60,5.68a2.23,2.23,0,0,1,1.84.87A3.82,3.82,0,0,1,62.52,9,3.81,3.81,0,0,1,61.83,11.4Z" transform="translate(-22.17)"/><path class="cls-1" d="M80.78,0.37A1,1,0,0,0,79.93,0a0.82,0.82,0,0,0-.76.4A2,2,0,0,0,79,1.59V5.35a17,17,0,0,1-1.59-1.16,4.36,4.36,0,0,0-1.92-.38,4,4,0,0,0-3.1,1.34,5.49,5.49,0,0,0-1.18,3.73A7.19,7.19,0,0,0,71.5,11a5,5,0,0,0,.86,1.69,4,4,0,0,0,1.35,1.11,3.77,3.77,0,0,0,1.69.39A4.07,4.07,0,0,0,76.68,14a4.46,4.46,0,0,0,1.2-.56,2.14,2.14,0,0,1,1.13-1v0.25a1.56,1.56,0,0,0,.23,1.08,1,1,0,0,0,.81.38,0.89,0.89,0,0,0,.75-0.36A1.58,1.58,0,0,0,81,12.71V1.46A1.66,1.66,0,0,0,80.78.37ZM78.3,10.77a2.42,2.42,0,0,1-.89,1.08,2.26,2.26,0,0,1-1.23.35A2.17,2.17,0,0,1,75,11.83a2.45,2.45,0,0,1-.88-1.1A4.35,4.35,0,0,1,73.75,9a4.53,4.53,0,0,1,.3-1.72,2.53,2.53,0,0,1,.85-1.14,2.08,2.08,0,0,1,1.25-.4,2.14,2.14,0,0,1,1.24.39,2.63,2.63,0,0,1,.9,1.12A4.23,4.23,0,0,1,78.63,9,4.33,4.33,0,0,1,78.3,10.77Z" transform="translate(-22.17)"/><path class="cls-1" d="M97,12.12a5.12,5.12,0,0,1-.24-1.5c0-.51,0-1,0-1.39s0-.92,0-1.52a5.51,5.51,0,0,0-.4-2.28,2.46,2.46,0,0,0-1.36-1.25,7.09,7.09,0,0,0-2.65-.4,6.68,6.68,0,0,0-2.51.41,3.42,3.42,0,0,0-1.49,1,2.16,2.16,0,0,0-.48,1.31,0.9,0.9,0,0,0,.31.71,1.09,1.09,0,0,0,.74.28,0.81,0.81,0,0,0,.62-0.17q0.14-.17.49-0.71A2.38,2.38,0,0,1,91,5.82a3.11,3.11,0,0,1,1.46-.27A1.82,1.82,0,0,1,93.91,6a2.68,2.68,0,0,1,.41,1.48q-0.8.24-1.49,0.4l-1.65.36L90,8.51a3.33,3.33,0,0,0-1.82,1,2.57,2.57,0,0,0-.66,1.78,2.72,2.72,0,0,0,.4,1.44A2.81,2.81,0,0,0,89,13.78a3.68,3.68,0,0,0,1.72.39,5,5,0,0,0,1.94-.36,7.9,7.9,0,0,0,1.79-1.08,5.52,5.52,0,0,0,.81,1.07,1.12,1.12,0,0,0,.78.37,1.23,1.23,0,0,0,.84-0.32,0.94,0.94,0,0,0,.37-0.72A4.69,4.69,0,0,0,97,12.12ZM94,9.4a4.31,4.31,0,0,1-.19,1.91,2,2,0,0,1-.86.86,2.84,2.84,0,0,1-1.36.33,1.58,1.58,0,0,1-1.13-.41,1.29,1.29,0,0,1-.43-1,1.08,1.08,0,0,1,.38-0.87,2,2,0,0,1,.79-0.42c0.28-.07.61-0.18,1.33-0.34A3.8,3.8,0,0,0,94,9V9.4Z" transform="translate(-22.17)"/><circle class="cls-1" cx="5.09" cy="24.91" r="5.09"/><path class="cls-2" d="M27.44,23.3c-2.68.41-2.47,1.09-3.06,1.29a1.17,1.17,0,0,1-1.32-.51A1.94,1.94,0,0,1,23.55,22a4.65,4.65,0,0,1,7.72.65C31.63,23.29,28.24,23.17,27.44,23.3Z" transform="translate(-22.17)"/><circle class="cls-1" cx="22.09" cy="24.91" r="5.09"/><path class="cls-2" d="M44.44,23.3c-2.68.41-2.47,1.09-3.06,1.29a1.17,1.17,0,0,1-1.32-.51A1.94,1.94,0,0,1,40.55,22a4.65,4.65,0,0,1,7.72.65C48.63,23.29,45.24,23.17,44.44,23.3Z" transform="translate(-22.17)"/><circle class="cls-1" cx="38.09" cy="24.91" r="5.09"/><path class="cls-2" d="M60.44,23.3c-2.68.41-2.47,1.09-3.06,1.29a1.17,1.17,0,0,1-1.32-.51A1.94,1.94,0,0,1,56.55,22a4.65,4.65,0,0,1,7.72.65C64.63,23.29,61.24,23.17,60.44,23.3Z" transform="translate(-22.17)"/><circle class="cls-1" cx="54.09" cy="24.91" r="5.09"/><path class="cls-2" d="M76.44,23.3c-2.68.41-2.47,1.09-3.06,1.29a1.17,1.17,0,0,1-1.32-.51A1.94,1.94,0,0,1,72.55,22a4.65,4.65,0,0,1,7.72.65C80.63,23.29,77.24,23.17,76.44,23.3Z" transform="translate(-22.17)"/><circle class="cls-1" cx="70.09" cy="24.91" r="5.09"/><path class="cls-2" d="M92.44,23.3c-2.68.41-2.47,1.09-3.06,1.29a1.17,1.17,0,0,1-1.32-.51A1.94,1.94,0,0,1,88.55,22a4.65,4.65,0,0,1,7.72.65C96.63,23.29,93.24,23.17,92.44,23.3Z" transform="translate(-22.17)"/></svg>