<svg id="Layer_1" data-name="Layer 1" xmlns="http://www.w3.org/2000/svg" viewBox="0 0 120 19.93"><defs><style>.cls-1{fill:#03aeee;}.cls-2{fill:#20407a;}</style></defs><title>2--Booking</title><path class="cls-1" d="M112.71,11.36c0.24-.26.43-0.47,0.63-0.66a4.3,4.3,0,0,1,4.48-1,3,3,0,0,1,2.06,2.74,14.78,14.78,0,0,1,.11,2c0,2,0,4.06,0,6.22-0.75,0-1.47,0-2.17-.16a1,1,0,0,1-.83-1c0-.64-0.06-1.28-0.07-1.93,0-1.37,0-2.74,0-4.11A1.21,1.21,0,0,0,115,12.44a3.1,3.1,0,0,0-1.77,3c-0.06,1.49,0,3,0,4.47,0,0.22,0,.44,0,0.71h-3c0-.2,0-0.41,0-0.62,0-1.87,0-3.75,0-5.62,0-.24,0-0.48,0-0.72a1.35,1.35,0,0,0-.81-1.3,1.56,1.56,0,0,0-1.68.36,3.63,3.63,0,0,0-1.16,2.7c-0.05,1.51,0,3,0,4.53,0,0.22,0,.43,0,0.69h-3V9.82c2.19-.24,2.62.1,2.95,1.21A4.32,4.32,0,0,1,109.7,9.5,3.17,3.17,0,0,1,112.71,11.36Z" transform="translate(0 -5.03)"/><path class="cls-2" d="M64.73,23.89c0.22-.55.4-1,0.61-1.52a1,1,0,0,1,1.41-.63,11.66,11.66,0,0,0,2.55.33,2,2,0,0,0,2.11-2.22,12.75,12.75,0,0,1-2.36.59c-2.89.17-5-1.9-5.22-5a5.79,5.79,0,0,1,1.62-4.81,4.94,4.94,0,0,1,6.28-.2c0.69-1.12,1.79-.7,2.84-0.8v0.71c0,3-.08,6,0,8.94,0.15,4.37-3.21,5.79-6.22,5.65A7.66,7.66,0,0,1,64.73,23.89Zm2.23-9a12.3,12.3,0,0,0,.51,1.71,2,2,0,0,0,2.09,1.12,1.81,1.81,0,0,0,1.77-1.54,7.17,7.17,0,0,0,.09-2.09A2,2,0,0,0,69,12.23C67.75,12.35,67.06,13.26,67,14.87Z" transform="translate(0 -5.03)"/><path class="cls-2" d="M8.32,12.65a3.66,3.66,0,0,1,2.07,2.44A4.24,4.24,0,0,1,6.67,20.5a37,37,0,0,1-4.21.14c-0.8,0-1.6,0-2.46,0V20Q0,13.68,0,7.34A1.59,1.59,0,0,1,1.8,5.52c1.19,0,2.38,0,3.56,0a7,7,0,0,1,2,.34,3.79,3.79,0,0,1,1.19,6.56ZM2.94,18c0.92,0,1.8,0,2.68,0A1.82,1.82,0,0,0,7.49,16.1,1.87,1.87,0,0,0,5.66,14c-0.58,0-1.17,0-1.75,0a0.84,0.84,0,0,0-1,.87C2.92,15.89,2.94,16.93,2.94,18Zm0-6.45c0.88,0,1.68,0,2.48,0A1.64,1.64,0,0,0,7,9.83,1.57,1.57,0,0,0,5.59,8.07,12.85,12.85,0,0,0,3.9,8a0.88,0.88,0,0,0-1,.93C2.91,9.81,2.93,10.67,2.93,11.59Z" transform="translate(0 -5.03)"/><path class="cls-2" d="M46.53,9.7L43.1,14.77l3.4,5.93H43.76a1.71,1.71,0,0,1-1.56-1c-0.5-1-1-1.92-1.53-2.87-0.33-.62-0.33-0.62-1.14-0.6v4.48H36.31V5.54c0.71,0,1.39,0,2.07,0a1.07,1.07,0,0,1,1.06,1,4.72,4.72,0,0,1,.06.78c0,2,0,4,0,6A1.21,1.21,0,0,0,41,12.72c0.52-.88,1.12-1.72,1.65-2.59a0.77,0.77,0,0,1,.77-0.43C44.4,9.72,45.4,9.7,46.53,9.7Z" transform="translate(0 -5.03)"/><path class="cls-2" d="M55.54,20.69H52.39V9.78c1.71-.32,2.48-0.06,3.12,1.09a4.4,4.4,0,0,1,3.34-1.4,3.55,3.55,0,0,1,3.88,3.81c0,1.71,0,3.42,0,5.14,0,0.74,0,1.49,0,2.33-0.72,0-1.44,0-2.15-.12a1.33,1.33,0,0,1-1-1.51c0-1.61,0-3.22,0-4.83S58.5,11.88,57,12.75a2.93,2.93,0,0,0-1.41,2.76c0,1.49,0,3,0,4.47C55.54,20.2,55.54,20.42,55.54,20.69Z" transform="translate(0 -5.03)"/><path class="cls-2" d="M29.45,9.51a5.47,5.47,0,0,1,5.74,5.72,5.52,5.52,0,0,1-5.76,5.66,5.53,5.53,0,0,1-5.75-5.74A5.48,5.48,0,0,1,29.45,9.51Zm-0.18,2.68a3.46,3.46,0,0,0-.48.08,2.66,2.66,0,0,0-2,2.46c-0.12,1.53.43,2.76,1.52,3.21a2.93,2.93,0,0,0,1.34.22c1.64-.17,2.58-1.53,2.39-3.35A2.68,2.68,0,0,0,29.28,12.19Z" transform="translate(0 -5.03)"/><path class="cls-2" d="M17.12,20.88a5.54,5.54,0,0,1-5.74-5.69,5.5,5.5,0,0,1,5.79-5.68,5.5,5.5,0,0,1,5.74,5.67A5.54,5.54,0,0,1,17.12,20.88ZM14.5,15.16a3,3,0,0,0,.94,2.39,2.59,2.59,0,0,0,3.78-.41,3.6,3.6,0,0,0,0-3.87,2.55,2.55,0,0,0-2.88-1A2.78,2.78,0,0,0,14.5,15.16Z" transform="translate(0 -5.03)"/><path class="cls-1" d="M96.55,9.51a5.52,5.52,0,0,1,5.8,5.67,5.77,5.77,0,0,1-11.54,0A5.49,5.49,0,0,1,96.55,9.51Zm2.67,5.67c0-.12,0-0.24,0-0.36A2.74,2.74,0,0,0,97,12.2,2.57,2.57,0,0,0,94.11,14a3.61,3.61,0,0,0,.05,2.48A2.52,2.52,0,0,0,97,18.13,2.71,2.71,0,0,0,99.22,15.17Z" transform="translate(0 -5.03)"/><path class="cls-1" d="M90,13.52c-0.51,0-.93,0-1.35,0a1.28,1.28,0,0,1-1.43-.84,1.21,1.21,0,0,0-.83-0.49,2.93,2.93,0,0,0-3.31,3.61,3,3,0,0,0,3.77,2.34,5.53,5.53,0,0,0,1.32-.56,11.24,11.24,0,0,0,1.14-.85c0.39,0.64.79,1.26,1.14,1.91a0.57,0.57,0,0,1-.11.51,6.51,6.51,0,0,1-6.83,1.37A5.47,5.47,0,0,1,80,15.26c-0.07-4.86,5-6.85,8.57-5.19A2.26,2.26,0,0,1,90,12.43C90,12.76,90,13.1,90,13.52Z" transform="translate(0 -5.03)"/><path class="cls-2" d="M50.55,20.69H47.47v-11a12.44,12.44,0,0,1,2.2.19,2.05,2.05,0,0,1,.84.92,1.26,1.26,0,0,1,.08.65q0,4.43,0,8.87C50.58,20.41,50.57,20.52,50.55,20.69Z" transform="translate(0 -5.03)"/><path class="cls-2" d="M48.86,8.7a1.83,1.83,0,1,1,1.87-1.82A1.86,1.86,0,0,1,48.86,8.7Z" transform="translate(0 -5.03)"/><path class="cls-1" d="M77.61,20.84a1.85,1.85,0,0,1,.06-3.69A1.85,1.85,0,1,1,77.61,20.84Z" transform="translate(0 -5.03)"/></svg>