<?xml version="1.0" encoding="UTF-8" standalone="no"?>
<!-- Created with Inkscape (http://www.inkscape.org/) -->

<svg
   xmlns:dc="http://purl.org/dc/elements/1.1/"
   xmlns:cc="http://creativecommons.org/ns#"
   xmlns:rdf="http://www.w3.org/1999/02/22-rdf-syntax-ns#"
   xmlns:svg="http://www.w3.org/2000/svg"
   xmlns="http://www.w3.org/2000/svg"
   xmlns:sodipodi="http://sodipodi.sourceforge.net/DTD/sodipodi-0.dtd"
   xmlns:inkscape="http://www.inkscape.org/namespaces/inkscape"
   width="45.155556mm"
   height="7.4081826mm"
   viewBox="0 0 160 26.249466"
   id="svg7436"
   version="1.1"
   inkscape:version="0.91 r13725"
   sodipodi:docname="easy-color.svg">
  <defs
     id="defs7438">
    <clipPath
       clipPathUnits="userSpaceOnUse"
       id="clipPath20">
      <path
         d="M 0,196.871 0,0 l 1200,0 0,196.871 z"
         id="path18"
         inkscape:connector-curvature="0" />
    </clipPath>
    <linearGradient
       x1="0"
       y1="0"
       x2="1"
       y2="0"
       gradientUnits="userSpaceOnUse"
       gradientTransform="matrix(0,170,170,0,85,26.871)"
       spreadMethod="pad"
       id="linearGradient26">
      <stop
         style="stop-opacity:1;stop-color:#f58f29"
         offset="0"
         id="stop22" />
      <stop
         style="stop-opacity:1;stop-color:#f8a92d"
         offset="1"
         id="stop24" />
    </linearGradient>
    <linearGradient
       x1="0"
       y1="0"
       x2="1"
       y2="0"
       gradientUnits="userSpaceOnUse"
       gradientTransform="matrix(0,60,60,0,90,66.871)"
       spreadMethod="pad"
       id="linearGradient34">
      <stop
         style="stop-opacity:1;stop-color:#f58f29"
         offset="0"
         id="stop30" />
      <stop
         style="stop-opacity:1;stop-color:#f8a92d"
         offset="1"
         id="stop32" />
    </linearGradient>
    <linearGradient
       x1="0"
       y1="0"
       x2="1"
       y2="0"
       gradientUnits="userSpaceOnUse"
       gradientTransform="matrix(0,8.67445,8.67445,0,100,96.871)"
       spreadMethod="pad"
       id="linearGradient42">
      <stop
         style="stop-opacity:1;stop-color:#f58f29"
         offset="0"
         id="stop38" />
      <stop
         style="stop-opacity:1;stop-color:#f8a92d"
         offset="1"
         id="stop40" />
    </linearGradient>
    <linearGradient
       x1="0"
       y1="0"
       x2="1"
       y2="0"
       gradientUnits="userSpaceOnUse"
       gradientTransform="matrix(0,11.7845,11.7845,0,52.3324,96.871)"
       spreadMethod="pad"
       id="linearGradient50">
      <stop
         style="stop-opacity:1;stop-color:#f58f29"
         offset="0"
         id="stop46" />
      <stop
         style="stop-opacity:1;stop-color:#f8a92d"
         offset="1"
         id="stop48" />
    </linearGradient>
  </defs>
  <sodipodi:namedview
     id="base"
     pagecolor="#ffffff"
     bordercolor="#666666"
     borderopacity="1.0"
     inkscape:pageopacity="0.0"
     inkscape:pageshadow="2"
     inkscape:zoom="0.49497475"
     inkscape:cx="-457.0472"
     inkscape:cy="-40.236626"
     inkscape:document-units="px"
     inkscape:current-layer="layer1"
     showgrid="false"
     inkscape:window-width="1920"
     inkscape:window-height="1018"
     inkscape:window-x="-8"
     inkscape:window-y="-8"
     inkscape:window-maximized="1"
     fit-margin-top="0"
     fit-margin-left="0"
     fit-margin-right="0"
     fit-margin-bottom="0" />
  <metadata
     id="metadata7441">
    <rdf:RDF>
      <cc:Work
         rdf:about="">
        <dc:format>image/svg+xml</dc:format>
        <dc:type
           rdf:resource="http://purl.org/dc/dcmitype/StillImage" />
        <dc:title></dc:title>
      </cc:Work>
    </rdf:RDF>
  </metadata>
  <g
     inkscape:label="Layer 1"
     inkscape:groupmode="layer"
     id="layer1"
     transform="translate(-364.46712,-449.30838)">
    <g
       id="g10"
       transform="matrix(1.3333333,0,0,-1.3333333,364.46712,475.55785)">
      <g
         id="g12"
         transform="scale(0.1,0.1)">
        <g
           id="g14">
          <g
             id="g16"
             clip-path="url(#clipPath20)">
            <path
               d="m 154.789,46.8711 -134.789,0 0,-2.3203 0,132.3202 140,0 0,-132.746 -1.336,0.1562 z M 170,183.621 c 0,7.317 -5.934,13.25 -13.25,13.25 l -143.5,0 C 5.92969,196.871 0,190.938 0,183.621 L 0,40.1211 c 0,-7.3164 5.92969,-13.25 13.25,-13.25 l 143.5,0 c 7.316,0 13.25,5.9336 13.25,13.25 l 0,143.4999"
               style="fill:url(#linearGradient26);fill-opacity:1;fill-rule:evenodd;stroke:none"
               id="path28"
               inkscape:connector-curvature="0" />
            <path
               d="m 130,109.973 0,-23.1019 -90,0 0,39.9999 -10,0 0,-59.9999 10,0 90,0 20,0 0,49.9999 -20,0 0,-6.898"
               style="fill:url(#linearGradient34);fill-opacity:1;fill-rule:evenodd;stroke:none"
               id="path36"
               inkscape:connector-curvature="0" />
            <path
               d="m 130,102.926 c 0,0 -16.207,2.621 -30.9414,2.621 C 84.9609,105.547 70,102.926 70,102.926 l 0,-6.0549 60,0 0,6.0549"
               style="fill:url(#linearGradient42);fill-opacity:1;fill-rule:evenodd;stroke:none"
               id="path44"
               inkscape:connector-curvature="0" />
            <path
               d="m 64.6641,103.754 c 0,0 -9.3516,4.16 -14.0118,4.769 C 46.0625,109.129 40,107.457 40,107.457 l 0,-10.5859 24.2812,0 0.3829,6.8829"
               style="fill:url(#linearGradient50);fill-opacity:1;fill-rule:evenodd;stroke:none"
               id="path52"
               inkscape:connector-curvature="0" />
            <path
               d="m 269.379,54.8242 c -0.152,-0.6836 -0.383,-1.4609 -0.68,-2.332 l 0.074,-0.5547 0.504,-3.3594 -0.578,-3.5429 0,-1.6797 -0.187,-1.2149 0.187,-4.1015 -0.187,-0.6485 0,-4.8515 0.187,-0.9336 -0.187,-5.875 0.574,-1.6797 -0.387,-0.7422 0,-1.582 -0.187,-0.4727 0.187,-1.582 -0.769,-0.9297 0,-0.6524 -0.383,-0.8437 c -0.195,-1.0547 -0.899,-2.5781 -2.121,-4.5625 l -0.672,-2.332 c -0.516,-0.25 -0.832,-0.43754 -0.965,-0.56254 L 263.5,9.50781 262.637,8.39062 261.672,6.99219 260.035,6.14844 c -0.769,-1.36719 -1.672,-2.14453 -2.695,-2.32813 -0.324,-0.3125 -0.547,-0.5 -0.676,-0.55859 l -0.289,-0.27734 -1.352,-0.5625 -0.769,-0.7461 -0.965,0 L 252.812,0.933594 251.078,1.30469 249.25,0 247.516,0.554688 244.336,0 l -1.156,0 -3.176,0.554688 -1.445,0 -0.579,0.562502 -3.851,1.21484 -3.274,0.46485 -0.484,0.83984 -1.73,0.18359 -0.579,1.58594 -1.156,0.27734 -0.769,1.40235 -1.832,0.65234 -1.539,2.14844 -2.793,1.67188 0.191,1.7773 c -0.129,0.0586 -0.418,1.2696 -0.863,3.6329 0,0.996 0.222,2.207 0.672,3.6328 l 0,0.8398 0.965,0.4648 0.574,1.5899 0.386,-0.1875 0.965,1.4922 1.731,1.2383 1.351,0.3554 2.602,1.9493 2.504,0 c 0.637,0.621 1.472,0.9335 2.504,0.9335 1.472,-0.6875 2.215,-1.5234 2.215,-2.5156 0,-0.625 -0.29,-1.2461 -0.864,-1.8672 l -1.344,-0.6562 -1.437,-1.0235 -1.434,-0.371 -0.859,-1.5899 -1.437,-0.0234 -0.598,-0.9219 -1.274,-1.0195 0.094,-1.3985 -0.769,-1.3008 0.386,-0.9336 0.672,-1.4921 2.121,-1.3086 0.477,-1.3907 2.605,-1.95699 1.446,-0.09765 1.726,-1.30078 1.735,0 1.062,-0.83594 1.352,0 0.765,-0.65625 4.625,0.18359 2.981,0.9375 1.832,-0.09375 2.023,1.11719 c 0.512,0.18359 0.961,0.28125 1.348,0.28125 0.129,0.05859 0.355,0.1875 0.676,0.37891 l 0.476,0.73832 0.965,-0.27348 0.387,0.36718 0,0.75 c 0.066,0.3711 0.496,0.6797 1.289,0.9297 0.262,0.6211 0.793,1.1523 1.59,1.5859 0.199,0.3086 0.363,0.9922 0.492,2.0469 l 1.391,0.7461 0.296,0.6563 c 0.266,0.5 0.528,1.0234 0.793,1.5859 l 0.102,0.2734 0.297,3.6407 0.394,0.2812 0,1.4883 -0.578,1.4062 0.578,1.1172 c 0,1.2422 0,2.0821 0,2.5156 0,0.5586 0,1.1954 0,1.9102 0,0.7187 0,1.1367 0,1.2539 l 0,4.7578 -0.675,1.2149 0.675,1.957 0,6.625 -0.48,1.2031 0.48,0.6563 0,1.2148 c 0,0.4336 0,0.7109 0,0.8399 l -0.773,2.1445 0,3.2617 -1.055,-1.6797 -1.156,-0.8359 -1.156,-1.1172 -0.77,-0.2813 -0.289,-1.125 -0.871,-0.4648 -0.094,-0.2773 -1.343,-1.1211 -1.833,-2.1407 -2.601,-2.6093 -0.961,-0.2813 -0.293,-0.4687 -2.887,-2.0469 -0.867,0 -0.961,-0.9297 -0.383,-0.9414 -2.121,-0.6523 -0.386,-0.6524 -1.446,-0.1836 -2.023,-1.3086 -1.633,-0.3672 -0.773,-0.5625 -1.059,-0.1875 -0.289,-0.1875 c -0.832,-0.8711 -2.152,-1.3047 -3.945,-1.3047 -1.926,0 -3.442,0.5899 -4.532,1.7696 l -2.117,3.082 0,1.7695 -1.25,3.3555 0,2.7969 -0.387,1.1211 0.579,0.9297 -0.485,2.0547 0.774,0.5585 0.109,0.9297 0.66,1.1172 -0.383,1.961 0.383,0.746 0,0.6524 c 0,1.3086 0.223,2.832 0.672,4.5703 l -0.289,2.5156 0.289,2.3321 -0.672,3.3593 0,0.6485 -0.383,0.5586 1.153,2.9882 c 0.257,0.9883 0.386,1.9844 0.386,2.9805 0.77,0.375 1.543,0.5625 2.309,0.5625 0.578,0 1.16,-0.0937 1.734,-0.2812 l 0.868,-1.8672 1.636,-1.1211 c -0.187,-0.9336 -0.347,-1.6758 -0.476,-2.2383 l 0.879,-1.3984 -0.364,-0.9414 1.215,-1.0274 -1.156,-2.0469 0.578,-2.4257 -0.676,-1.0235 0.098,-0.1836 -0.574,-4.0078 0,-3.6367 -0.578,-0.5625 -0.391,-3.2539 -0.863,-1.0274 c 0,-0.3124 0.031,-0.7226 0.097,-1.2109 0,-0.4414 0,-0.75 0,-0.9375 l 0.672,-1.6797 -0.672,-1.2109 0.192,-1.4883 -0.192,-0.375 0.192,-1.1133 0.867,-0.75 0.676,0.1914 0.093,-0.5625 0.672,0.9336 2.793,0 c 0.387,0.3672 0.868,0.6836 1.45,0.9336 1.472,0.9883 2.789,1.5508 3.945,1.6797 l 0.094,1.207 c 1.796,0.9375 4.078,2.1446 6.843,3.6368 l 0.383,0.75 c -0.191,-0.129 -0.355,-0.2188 -0.48,-0.2852 0.187,0.1289 0.64,0.4062 1.351,0.8438 l 0.391,1.2148 0.68,1.0234 1.359,0.4649 0.773,1.1172 0.489,-0.0899 0.578,0.3633 1.164,1.2031 0.488,0.0938 0.098,0.2773 1.742,1.75 1.062,1.6797 c 0.711,0.1914 1.329,0.6211 1.848,1.3125 l 1.36,2.7109 0,2.8985 0.671,0.3711 0,0.2812 -0.671,1.6797 0.195,0.375 c -0.453,0.6875 -0.68,1.2149 -0.68,1.5899 0,0.6836 0.391,1.5273 1.156,2.5234 l 0,-0.2774 0.387,0.9336 0.098,0.3711 0,-0.2773 c 0.515,1.2383 1.793,1.8945 3.855,1.9531 l 3.078,-2.8906 0.289,-2.418 0.961,-1.5898 -0.578,-1.4883 0,-1.1172 c -0.051,-0.1914 -0.117,-0.4726 -0.187,-0.8398 l 0.187,-0.5625 0,-1.4922 -0.187,-1.4922 0.187,-2.0469 0,-3.914 0.68,-2.336"
               style="fill:#f8a82d;fill-opacity:1;fill-rule:nonzero;stroke:none"
               id="path54"
               inkscape:connector-curvature="0" />
            <path
               d="m 310.207,56.8125 -0.098,0.4648 c -0.449,0.4375 -0.707,0.9024 -0.769,1.3985 l 0.293,0.4648 -0.871,1.7617 0.191,1.7735 -0.383,0.4648 c -0.84,0.6211 -1.289,1.1133 -1.347,1.4883 -0.578,0.25 -0.868,0.8672 -0.868,1.8594 l -0.578,0.0937 -1.156,1.8633 -0.867,0.6524 -2.02,0.7382 -0.773,0.1875 c -0.387,0 -0.641,0.125 -0.77,0.3711 l -1.929,-2.039 -1.246,-2.5938 -2.024,-1.0156 -0.289,-1.0234 -0.961,-0.4649 -0.39,-2.4101 -1.153,-0.5547 c -0.258,-0.8672 -0.387,-1.6719 -0.387,-2.4063 l -1.539,-1.3906 0.481,-0.2813 c 0,-0.7343 -0.324,-1.3906 -0.969,-1.9453 -0.215,-0.5586 -0.504,-1.1718 -0.855,-1.8554 l 0,-2.2188 -1.067,-2.5039 0.196,-0.4648 0,-2.5977 -0.387,-1.293 0.098,-1.3007 0.867,-1.1993 1.343,-0.4648 0.481,-0.1836 3.269,0 0.383,0.9297 0.387,0 c 0.387,0 0.605,-0.0938 0.672,-0.2774 l 0.863,0.2774 0.77,-0.2774 1.25,0.8399 0.195,0.2851 0.867,0.1875 c 0.449,0.6875 1.504,1.375 3.172,2.0704 l 0.191,0.4687 1.926,1.3164 1.059,1.5039 1.539,0.7422 0.101,0.4649 0.504,1.0273 0,1.2109 1.153,0.9258 0.386,0.6524 0.485,0.5546 c -0.258,0.7461 -0.391,1.2774 -0.391,1.5821 0,0.5625 0.196,1.1484 0.578,1.7734 z m 6.355,2.2031 -0.578,-1.6718 c 0,-1.6172 -0.093,-2.8946 -0.289,-3.8243 l -0.574,-0.9297 0,-1.0273 -0.484,-0.6523 -0.285,-1.3047 -1.063,-1.0274 -0.676,-2.332 -0.769,-0.2773 -0.383,-1.0313 -1.156,-0.6523 -0.77,-1.5821 -1.16,-0.5625 -0.094,-1.1172 -1.832,-0.6523 c -0.832,-1.1133 -1.859,-1.8359 -3.082,-2.1445 l -0.383,-0.0938 c -0.902,-1.3008 -2.086,-1.957 -3.562,-1.957 -0.645,-0.3711 -1.379,-0.5586 -2.215,-0.5586 l -0.965,-0.6524 -0.965,-0.2773 -1.246,-0.9375 -1.258,0 -1.343,-0.2773 -1.641,0.6484 -4.141,0.2812 -1.445,2.1446 -2.117,2.1445 0.48,1.4961 -1.441,3.168 0.48,1.2109 -0.289,2.2422 0.289,1.3906 c 0,0.875 0,1.4961 0,1.8711 0,1.1758 0.336,2.0469 0.997,2.6133 0.066,0.6211 0.503,1.6406 1.296,3.0703 l 0.5,0 -0.289,0.6563 0.289,1.3046 0,1.3985 c 0.512,0.5586 0.801,0.9336 0.868,1.1172 l -0.289,1.3086 0,0.3711 c 0.449,0.871 0.671,1.7734 0.671,2.7031 l 2.024,2.7031 c 0.324,0.25 0.543,0.4375 0.676,0.5625 l -0.098,0.3711 0.387,0 1.441,1.582 0.098,2.1446 2.406,0.8437 c 0.902,0.5586 1.477,1.4883 1.734,2.7969 l 1.25,0 c 0.711,0.3711 1.352,0.5586 1.93,0.5586 0.574,0 1.121,-0.125 1.637,-0.375 l 1.058,-0.0899 2.504,0.9297 1.348,-1.2109 1.062,-0.6563 0.766,0 1.445,-0.7422 0.77,0 c 0.836,-0.746 1.801,-1.7695 2.891,-3.0781 l 0.191,-0.4648 0.676,-0.375 2.019,-2.5156 1.832,-4.3789 0,-0.9376 0.867,-3.2656"
               style="fill:#f8a82d;fill-opacity:1;fill-rule:nonzero;stroke:none"
               id="path56"
               inkscape:connector-curvature="0" />
            <path
               d="m 377.426,42.6055 c 0,-0.7383 -0.582,-1.6407 -1.735,-2.6993 l -0.769,-0.2812 -0.676,-0.8359 -1.734,-0.4727 c -0.321,-0.4297 -0.641,-0.6523 -0.961,-0.6523 -0.067,0 -0.129,0.0312 -0.196,0.0976 -0.125,0 -0.222,0 -0.289,0 -1.406,-0.6797 -3.113,-1.0273 -5.101,-1.0273 l -0.77,0 -2.41,0.4648 -1.637,0.75 -3.66,2.9883 -0.769,2.5117 -1.539,1.2149 c 0.195,0.2461 0.289,0.6523 0.289,1.2031 0,0.3789 -0.258,1 -0.774,1.8711 l 0.293,2.2344 0,0.375 c 0,0.7461 -0.226,1.707 -0.676,2.8906 l 0.579,2.7969 -1.254,-2.4258 -1.442,-0.1875 L 352,51.4688 c -0.516,-0.25 -1.125,-0.375 -1.832,-0.375 l -1.059,-2.2383 -1.25,-1.3946 c -0.515,-0.5625 -0.961,-0.8711 -1.347,-0.9375 l -0.289,-0.1796 -3.465,-3.4532 -0.387,0 -1.832,-2.1211 -1.73,-0.8633 -0.965,-1.246 -2.215,-0.6758 -3.176,-1.25 -1.926,0.9414 c -1.289,0 -2.183,0.5664 -2.695,1.6992 l -0.867,0.4688 c 0,0.1914 0.027,0.4414 0.094,0.7578 0,0.3125 0,0.5351 0,0.6601 l -1.543,1.3203 0.39,0.5625 -1.16,2.6407 0.387,0.3789 0,0.1875 c 0,0.1289 0,0.3125 0,0.5664 -0.195,0.1875 -0.289,0.3437 -0.289,0.4687 0,0.6914 0.074,1.3516 0.215,1.9766 l 0.074,2.457 -0.289,1.9805 c 0.195,0.4922 0.289,0.9297 0.289,1.3008 0,0.4375 -0.129,0.8437 -0.387,1.2148 l 1.063,0.7461 0,1.1172 -0.383,3.0781 1.054,5.9688 c 0,0.9922 -0.285,2.457 -0.867,4.3789 0.196,1.9883 1.539,3.0742 4.047,3.2656 l 0.77,-0.2813 1.347,-0.1836 1.735,-1.871 -0.774,-2.4258 0,-4.0117 0.293,-3.0821 -0.578,-1.1172 0.285,-0.75 -0.769,-1.4922 0,-1.2148 c 0,-0.1875 0,-0.4687 0,-0.8398 0,-0.8164 -0.063,-1.6485 -0.192,-2.5235 l 0.192,-0.6523 -0.203,-1.4024 0.168,-1.0976 0.035,-1.3008 c 0.511,-0.3711 0.769,-0.8359 0.769,-1.3984 0,-0.4961 -0.258,-0.9922 -0.769,-1.4961 l 0,-0.3672 c 0.336,-1.0586 0.508,-1.7383 0.508,-2.0469 l 0.906,-0.8437 c 0.402,0.25 0.871,0.5625 1.41,0.9375 0.203,0.6171 0.672,1.0234 1.418,1.207 l 0,0.9375 c 0.383,0 0.988,0.0937 1.82,0.2773 l 0.196,0.8438 1.636,0.6484 0.289,0.2852 c 0.453,0.4375 1.192,0.8398 2.219,1.2109 l 0,0.3711 1.832,1.3125 c 0.445,1.1758 1.246,1.957 2.402,2.332 0.707,0.6797 1.192,1.086 1.45,1.2149 l 1.25,1.582 0,0.2813 0.386,0.1875 0.864,0.3789 0.48,1.3007 2.024,0.8399 0.386,0.0937 0.676,0.6524 0,0.8398 0.563,0.1875 c 0.183,0.9922 0.691,1.7422 1.5,2.2383 l 1.402,3.1758 0.539,1.6602 0.203,0.3632 0.399,0 0.687,0.4688 -0.578,0.1875 c 0.711,1.1172 1.258,2.2969 1.641,3.5429 l 2.793,0.0899 2.214,-1.7656 0.957,-1.4961 -1.05,-4.0078 -1.45,-1.8633 -1.156,-3.6367 -0.965,-0.5586 0,-1.3985 -0.574,-1.0312 0.289,-1.6719 -0.769,-0.6562 0.382,-2.9805 0.192,-4.1992 0.48,0 0,-2.4219 1.352,-1.582 1.254,-0.6524 0.097,-0.4765 c 0.442,-0.0586 0.989,-0.2149 1.633,-0.4649 l 2.406,-0.1875 1.45,0.3789 2.597,1.2149 c 0.512,0.2461 1.157,0.3711 1.926,0.3711 1.93,0 2.891,-0.8086 2.891,-2.4297"
               style="fill:#f8a82d;fill-opacity:1;fill-rule:nonzero;stroke:none"
               id="path58"
               inkscape:connector-curvature="0" />
            <path
               d="m 419.793,71.8867 -0.77,-3.0742 -3.558,-0.4648 -1.93,-1.2149 -1.25,0.5625 -1.347,-0.7265 -1.446,-0.5508 -0.965,-0.6368 -0.027,-0.3593 -2.008,-0.9727 -1.344,-1.6953 -0.671,0 c -1.032,-1.0586 -1.766,-1.7109 -2.215,-1.9609 l -1.344,-2.1446 -0.484,-0.1875 c -0.192,-0.4961 -0.418,-1.2421 -0.676,-2.2421 l -1.348,-0.4649 -0.578,-1.1172 -0.766,-0.9297 -0.187,-1.4023 -0.774,-0.2774 0,-1.4023 -0.289,-0.2773 c 0.192,-0.3086 0.418,-0.6524 0.676,-1.0274 l -1.445,-0.5547 -0.195,-1.2148 -0.957,-1.582 0.578,-1.2149 -1.258,-1.6836 c 0.133,-0.6211 0.191,-1.0547 0.191,-1.3008 0,-0.0625 0,-0.1836 0,-0.3672 -0.058,-0.1914 -0.094,-0.3476 -0.094,-0.4648 l 0.192,-0.8437 1.637,-1.6797 -1.246,-2.1446 -1.157,-0.8398 -2.699,-1.3086 -3.562,1.3984 0,2.1446 -0.387,0.8437 0.289,1.3984 c -0.129,0.9922 -0.191,1.7383 -0.191,2.2344 0,0.1914 0.035,0.4375 0.097,0.75 0,0.3086 0,0.5235 0,0.6524 l -0.097,0.9297 c -0.45,0.4375 -0.676,0.9296 -0.676,1.4961 0,0.4921 0.226,1.0546 0.676,1.6796 0,0.3086 -0.063,1.2383 -0.196,2.7969 l 0.293,0.2774 -0.293,1.2148 0.196,1.1172 -0.196,0.6523 0.293,2.1446 -0.582,0.9296 0.387,1.0313 -0.387,1.2031 c 0.067,0.3789 0.094,0.8711 0.094,1.4961 0,0.9336 -0.121,1.5508 -0.379,1.8633 l 0.379,0.5586 -0.379,1.6797 -0.867,1.2148 0.48,1.4883 -0.383,0.5625 -0.386,2.2344 0,0.7461 c -0.324,0.375 -0.481,0.8437 -0.481,1.4023 0,1.2383 1.407,2.2969 4.235,3.168 l 2.406,-0.4649 0.484,-1.7734 0.965,-1.2148 -0.293,-2.5118 c 0.195,-1.246 0.418,-2.6132 0.676,-4.1015 l 0.289,-1.4922 c 0.062,-0.1289 0.129,-0.4688 0.195,-1.0273 0,-0.375 -0.168,-0.7813 -0.484,-1.2149 l 0.289,-1.8633 -0.191,-2.0508 -0.383,-0.9336 0.285,-0.371 0.191,-0.9297 c 0.387,0.4297 0.61,0.8945 0.672,1.3945 l 0.387,1.4023 c 0.195,0.3711 0.48,0.6524 0.871,0.836 l 0.387,1.3984 1.343,0.7461 0.192,1.1172 1.062,1.1172 0.77,1.4062 c 0.832,0.8633 1.637,1.4258 2.406,1.6719 l 0.192,0.2813 0.867,1.3086 0.965,0.1875 0.289,0.2773 0.382,0.5547 1.063,0.5625 0.578,0.6523 0.578,-0.0937 0.77,0.375 0.383,0.5586 1.156,0.5625 1.633,1.0234 2.316,0.7422 c 0.898,0.125 1.379,0.1875 1.441,0.1875 l 0,-0.0938 c -0.062,0 -0.089,-0.0351 -0.089,-0.0937 l 0.089,0 c 0.254,0 0.645,0.125 1.157,0.375 0.324,0.25 0.769,0.3711 1.351,0.3711 0.254,0 0.699,-0.0625 1.344,-0.1875 1.672,-0.0625 2.602,-0.8086 2.793,-2.2344"
               style="fill:#f8a82d;fill-opacity:1;fill-rule:nonzero;stroke:none"
               id="path60"
               inkscape:connector-curvature="0" />
            <path
               d="m 486.34,38.1328 c 0,-2.4883 -1.395,-3.7305 -4.188,-3.7305 -1.359,0 -2.367,0.5313 -3.015,1.5899 -0.653,0.8672 -1.203,2.5156 -1.657,4.9453 l 0,1.3008 c 0.258,0.3086 0.383,0.6172 0.383,0.9336 0,0.1211 -0.031,0.2773 -0.093,0.4648 l -1.348,1.9571 1.058,1.7695 -0.484,1.957 0.484,1.125 0,2.3242 -0.292,1.6797 0.292,0.8399 0,7.0859 -0.484,3.0781 0.484,1.1172 -0.679,2.332 -0.781,-0.6523 -2.137,-0.8398 -2.918,-3.5391 -1.168,0.0898 -1.75,-2.7031 -0.289,-1.1172 -1.063,-0.4687 -1.113,-1.5821 -0.508,-1.0273 -0.625,-3.3203 -1.898,-2.043 -0.426,-1.293 -1.051,-0.746 -0.426,-2.2266 -2.109,-1.6719 -0.32,-3.4297 -0.864,0 -0.293,-0.5625 -1.73,-2.8906 -1.641,-1.6797 -1.445,-1.8633 -1.539,0.4688 -1.25,0 -1.156,1.4922 -1.063,3.3554 0,4.9415 -0.289,1.582 0.289,1.8672 0,4.3789 0.653,0.1875 0.41,6.4375 0.191,1.2109 0,1.961 0.449,0.2734 0.352,2.9883 0.355,1.0273 -0.386,1.3047 0.293,0.4648 -0.196,0.2813 0.289,2.6094 -0.773,0.6523 0.68,1.3008 -0.09,2.707 -0.973,2.7031 0.672,0.8399 -0.672,2.5156 0,1.4922 -0.289,0.6523 -0.476,2.9883 -0.489,1.3946 -1.441,2.7031 1.062,1.3086 0.957,1.582 0.864,0 c 1.406,0 2.465,-0.4961 3.168,-1.4922 l 1.34,-1.0312 0.578,-1.6758 1.464,-1.2109 -0.382,-1.3086 0.773,-1.9532 0,-3.4531 0.098,-4.1016 0.668,-2.6093 -0.477,-1.1172 0.188,-1.5859 -0.477,-1.3086 0.289,-2.2344 -0.289,-1.8633 0,-7.3672 -0.578,-0.6484 -0.289,-3.0781 -0.391,-1.4024 0.485,-2.5117 -0.485,-0.75 0,-1.8594 c 0.711,0.1797 1.063,0.5586 1.063,1.1172 l 0.769,0.7422 0.672,1.2148 0.195,1.7696 1.063,1.4921 0.574,1.8672 1.348,1.4805 0.359,1.7617 0.895,0.0938 0,0.832 0.113,1.1133 1.332,0.6445 0,0.7461 0.961,0.1875 0.195,1.4844 -0.074,0.7422 1.727,0.7617 0.441,0.4023 -0.207,0.9297 0.867,0.2774 0.684,1.5976 1.156,0 1.066,0.6524 c 0,0.4297 0.032,0.7422 0.094,0.9297 l 1.071,0.4648 c 1.156,0.9297 2.257,1.4922 3.289,1.6797 l 0,0.1875 c 1.668,0.8086 2.824,1.2109 3.464,1.2109 0.965,0 1.829,-0.4375 2.598,-1.3047 0.707,-0.25 1.16,-0.7148 1.352,-1.4023 l 0.867,-0.5586 0.289,-1.3008 1.25,-2.1484 0,-10.7188 0.484,-0.8437 0,-6.8985 -0.484,-1.207 0,-1.8672 0.484,-2.0547 -0.484,-1.7695 c 0.269,-0.9336 0.441,-1.7109 0.512,-2.332 l 1.121,-1.0196 0,-0.75 0.386,-0.2812 c 0.325,-1.0547 0.485,-1.8047 0.485,-2.2383"
               style="fill:#f8a82d;fill-opacity:1;fill-rule:nonzero;stroke:none"
               id="path62"
               inkscape:connector-curvature="0" />
            <path
               d="m 524.379,56.8125 -0.098,0.4648 c -0.449,0.4375 -0.707,0.9024 -0.773,1.3985 l 0.293,0.4648 -0.871,1.7617 0.195,1.7735 -0.387,0.4648 c -0.832,0.6211 -1.285,1.1133 -1.343,1.4883 -0.583,0.25 -0.872,0.8672 -0.872,1.8594 l -0.574,0.0937 -1.156,1.8633 -0.867,0.6524 -2.02,0.7382 -0.773,0.1875 c -0.387,0 -0.645,0.125 -0.77,0.3711 l -1.925,-2.039 -1.254,-2.5938 -2.024,-1.0156 -0.285,-1.0234 -0.961,-0.4649 -0.391,-2.4101 -1.156,-0.5547 c -0.258,-0.8672 -0.383,-1.6719 -0.383,-2.4063 l -1.543,-1.3906 0.481,-0.2813 c 0,-0.7343 -0.32,-1.3906 -0.965,-1.9453 -0.219,-0.5586 -0.508,-1.1718 -0.859,-1.8554 l 0,-2.2188 -1.063,-2.5039 0.192,-0.4648 0,-2.5977 -0.387,-1.293 0.098,-1.3007 0.863,-1.1993 1.347,-0.4648 0.481,-0.1836 3.273,0 0.383,0.9297 0.387,0 c 0.383,0 0.609,-0.0938 0.672,-0.2774 l 0.867,0.2774 0.766,-0.2774 1.25,0.8399 0.195,0.2851 0.859,0.1875 c 0.453,0.6875 1.512,1.375 3.18,2.0704 l 0.191,0.4687 1.926,1.3164 1.055,1.5039 1.543,0.7422 0.097,0.4649 0.508,1.0273 0,1.2109 1.149,0.9258 0.386,0.6524 0.485,0.5546 c -0.258,0.7461 -0.387,1.2774 -0.387,1.5821 0,0.5625 0.188,1.1484 0.578,1.7734 z m 6.355,2.2031 -0.582,-1.6718 c 0,-1.6172 -0.09,-2.8946 -0.285,-3.8243 l -0.578,-0.9297 0,-1.0273 -0.484,-0.6523 -0.289,-1.3047 -1.059,-1.0274 -0.672,-2.332 -0.773,-0.2773 -0.387,-1.0313 -1.148,-0.6523 -0.774,-1.5821 -1.156,-0.5625 -0.094,-1.1172 -1.832,-0.6523 c -0.836,-1.1133 -1.863,-1.8359 -3.082,-2.1445 l -0.383,-0.0938 c -0.902,-1.3008 -2.094,-1.957 -3.562,-1.957 -0.645,-0.3711 -1.383,-0.5586 -2.215,-0.5586 l -0.969,-0.6524 -0.961,-0.2773 -1.25,-0.9375 -1.254,0 -1.347,-0.2773 -1.637,0.6484 -4.141,0.2812 -1.445,2.1446 -2.117,2.1445 0.48,1.4961 -1.441,3.168 0.48,1.2109 -0.293,2.2422 0.293,1.3906 c 0,0.875 0,1.4961 0,1.8711 0,1.1758 0.336,2.0469 0.996,2.6133 0.067,0.6211 0.5,1.6406 1.293,3.0703 l 0.504,0 -0.293,0.6563 0.293,1.3046 0,1.3985 c 0.508,0.5586 0.801,0.9336 0.864,1.1172 l -0.289,1.3086 0,0.3711 c 0.449,0.871 0.675,1.7734 0.675,2.7031 l 2.02,2.7031 c 0.328,0.25 0.547,0.4375 0.676,0.5625 l -0.098,0.3711 0.387,0 1.445,1.582 0.098,2.1446 2.406,0.8437 c 0.902,0.5586 1.476,1.4883 1.734,2.7969 l 1.25,0 c 0.711,0.3711 1.352,0.5586 1.926,0.5586 0.578,0 1.125,-0.125 1.641,-0.375 l 1.058,-0.0899 2.504,0.9297 1.348,-1.2109 1.058,-0.6563 0.774,0 1.441,-0.7422 0.77,0 c 0.836,-0.746 1.797,-1.7695 2.89,-3.0781 l 0.192,-0.4648 0.672,-0.375 2.023,-2.5156 1.832,-4.3789 0,-0.9376 0.867,-3.2656"
               style="fill:#f8a82d;fill-opacity:1;fill-rule:nonzero;stroke:none"
               id="path64"
               inkscape:connector-curvature="0" />
            <path
               d="m 567.711,70.6758 c 0,-0.5625 -0.578,-1.0899 -1.734,-1.586 -0.254,-0.3125 -0.739,-0.5898 -1.442,-0.8398 -0.902,-0.3711 -1.547,-0.6836 -1.93,-0.9336 l -2.023,0.6563 c -1.023,-0.7461 -2.34,-1.1211 -3.945,-1.1211 l -1.157,0.2812 -0.863,-0.6523 -2.601,0 -1.637,-1.1172 c -0.707,0.2461 -1.387,0.3672 -2.024,0.3672 -0.191,-0.1211 -0.64,-0.25 -1.347,-0.3672 -0.32,0 -0.672,0.0898 -1.059,0.2773 l -0.289,-3.539 0,-5.8711 0.039,-3.543 0.293,-1.6758 -0.043,-1.3125 1.348,-2.7969 c -0.195,-0.1875 -0.289,-0.4023 -0.289,-0.6523 0,-0.4336 0.707,-0.7773 2.113,-1.0273 l 0.195,-1.1172 0.676,-0.2852 1.156,-0.75 0.77,-0.5508 c 0.641,0.1172 1.094,0.1836 1.352,0.1836 0.574,0 1.152,-0.0976 1.726,-0.2812 0.258,0.125 0.805,0.5625 1.641,1.3008 0.578,0.5039 1.121,0.75 1.64,0.75 0.063,0 0.157,0 0.285,0 0.129,0 0.227,0 0.29,0 0.578,1.1328 1.601,1.8789 3.086,2.2382 1.343,0 2.464,-0.4062 3.367,-1.2109 l 0,-0.6484 c 0,-2.1172 -0.77,-3.4493 -2.317,-4.0118 -0.574,-1.3086 -1.793,-2.1484 -3.652,-2.5234 l -1.16,-1.0195 -1.25,0 -2.215,-0.5625 c -0.52,-0.1211 -1.25,-0.1875 -2.215,-0.1875 -0.512,0 -1.058,0.1289 -1.637,0.3789 l -1.254,0 -3.367,1.7656 -0.867,0.2813 -2.023,2.6132 -1.16,1.2071 -2.11,4.6679 -0.777,4.3789 0.289,1.1172 -0.867,1.0274 0.48,1.3047 -0.48,2.0547 0.675,0.6523 0.192,1.2109 -0.289,1.1172 0.289,1.6797 -0.485,1.4883 0.485,0.4687 0,1.4922 -0.672,0.2774 -1.832,-0.3672 -1.731,1.1172 -0.289,0 c -1.925,0 -2.886,1.0078 -2.886,3.0273 l 0,0.2774 -1.16,1.8007 1.828,1.6993 2.414,-0.3711 1.246,0.1836 1.836,-0.4649 2.019,0 0,1.8672 -1.258,2.6094 1.258,0.6523 -0.48,1.3945 0.097,2.8946 -0.777,1.2109 c -0.445,0.6836 -0.672,1.3047 -0.672,1.8633 0,0.6836 0.16,1.2422 0.485,1.6797 l 0.285,1.3086 0.777,0.7422 c 1.731,0.3086 2.883,0.4648 3.465,0.4648 2.051,0 3.172,-0.9023 3.367,-2.7148 l -0.289,-0.4688 c 0.387,-0.5625 0.578,-1.0976 0.578,-1.5976 0,-0.0625 -0.031,-0.2188 -0.097,-0.4649 l -0.192,-0.5625 -0.098,-0.6562 0.387,-1.2227 -0.097,-0.4648 0.195,-1.3125 -0.867,-1.125 0.48,-1.875 -0.387,-2.25 0.774,-0.8477 -0.774,-1.6875 2.985,0.4649 5.297,-0.4649 4.242,0.6563 1.441,-0.0938 0.485,0.0938 3.754,0 c 1.988,0 2.984,-0.6875 2.984,-2.0508"
               style="fill:#f8a82d;fill-opacity:1;fill-rule:nonzero;stroke:none"
               id="path66"
               inkscape:connector-curvature="0" />
            <path
               d="m 592.555,71.7031 c 0,0.1836 -0.098,0.5586 -0.289,1.1172 l -0.481,0.0938 -0.191,-0.0938 c -0.067,0 -0.196,0 -0.383,0 -0.133,-0.0625 -0.262,-0.0937 -0.387,-0.0937 -0.062,0 -0.16,0.0312 -0.293,0.0937 -0.125,0 -0.222,0 -0.289,0 l -0.961,-0.6523 -0.863,-0.0977 -0.488,-0.1836 -1.633,-2.0547 -1.063,-0.7422 -1.539,-2.6093 -0.867,-0.5625 c -0.191,-1.0586 -0.644,-1.9571 -1.348,-2.6992 l -0.382,-0.6524 c 0.703,0.4297 1.504,0.6524 2.406,0.6524 l 0.672,0.2734 0.289,0.8437 1.351,-0.0937 0.77,1.1211 0.578,0 1.059,-0.375 0.48,1.3945 0.676,0 0,1.0274 1.246,0.2851 0.297,0.2774 0.191,0.8398 1.246,1.7695 c 0.129,0.3086 0.196,0.6797 0.196,1.1211 z m 9.535,-26.8515 c 0,-0.75 -0.578,-1.6797 -1.738,-2.7969 -0.317,-1 -0.801,-1.8086 -1.438,-2.4297 l -0.582,-0.0938 -1.059,-1.7695 -1.734,-0.2773 -1.824,-1.125 -0.969,-1.6719 -1.058,0 c -0.708,-0.2695 -1.282,-0.4336 -1.735,-0.4883 l -0.574,-0.7265 c -0.191,0 -0.481,0 -0.863,0 -0.84,0 -1.645,-0.5274 -2.411,-1.5821 l -1.351,1.1172 c -0.262,0 -0.641,0 -1.152,0 -0.836,0 -1.543,0.1524 -2.122,0.4649 l -1.632,0 -0.774,0.4609 c -2.437,0.3672 -3.984,1.2656 -4.621,2.6797 l 0,0.2773 -1.156,0.5586 -0.578,1.5664 -1.16,0.7422 0,1.3906 -1.153,4.0664 0,3.3282 0.578,1.4765 0,1.9453 0.481,1.4727 -0.098,0.6484 0.68,1.1133 -0.192,-0.1836 c 0,0.5508 0.157,1.1446 0.477,1.7656 l 0,0.4649 -0.285,2.2344 c 0,1.0586 0.48,1.9961 1.441,2.8007 0.067,0.125 0.098,0.3165 0.098,0.5626 0,0.25 -0.113,0.7578 -0.336,1.539 -0.227,0.7774 -0.34,1.3203 -0.34,1.6328 0,0.7461 0.192,1.5235 0.578,2.3321 0.516,-0.75 1.254,-1.1211 2.215,-1.1211 l 0.289,0 c 0.129,0.2461 0.418,0.5273 0.863,0.8359 0.516,1.5547 1.219,2.8594 2.122,3.9141 l 0.382,0.3789 c 0,0.2422 0.192,0.957 0.586,2.1445 l 0.766,0 0.195,0.4648 0.766,0.1875 c 0.32,0.4922 0.531,0.7891 0.629,0.8829 0.094,0.0937 0.785,0.4843 2.07,1.1679 0.254,0.4336 0.641,0.836 1.152,1.211 0.258,0.1211 0.582,0.25 0.965,0.3711 l 0.383,0.5625 c 1.734,0.5585 2.824,0.8359 3.277,0.8359 0.516,0 0.993,-0.125 1.446,-0.3711 l 0.48,0.0937 0.672,-0.375 c 0.774,-0.5585 1.543,-1.0234 2.313,-1.3984 l 1.64,-1.2109 0,-0.375 c 1.477,-1.1172 2.215,-2.7031 2.215,-4.75 l -0.297,-0.9375 0.297,-3.0742 -0.871,-0.5586 -0.961,-2.4258 -1.832,-1.957 -0.098,-1.4922 c -2.05,-1.4336 -3.941,-2.5821 -5.675,-3.4532 -0.579,-0.8672 -1.481,-1.3007 -2.7,-1.3007 l -0.289,0 -1.828,-1.1172 -1.543,0 -2.308,-0.9336 -1.735,0.8359 -0.195,0 c -0.125,-0.5 -0.254,-1.25 -0.383,-2.2461 l -0.769,-0.5703 -0.094,-1.1211 -0.578,-1.5976 c 0.129,-1.5039 0.191,-2.4688 0.191,-2.9024 l -0.32,-0.2851 c 0,-0.8164 -0.028,-1.4141 -0.082,-1.7852 0,-0.0625 -0.028,-0.1523 -0.082,-0.2773 0,-0.1289 0,-0.2266 0,-0.2852 0,-0.5 0.254,-0.9063 0.769,-1.2187 0.196,-0.75 0.516,-1.2188 0.965,-1.4063 l 0.676,-0.5625 2.121,-0.5664 0,-0.2774 0.766,-0.1874 3.273,0 1.926,0.2734 0.965,0.6484 0.578,0.1836 0.961,1.3828 0.48,0.0938 2.41,0.7344 c 0.258,0.4336 0.672,0.8007 1.254,1.1054 l 0.285,0.461 c 1.289,0.2461 2.024,0.8906 2.219,1.9375 0.891,0.8593 2.051,1.2851 3.465,1.2851 l 0.387,0 c 1.218,-1.3594 1.828,-2.4804 1.828,-3.3476"
               style="fill:#f8a82d;fill-opacity:1;fill-rule:nonzero;stroke:none"
               id="path68"
               inkscape:connector-curvature="0" />
            <path
               d="m 634.734,47.3633 c 0,-0.6797 -0.257,-1.2461 -0.769,-1.6758 -0.508,-0.75 -1.336,-1.5273 -2.492,-2.332 l -0.957,-0.6524 -0.868,-1.1172 -0.859,-0.375 -1.348,-0.8398 -0.953,-0.0899 -0.386,-0.375 c -1.278,-0.375 -2.266,-0.996 -2.969,-1.8671 -0.453,-0.3086 -0.867,-0.4649 -1.25,-0.4649 -0.258,0 -0.477,0.0313 -0.672,0.0899 -1.09,-0.6172 -2.492,-0.9297 -4.219,-0.9297 -1.469,0 -2.426,0.125 -2.879,0.375 l -1.726,0.9297 -0.575,0.9336 0,0.2851 c 0,0.8008 -0.363,1.4531 -1.093,1.9531 l -0.403,1.8594 -0.793,0.8438 -0.503,3.4492 0,3.5469 0.289,0.5586 c -0.192,0.371 -0.289,0.7773 -0.289,1.2148 0.324,2.6055 0.488,4.25 0.488,4.9414 l -0.875,1.6758 0.875,1.3945 0.285,2.3359 -0.191,1.5821 0.578,1.4023 -0.578,1.8633 1.039,1.3008 0.113,0.8437 0,7.8321 0.289,4.0078 -0.289,0.7461 0,6.2461 0.566,5.5937 c 2.633,0.625 3.793,0.9336 3.477,0.9336 1.004,0 1.82,-0.5312 2.449,-1.582 l 0.184,-0.7461 1.414,-1.4024 -0.383,-1.957 0,-0.375 c -0.184,-1.1797 -0.406,-1.957 -0.676,-2.3281 l 0.289,-1.961 0.387,-1.7695 -0.676,-1.957 c 0,-1.0586 -0.16,-2.0195 -0.484,-2.8906 0,-0.3086 -0.059,-0.8086 -0.192,-1.4922 l -0.097,-0.5625 0.773,-1.0235 -0.289,-1.0273 c 0.195,-0.4961 0.289,-0.8359 0.289,-1.0234 0,-0.3711 -0.16,-0.8711 -0.484,-1.4883 l 0.195,-0.8438 -0.582,-2.9804 0,-1.9571 -0.672,-1.9609 0.387,-1.7735 -0.387,-4.1015 0.293,-0.4649 -0.484,-2.1484 -0.188,-2.6094 c -0.136,-0.3672 -0.195,-0.5937 -0.195,-0.6523 0,-1.0586 -0.035,-1.9258 -0.098,-2.6094 l 0.293,-1.3047 0,-1.3945 0.575,-1.2149 -0.098,-0.4648 c 0.387,-0.3125 0.73,-0.8086 1.055,-1.4961 l 0.863,0 1.242,-0.3711 0.578,0.75 0.86,0.086 c 0.386,0.1289 0.671,0.1875 0.859,0.1875 l 0.289,0 c 0.641,0.125 1.156,0.4375 1.535,0.9296 l 0.574,0.2852 c 0.446,0.6836 1.18,1.1523 2.203,1.3984 0.321,0.2461 0.926,0.7422 1.821,1.4922 0,0.8711 0.539,1.5235 1.629,1.9571 0.957,0 1.597,0.1562 1.914,0.4687 1.281,-0.1914 2.093,-0.5156 2.449,-0.9805 0.344,-0.4687 0.523,-1.3554 0.523,-2.6601"
               style="fill:#f8a82d;fill-opacity:1;fill-rule:nonzero;stroke:none"
               id="path70"
               inkscape:connector-curvature="0" />
            <path
               d="m 745.48,48.1992 c -0.328,-0.8672 -0.742,-1.5156 -1.253,-1.9531 -0.196,-0.6836 -0.481,-1.1797 -0.868,-1.4922 -0.328,-0.625 -0.707,-1.0586 -1.156,-1.3047 l -0.379,-0.5586 c -0.258,-0.3711 -0.613,-0.5586 -1.066,-0.5586 l -0.481,-0.9297 -0.672,0 -0.488,-0.8437 -0.765,-0.2774 -0.579,-0.6562 -0.476,-0.3672 c -0.969,0 -1.77,-0.2851 -2.41,-0.8437 -0.836,-0.3125 -1.703,-0.4649 -2.602,-0.4649 -0.902,0 -1.801,0.2188 -2.695,0.6524 -1.028,0.0625 -1.543,0.2187 -1.543,0.4648 l -1.348,0.1914 -0.285,0.2734 -0.582,1.1211 -1.059,0.836 c -0.711,0.8086 -1.093,1.5547 -1.152,2.2344 -0.449,0.625 -0.902,1.8085 -1.351,3.5507 l -0.961,1.4922 0,0.8399 -0.676,2.7968 0.094,1.1172 -0.579,2.8907 0.29,2.332 -0.477,0.6523 -0.961,-2.332 c -1.223,-1.3086 -1.949,-2.0937 -2.172,-2.3789 -0.223,-0.2813 -0.496,-0.418 -0.816,-0.418 -0.063,0 -0.192,0.0274 -0.387,0.0938 l -0.578,-1.0235 c -0.063,-0.0664 -0.098,-0.1914 -0.098,-0.3789 0,-0.3672 0.231,-0.5937 0.676,-0.6523 -0.129,-0.125 -0.445,-0.5547 -0.965,-1.3008 -0.258,-0.5 -0.48,-0.8437 -0.672,-1.0312 l -0.289,0.4726 -0.191,-1.3047 c -0.836,-0.6211 -1.414,-1.5625 -1.735,-2.7968 -0.644,-0.8126 -1.64,-1.961 -2.984,-3.4532 l -1.258,-1.3047 c -0.316,0 -0.476,-0.0664 -0.476,-0.1836 l 0,-0.1914 c -0.387,-0.8671 -1.059,-1.5547 -2.024,-2.0547 l -1.156,-1.3945 -0.672,0 -2.312,-0.8359 c -1.926,0.1211 -3.118,0.9258 -3.563,2.418 l -0.098,1.0273 -0.578,1.2148 0,1.0196 -0.769,2.7109 0,0.8359 -0.574,0.9336 0.285,2.8868 c 0,0.3125 0,0.75 0,1.3046 0,0.5039 0,0.8399 0,1.0274 l 0,0.9336 -0.477,1.0273 0.766,1.7696 c -0.133,0.496 -0.321,1.3086 -0.574,2.4257 l 0.285,0.8399 0.289,2.7031 -0.766,1.957 0.192,1.5899 -0.289,0.832 c -0.071,0.1875 -0.29,0.7774 -0.676,1.7774 l -0.676,-0.375 -1.25,-1.4883 -1.16,-1.0313 -2.313,-2.7968 -0.187,-1.0235 -1.633,-1.6797 -0.684,-1.3047 -0.671,-0.7461 c -0.192,-1.3671 -0.899,-2.332 -2.122,-2.8906 l -0.089,-1.3047 c -0.387,-0.375 -0.789,-0.8711 -1.207,-1.4922 -0.414,-0.625 -0.704,-0.9804 -0.864,-1.0703 -0.164,-0.0937 -0.437,-0.2968 -0.824,-0.6093 l -1.148,-1.5821 c 0,-1.0586 -0.422,-1.8086 -1.258,-2.2422 l 0,-0.5546 c -0.391,-0.5 -0.91,-0.9961 -1.563,-1.4961 l -0.093,0.1914 -0.293,-1.3203 c -0.532,0 -1.012,-0.6055 -1.469,-1.7969 l -0.293,-0.3828 c -0.07,-1.0039 -0.621,-1.7618 -1.668,-2.2618 l -1.363,-1.2265 c -1.047,-0.5 -1.731,-0.75 -2.059,-0.75 -1.695,0 -2.801,1.3359 -3.324,4.0156 l -0.391,2.0547 c -0.062,0.1211 -0.101,0.3086 -0.101,0.5625 0,0.4375 0.136,0.8711 0.394,1.3047 l -0.394,1.7773 0,2.9922 c 0.136,1.3047 0.355,2.1172 0.679,2.4297 -0.191,1.3047 -0.285,2.0547 -0.285,2.2422 l 0,1.6836 c 0.246,0.4336 0.574,0.9961 0.957,1.6797 l -0.722,0.5625 c -0.165,0.5 -0.235,0.7773 -0.235,0.8359 0,0.4414 0.442,1.1875 1.344,2.2461 l -0.672,1.7813 0.383,1.121 -0.578,2.7071 0.195,1.3047 -0.672,2.0586 0.285,1.4023 -0.679,1.6797 c 1.257,2.4336 2.605,3.6445 4.05,3.6445 0.747,0 1.469,-0.3086 2.157,-0.9297 l 0.195,-0.9297 c 1.062,-0.5625 1.598,-1.4023 1.598,-2.5195 0,0.1875 -0.102,-0.4648 -0.293,-1.957 l -0.387,0.0898 0.871,-1.5859 -0.742,-0.7383 -0.129,-0.3789 0.773,-4.2891 -0.195,-3.6328 -0.289,-0.6601 0.391,-1.4844 c 0.191,-0.2539 0.289,-0.5625 0.289,-0.9336 0,-0.4961 -0.258,-0.9961 -0.774,-1.4961 0,-0.8711 -0.16,-1.582 -0.484,-2.1445 l 0.289,-2.7969 0,-1.1172 0.098,0.1875 0.582,0.8399 1.347,2.332 0.285,0 c 0.387,0 0.805,0.5859 1.254,1.7695 l 0.672,1.7735 c 0.129,0.371 0.61,0.9648 1.446,1.7695 l 0.386,1.6797 1.157,1.6797 0.382,1.3047 c 0.325,0.1874 0.641,0.4023 0.969,0.6484 l 0.098,0.2812 c 0.187,0.25 0.89,0.9024 2.109,1.9571 l 0.586,0.2851 0.188,0.9297 0.484,0.2813 c 0.316,1.3007 1.121,2.1718 2.406,2.6054 l -0.383,0.2813 0.383,0.1875 c -0.066,0.0586 -0.098,0.1523 -0.098,0.2812 0,0.1211 0.059,0.3086 0.196,0.5586 l 1.539,0.6563 0.285,1.4883 1.063,0 c 0,0.0625 0.058,0.2773 0.195,0.6523 l 1.926,1.4922 c 0.894,0.2461 1.504,0.3711 1.828,0.3711 0.773,0 1.828,-0.2188 3.179,-0.6524 l 0.961,-1.3086 0.387,-0.1875 0.477,-1.1211 1.351,-1.7773 0,-1.2148 0.867,-0.9297 0,-1.4063 c 0.707,-1.4922 1.063,-2.7695 1.063,-3.8281 l -0.293,-1.125 0.578,-1.5898 -1.062,-1.0274 0.386,-2.0508 -0.097,-0.5625 -0.098,-0.4687 c -0.121,-0.625 -0.191,-1.0899 -0.191,-1.4024 0,-0.3086 0.164,-0.9296 0.484,-1.8672 l -0.293,-1.0273 0.293,-1.3125 -0.293,-0.2812 c 0.133,-0.8672 0.328,-2.336 0.586,-4.3907 l -0.024,-0.375 3.036,3.3047 0.953,1.7696 c 0.254,0.375 0.664,0.9687 1.234,1.7773 l 0,0.1836 c 0.254,0.9961 0.672,1.6758 1.246,2.0508 0,0.375 0.321,0.8398 0.961,1.3945 l 0.777,0.4766 c 0.254,1.0468 0.93,1.9179 2.016,2.6054 l 0.488,1.3086 0.864,1.1172 0.961,0.9336 c 0.582,0.4297 1.027,1.1211 1.351,2.0469 l 0.77,1.1211 0.383,1.4023 1.062,0.5547 1.059,1.3047 1.062,2.2422 c -0.258,0 -0.39,0.0586 -0.39,0.1836 l 0.207,0.375 0.714,0.5586 0.801,1.4726 c 1.074,0.4063 1.684,0.6016 1.813,0.6016 l 0.375,-0.1797 1.718,-0.0938 1.52,-0.6562 1.332,-1.4883 0.285,-1.3086 -0.094,-1.0234 -0.488,-0.3711 -1.055,-1.9609 -0.48,-2.1446 c 0.383,-0.3086 0.574,-0.8711 0.574,-1.6797 -0.191,-0.3086 -0.289,-0.7109 -0.289,-1.207 l -0.285,-0.75 c 0,-0.3086 0,-0.8125 0,-1.4922 0,-0.5586 -0.035,-0.9609 -0.098,-1.2109 l -0.383,-0.4649 0.481,-0.6523 -0.77,-0.8359 c 0.383,0 0.579,-0.4063 0.579,-1.2149 0.128,-0.3789 0.191,-0.625 0.191,-0.7461 0,-0.1836 0,-0.4062 0,-0.6523 0,-0.6211 0,-1.211 0,-1.7774 l 0,-0.1797 c 0,-0.1289 0.414,-1.4023 1.246,-3.8242 l 0.195,-0.9375 1.063,-1.1172 0.578,-1.3086 0.574,-0.2734 0.383,-0.5625 0.488,-0.0937 0.867,-0.1875 0.477,0.0976 0.289,0 c 0.645,0 1.414,0.2422 2.316,0.7461 0.254,0.6211 0.93,1.2734 2.02,1.957 0.063,0.3086 0.449,0.8985 1.152,1.7696 l 1.641,1.1172 0.578,1.1211 c 0.516,0.3085 1.063,0.4687 1.637,0.4687 0.707,0 1.476,-0.1875 2.312,-0.5586 0.383,-0.625 0.578,-1.5547 0.578,-2.8047"
               style="fill:#f8a82d;fill-opacity:1;fill-rule:nonzero;stroke:none"
               id="path72"
               inkscape:connector-curvature="0" />
            <path
               d="m 780.148,70.1133 -0.386,0.6523 -0.77,0.1875 -2.988,2.3321 -1.926,0.2773 -1.539,0 -0.195,0.375 -0.766,-0.375 -0.871,0.375 -2.504,0 0.293,-0.375 -2.215,-0.7422 -0.386,-0.4687 -0.29,-0.0938 c -1.156,-0.9336 -1.96,-1.7109 -2.406,-2.3281 l -0.676,-2.2383 -0.382,-0.8437 0.961,-1.3008 -1.637,-1.2149 0.191,-0.3789 c -0.703,-1.1758 -1.054,-2.332 -1.054,-3.4453 l -0.766,-0.9375 -0.012,-1.6758 -0.765,-0.8359 -0.196,-0.8438 -0.289,-0.1875 0,-1.2968 -0.285,-0.4727 c 0,-0.7422 -0.07,-1.3359 -0.191,-1.7695 l 0.191,-0.4649 -0.871,-1.7695 0.387,-0.5586 -0.676,-0.9375 0.676,-1.7656 -1.063,-1.3086 0.196,-1.7695 0,-0.2774 0.386,-0.1875 0.481,0.0938 c 0.324,0.3086 0.64,0.5937 0.961,0.8398 l -0.192,0.75 1.344,0.1836 0.285,0.6524 5.664,4.4843 0.574,0.1797 0.668,1.5938 c 0.387,0.125 0.926,0.3711 1.633,0.7461 l 0.629,1.4765 0.762,0 -0.289,1.586 1.351,0.1836 c 0.125,0.25 0.332,0.5624 0.621,0.9414 0.289,0.3671 0.594,0.7109 0.914,1.0195 l 4.911,6.3398 0.773,1.3985 -0.098,0.3789 0.676,1.0195 0.196,1.0313 0.863,0.7421 z m 9.149,4.8515 -0.965,-1.2148 0.77,-2.2383 -1.25,-1.3984 -0.481,-1.9531 -0.289,-0.4649 0.191,-0.4687 c 0,-0.8711 -0.226,-1.5235 -0.671,-1.961 l -0.196,-0.2773 0,-0.375 c 0.196,-0.4336 0.293,-0.8399 0.293,-1.211 0,-0.3085 -0.039,-0.5312 -0.097,-0.6484 l 0.097,-0.3789 -0.39,-1.0234 0.293,-1.1211 -0.778,-0.75 0.289,-1.3008 0.586,-0.6524 -0.875,-0.7461 0,-1.4921 -0.672,-1.4883 0.485,-1.4961 -0.578,-0.7422 0.961,-0.6523 -1.344,-2.1446 -0.098,-0.2812 0.961,-0.1875 -0.676,-2.1446 0,-0.3711 c 0,-0.4374 -0.031,-0.7773 -0.093,-1.0273 l 0.093,-0.2812 1.543,-0.1875 1.254,-1.8633 -0.676,-1.3985 1.059,0.0938 c 0.387,-0.7461 0.613,-1.3945 0.672,-1.961 l -1.442,-1.3945 c -0.449,-0.4375 -1.093,-0.8711 -1.925,-1.3008 l -1.641,-0.8437 -0.48,0.4648 -0.961,-0.4648 -2.985,3.3437 0,1.5743 c -0.386,1.2382 -0.582,2.3789 -0.582,3.4336 l 0,0.5546 -0.578,5.4805 0.774,3.9023 -0.579,2.2266 -1.632,-2.6133 -0.875,-2.4257 -0.77,-0.375 -1.344,-2.0626 -2.41,-2.1562 -0.676,-1.1289 -2.113,-1.7813 -0.484,-1.2187 -3.082,-1.875 -3.274,-3.5664 -1.832,-0.3789 -1.25,-0.9336 c -1.605,0.0586 -2.824,0.6562 -3.66,1.7773 -2.891,1.375 -4.394,3.336 -4.523,5.8907 l 0.48,0.2812 -0.094,0.5625 -0.097,1.125 -0.575,1.2109 0.575,1.3125 0.191,1.9649 0.672,3.082 c 0,0.0703 0,0.1875 0,0.3789 -0.063,0.1211 -0.094,0.25 -0.094,0.3711 0,0.2539 0.067,0.5625 0.192,0.9375 -0.071,0.125 -0.098,0.375 -0.098,0.7461 0,0.4375 0.195,1.1563 0.582,2.1563 l 0.676,0.2773 c -0.391,0.3125 -0.586,0.6524 -0.586,1.0313 0,0.25 0,0.4375 0,0.5585 0,0.1876 0,0.4063 0,0.6563 0,0.75 0.39,1.3125 1.16,1.6836 0.195,0.625 0.543,1.2461 1.059,1.8672 l -0.485,0.7539 1.156,1.3984 0,0.375 c 0,1.1758 0.418,2.2617 1.258,3.2617 l -0.097,1.6758 0.382,0.3711 c 0,0.0625 0,0.1563 0,0.2813 -0.066,0.125 -0.093,0.2187 -0.093,0.2812 0,0.375 0.125,0.6836 0.383,0.9336 l 0,0.5586 c 0.257,0.6211 0.929,1.5508 2.023,2.7969 1.094,1.2422 1.891,2.332 2.406,3.2617 l 0.485,-0.4648 1.054,0.4648 0.485,0.1875 3.179,1.3984 7.418,-0.3711 0,-0.6523 2.309,-0.4688 c 1.473,0 2.437,-0.4648 2.891,-1.3984 0,0.1875 0.031,0.4024 0.093,0.6524 0,0.1875 0,0.3086 0,0.371 l 2.02,-1.7695 1.832,-0.375 3.469,0.8438 1.25,-2.3321 1.445,-0.5586"
               style="fill:#f8a82d;fill-opacity:1;fill-rule:nonzero;stroke:none"
               id="path74"
               inkscape:connector-curvature="0" />
            <path
               d="m 830.32,70.6758 c 0,-0.5625 -0.578,-1.0899 -1.73,-1.586 -0.258,-0.3125 -0.742,-0.5898 -1.449,-0.8398 -0.903,-0.3711 -1.543,-0.6836 -1.922,-0.9336 l -2.024,0.6563 c -1.027,-0.7461 -2.343,-1.1211 -3.949,-1.1211 l -1.156,0.2812 -0.867,-0.6523 -2.602,0 -1.633,-1.1172 c -0.707,0.2461 -1.379,0.3672 -2.023,0.3672 -0.195,-0.1211 -0.645,-0.25 -1.356,-0.3672 -0.316,0 -0.668,0.0898 -1.05,0.2773 l -0.293,-3.539 0,-5.8711 0.043,-3.543 0.293,-1.6758 -0.043,-1.3125 1.343,-2.7969 c -0.195,-0.1875 -0.293,-0.4023 -0.293,-0.6523 0,-0.4336 0.711,-0.7773 2.125,-1.0273 l 0.192,-1.1172 0.672,-0.2852 1.16,-0.75 0.765,-0.5508 c 0.645,0.1172 1.098,0.1836 1.356,0.1836 0.574,0 1.148,-0.0976 1.726,-0.2812 0.258,0.125 0.805,0.5625 1.641,1.3008 0.574,0.5039 1.121,0.75 1.637,0.75 0.058,0 0.156,0 0.289,0 0.125,0 0.223,0 0.289,0 0.578,1.1328 1.601,1.8789 3.078,2.2382 1.356,0 2.473,-0.4062 3.371,-1.2109 l 0,-0.6484 c 0,-2.1172 -0.769,-3.4493 -2.312,-4.0118 -0.575,-1.3086 -1.793,-2.1484 -3.657,-2.5234 l -1.156,-1.0195 -1.25,0 -2.219,-0.5625 c -0.507,-0.1211 -1.25,-0.1875 -2.214,-0.1875 -0.508,0 -1.055,0.1289 -1.633,0.3789 l -1.254,0 -3.371,1.7656 -0.867,0.2813 -2.024,2.6132 -1.148,1.2071 -2.121,4.6679 -0.774,4.3789 0.293,1.1172 -0.867,1.0274 0.476,1.3047 -0.476,2.0547 0.668,0.6523 0.199,1.2109 -0.293,1.1172 0.293,1.6797 -0.488,1.4883 0.488,0.4687 0,1.4922 -0.68,0.2774 -1.828,-0.3672 -1.734,1.1172 -0.285,0 c -1.926,0 -2.891,1.0078 -2.891,3.0273 l 0,0.2774 -1.156,1.8007 1.832,1.6993 2.406,-0.3711 1.25,0.1836 1.832,-0.4649 2.024,0 0,1.8672 -1.258,2.6094 1.258,0.6523 -0.485,1.3945 0.098,2.8946 -0.774,1.2109 c -0.449,0.6836 -0.671,1.3047 -0.671,1.8633 0,0.6836 0.16,1.2422 0.48,1.6797 l 0.289,1.3086 0.774,0.7422 c 1.73,0.3086 2.886,0.4648 3.464,0.4648 2.055,0 3.176,-0.9023 3.372,-2.7148 l -0.29,-0.4688 c 0.379,-0.5625 0.575,-1.0976 0.575,-1.5976 0,-0.0625 -0.028,-0.2188 -0.098,-0.4649 l -0.187,-0.5625 -0.098,-0.6562 0.383,-1.2227 -0.098,-0.4648 0.195,-1.3125 -0.867,-1.125 0.485,-1.875 -0.387,-2.25 0.769,-0.8477 -0.769,-1.6875 2.984,0.4649 5.297,-0.4649 4.238,0.6563 1.45,-0.0938 0.476,0.0938 3.754,0 c 1.988,0 2.988,-0.6875 2.988,-2.0508"
               style="fill:#f8a82d;fill-opacity:1;fill-rule:nonzero;stroke:none"
               id="path76"
               inkscape:connector-curvature="0" />
            <path
               d="m 870.09,51.75 -1.832,-1.6797 -0.098,-0.5625 c -0.187,-1.1172 -0.734,-2.0195 -1.633,-2.6992 -1.543,-2.8008 -3.691,-4.8555 -6.453,-6.1563 l -1.441,-1.1211 -1.258,-0.1874 -1.535,-1.1172 -1.063,-0.0938 -2.406,-1.4883 -1.535,0.1875 -1.742,-0.9375 -1.348,0.5664 -0.676,-0.5664 -1.82,0.2813 -1.832,-0.2813 -0.676,0.5664 -1.93,0.3711 -2.792,2.0469 -1.54,1.8672 c -0.96,1.1797 -1.441,2.1758 -1.441,2.9766 l 0,0.2851 -0.965,1.3945 0,1.2149 c -0.195,0.7461 -0.289,1.4258 -0.289,2.0508 l 0,0.6523 -0.48,1.5899 0.48,1.1171 -0.387,0.7422 1.153,1.7774 -0.289,1.4883 0.777,2.4257 0.383,0.5547 0.387,2.2422 -0.196,0.3711 1.157,1.2149 0.191,0.9296 0.773,2.1446 1.25,2.6093 1.739,1.4961 0.382,0.836 0.575,1.0273 0.191,0.9336 1.547,1.7695 c 0.383,0.1211 0.832,0.25 1.344,0.375 0.258,1.1758 1.859,1.8633 4.816,2.0469 2.504,-0.4922 4.11,-1.1484 4.813,-1.9531 0.707,-0.1289 1.25,-0.4063 1.64,-0.8438 l 2.024,-0.0937 1.347,-1.6758 c 0.309,-0.6211 0.528,-1.2422 0.653,-1.8555 l 0.75,-0.746 -0.289,-1.3946 c 0.066,-0.4375 0.105,-1.125 0.105,-2.0586 l 0.516,-0.3711 0,-1.4023 0.386,-2.8906 c -1.367,-1.3047 -2.925,-2.0547 -4.679,-2.2461 -0.91,1.6289 -2.047,2.8476 -3.41,3.6679 l 0,3.0938 -0.68,1.0312 0.078,0.7461 -1.004,1.0977 -0.48,0.3476 -0.875,-0.2851 -1.254,0 c -0.84,-0.1836 -1.653,-0.7735 -2.422,-1.7656 -0.77,-0.9883 -1.543,-2.043 -2.32,-3.1602 l -0.094,-0.9258 -0.582,-0.4648 0,-1.6758 -1.258,-1.3008 -1.535,-4.0898 0.097,-1.1133 -0.769,-1.6758 0.289,-2.043 -0.578,-0.2851 -0.199,-2.5977 0.097,-0.4648 1.164,-1.1133 0.485,-1.9531 1.355,-0.375 0.098,-0.7422 1.629,-0.3164 1.254,-0.3242 c 0.445,0.25 0.992,0.3789 1.632,0.3789 l 0.672,0 c 0.774,0.3086 1.477,0.4648 2.121,0.4648 0.454,0.1836 1.028,0.3711 1.731,0.5625 0.773,0.9883 1.863,1.4883 3.277,1.4883 l 0.575,0 c 0.32,0 0.546,0.1523 0.675,0.4648 0.703,1.0586 1.828,1.7422 3.367,2.0469 1.801,1.5547 2.825,2.8047 3.082,3.7383 0.899,0.4961 1.473,1.2695 1.731,2.3281 l 0.574,0.3711 0.297,2.1445 c 2.949,-0.4335 4.426,-1.8671 4.426,-4.289 l 0,-0.7422"
               style="fill:#f8a82d;fill-opacity:1;fill-rule:nonzero;stroke:none"
               id="path78"
               inkscape:connector-curvature="0" />
            <path
               d="m 916.797,38.1328 c 0,-2.4883 -1.395,-3.7305 -4.188,-3.7305 -1.363,0 -2.367,0.5313 -3.015,1.5899 -0.653,0.8672 -1.203,2.5156 -1.653,4.9453 l 0,1.3008 c 0.25,0.3086 0.379,0.6172 0.379,0.9336 0,0.1211 -0.031,0.2773 -0.09,0.4648 l -1.355,1.9571 1.066,1.7695 -0.488,1.957 0.488,1.125 0,2.3242 -0.296,1.6797 0.296,0.8399 0,7.0859 -0.488,3.0781 0.488,1.1172 -0.683,2.332 -0.781,-0.6523 -2.141,-0.8398 -2.918,-3.5391 -1.16,0.0898 -1.754,-2.7031 -0.289,-1.1172 -1.063,-0.4687 -1.117,-1.5821 -0.504,-1.0273 -0.621,-3.3203 -1.906,-2.043 -0.422,-1.293 -1.055,-0.746 -0.422,-2.2266 -2.113,-1.6719 -0.316,-3.4297 -0.864,0 -0.292,-0.5625 -1.735,-2.8906 -1.633,-1.6797 -1.449,-1.8633 -1.539,0.4688 -1.254,0 -1.152,1.4922 -1.059,3.3554 0,4.9415 -0.289,1.582 0.289,1.8672 0,4.3789 0.653,0.1875 0.406,6.4375 0.191,1.2109 0.004,1.961 0.438,0.2734 0.363,2.9883 0.351,1.0273 -0.382,1.3047 0.289,0.4648 -0.192,0.2813 0.285,2.6094 -0.769,0.6523 0.676,1.3008 -0.09,2.707 -0.969,2.7031 0.672,0.8399 -0.672,2.5156 0,1.4922 -0.293,0.6523 -0.48,2.9883 -0.481,1.3946 -1.441,2.7031 1.054,1.3086 0.961,1.582 0.868,0 c 1.406,0 2.461,-0.4961 3.168,-1.4922 l 1.339,-1.0312 0.575,-1.6758 1.468,-1.2109 -0.382,-1.3086 0.769,-1.9532 0,-3.4531 0.094,-4.1016 0.68,-2.6093 -0.489,-1.1172 0.192,-1.5859 -0.477,-1.3086 0.285,-2.2344 -0.285,-1.8633 0,-7.3672 -0.582,-0.6484 -0.285,-3.0781 -0.387,-1.4024 0.485,-2.5117 -0.485,-0.75 0,-1.8594 c 0.707,0.1797 1.059,0.5586 1.059,1.1172 l 0.769,0.7422 0.676,1.2148 0.192,1.7696 1.058,1.4921 0.578,1.8672 1.348,1.4805 0.359,1.7617 0.895,0.0938 0,0.832 0.109,1.1133 1.336,0.6445 0,0.7461 0.961,0.1875 0.195,1.4844 -0.074,0.7422 1.731,0.7617 0.437,0.4023 -0.207,0.9297 0.871,0.2774 0.684,1.5976 1.152,0 1.063,0.6524 c 0,0.4297 0.039,0.7422 0.097,0.9297 l 1.067,0.4648 c 1.16,0.9297 2.258,1.4922 3.289,1.6797 l 0,0.1875 c 1.672,0.8086 2.828,1.2109 3.472,1.2109 0.961,0 1.825,-0.4375 2.598,-1.3047 0.703,-0.25 1.156,-0.7148 1.348,-1.4023 l 0.863,-0.5586 0.297,-1.3008 1.246,-2.1484 0,-10.7188 0.48,-0.8437 0,-6.8985 -0.48,-1.207 0,-1.8672 0.48,-2.0547 -0.48,-1.7695 c 0.273,-0.9336 0.441,-1.7109 0.512,-2.332 l 1.125,-1.0196 0,-0.75 0.386,-0.2812 c 0.321,-1.0547 0.481,-1.8047 0.481,-2.2383"
               style="fill:#f8a82d;fill-opacity:1;fill-rule:nonzero;stroke:none"
               id="path80"
               inkscape:connector-curvature="0" />
            <path
               d="m 1008.57,48.1992 c -0.32,-0.8672 -0.74,-1.5156 -1.25,-1.9531 -0.19,-0.6836 -0.48,-1.1797 -0.87,-1.4922 -0.32,-0.625 -0.71,-1.0586 -1.15,-1.3047 l -0.39,-0.5586 c -0.25,-0.3711 -0.61,-0.5586 -1.06,-0.5586 l -0.48,-0.9297 -0.67,0 -0.49,-0.8437 -0.77,-0.2774 -0.57,-0.6562 -0.48,-0.3672 c -0.968,0 -1.769,-0.2851 -2.413,-0.8437 -0.832,-0.3125 -1.704,-0.4649 -2.598,-0.4649 -0.899,0 -1.801,0.2188 -2.695,0.6524 -1.028,0.0625 -1.543,0.2187 -1.543,0.4648 l -1.348,0.1914 -0.285,0.2734 -0.586,1.1211 -1.059,0.836 c -0.707,0.8086 -1.09,1.5547 -1.148,2.2344 -0.449,0.625 -0.903,1.8085 -1.352,3.5507 l -0.961,1.4922 0,0.8399 -0.679,2.7968 0.097,1.1172 -0.578,2.8907 0.289,2.332 -0.48,0.6523 -0.961,-2.332 c -1.219,-1.3086 -1.942,-2.0937 -2.172,-2.3789 -0.219,-0.2813 -0.496,-0.418 -0.813,-0.418 -0.066,0 -0.195,0.0274 -0.382,0.0938 l -0.582,-1.0235 c -0.063,-0.0664 -0.098,-0.1914 -0.098,-0.3789 0,-0.3672 0.23,-0.5937 0.68,-0.6523 -0.133,-0.125 -0.45,-0.5547 -0.965,-1.3008 -0.258,-0.5 -0.485,-0.8437 -0.676,-1.0312 l -0.285,0.4726 -0.195,-1.3047 c -0.836,-0.6211 -1.418,-1.5625 -1.735,-2.7968 -0.644,-0.8126 -1.64,-1.961 -2.984,-3.4532 l -1.258,-1.3047 c -0.316,0 -0.477,-0.0664 -0.477,-0.1836 l 0,-0.1914 c -0.386,-0.8671 -1.058,-1.5547 -2.027,-2.0547 l -1.152,-1.3945 -0.672,0 -2.313,-0.8359 c -1.925,0.1211 -3.117,0.9258 -3.558,2.418 l -0.098,1.0273 -0.582,1.2148 0,1.0196 -0.769,2.7109 0,0.8359 -0.575,0.9336 0.286,2.8868 c 0,0.3125 0,0.75 0,1.3046 0,0.5039 0,0.8399 0,1.0274 l 0,0.9336 -0.481,1.0273 0.77,1.7696 c -0.129,0.496 -0.325,1.3086 -0.575,2.4257 l 0.286,0.8399 0.289,2.7031 -0.77,1.957 0.195,1.5899 -0.289,0.832 c -0.066,0.1875 -0.293,0.7774 -0.679,1.7774 l -0.672,-0.375 -1.25,-1.4883 -1.16,-1.0313 -2.309,-2.7968 -0.195,-1.0235 -1.633,-1.6797 -0.68,-1.3047 -0.672,-0.7461 c -0.191,-1.3671 -0.902,-2.332 -2.121,-2.8906 l -0.09,-1.3047 c -0.386,-0.375 -0.789,-0.8711 -1.207,-1.4922 -0.414,-0.625 -0.703,-0.9804 -0.863,-1.0703 -0.164,-0.0937 -0.437,-0.2968 -0.82,-0.6093 l -1.157,-1.5821 c 0,-1.0586 -0.417,-1.8086 -1.253,-2.2422 l 0,-0.5546 c -0.387,-0.5 -0.911,-0.9961 -1.567,-1.4961 l -0.09,0.1914 -0.297,-1.3203 c -0.527,0 -1.011,-0.6055 -1.464,-1.7969 l -0.297,-0.3828 c -0.067,-1.0039 -0.621,-1.7618 -1.66,-2.2618 l -1.368,-1.2265 c -1.047,-0.5 -1.73,-0.75 -2.058,-0.75 -1.696,0 -2.805,1.3359 -3.324,4.0156 l -0.391,2.0547 c -0.063,0.1211 -0.102,0.3086 -0.102,0.5625 0,0.4375 0.133,0.8711 0.391,1.3047 l -0.391,1.7773 0,2.9922 c 0.133,1.3047 0.356,2.1172 0.676,2.4297 -0.187,1.3047 -0.285,2.0547 -0.285,2.2422 l 0,1.6836 c 0.254,0.4336 0.578,0.9961 0.965,1.6797 l -0.731,0.5625 c -0.16,0.5 -0.234,0.7773 -0.234,0.8359 0,0.4414 0.449,1.1875 1.344,2.2461 l -0.672,1.7813 0.387,1.121 -0.579,2.7071 0.192,1.3047 -0.672,2.0586 0.285,1.4023 -0.676,1.6797 c 1.258,2.4336 2.606,3.6445 4.051,3.6445 0.746,0 1.473,-0.3086 2.156,-0.9297 l 0.196,-0.9297 c 1.062,-0.5625 1.593,-1.4023 1.593,-2.5195 0,0.1875 -0.097,-0.4648 -0.289,-1.957 l -0.386,0.0898 0.871,-1.5859 -0.742,-0.7383 -0.129,-0.3789 0.773,-4.2891 -0.195,-3.6328 -0.289,-0.6601 0.386,-1.4844 c 0.196,-0.2539 0.29,-0.5625 0.29,-0.9336 0,-0.4961 -0.254,-0.9961 -0.77,-1.4961 0,-0.8711 -0.164,-1.582 -0.48,-2.1445 l 0.285,-2.7969 0,-1.1172 0.097,0.1875 0.578,0.8399 1.348,2.332 0.289,0 c 0.383,0 0.809,0.5859 1.254,1.7695 l 0.676,1.7735 c 0.125,0.371 0.601,0.9648 1.441,1.7695 l 0.391,1.6797 1.148,1.6797 0.387,1.3047 c 0.324,0.1874 0.645,0.4023 0.965,0.6484 l 0.098,0.2812 c 0.195,0.25 0.894,0.9024 2.113,1.9571 l 0.582,0.2851 0.195,0.9297 0.481,0.2813 c 0.316,1.3007 1.121,2.1718 2.402,2.6054 l -0.379,0.2813 0.379,0.1875 c -0.062,0.0586 -0.094,0.1523 -0.094,0.2812 0,0.1211 0.063,0.3086 0.192,0.5586 l 1.543,0.6563 0.285,1.4883 1.062,0 c 0,0.0625 0.059,0.2773 0.192,0.6523 l 1.929,1.4922 c 0.891,0.2461 1.504,0.3711 1.825,0.3711 0.773,0 1.832,-0.2188 3.179,-0.6524 l 0.965,-1.3086 0.383,-0.1875 0.48,-1.1211 1.352,-1.7773 0,-1.2148 0.867,-0.9297 0,-1.4063 c 0.707,-1.4922 1.063,-2.7695 1.063,-3.8281 l -0.297,-1.125 0.586,-1.5898 -1.063,-1.0274 0.379,-2.0508 -0.094,-0.5625 -0.097,-0.4687 c -0.125,-0.625 -0.188,-1.0899 -0.188,-1.4024 0,-0.3086 0.16,-0.9296 0.477,-1.8672 l -0.289,-1.0273 0.289,-1.3125 -0.289,-0.2812 c 0.133,-0.8672 0.328,-2.336 0.586,-4.3907 l -0.024,-0.375 3.035,3.3047 0.954,1.7696 c 0.253,0.375 0.66,0.9687 1.234,1.7773 l 0,0.1836 c 0.25,0.9961 0.672,1.6758 1.25,2.0508 0,0.375 0.316,0.8398 0.961,1.3945 l 0.773,0.4766 c 0.254,1.0468 0.93,1.9179 2.02,2.6054 l 0.484,1.3086 0.863,1.1172 0.961,0.9336 c 0.582,0.4297 1.028,1.1211 1.356,2.0469 l 0.765,1.1211 0.383,1.4023 1.063,0.5547 1.058,1.3047 1.063,2.2422 c -0.258,0 -0.391,0.0586 -0.391,0.1836 l 0.207,0.375 0.715,0.5586 0.797,1.4726 c 1.078,0.4063 1.684,0.6016 1.812,0.6016 l 0.379,-0.1797 1.715,-0.0938 1.524,-0.6562 1.332,-1.4883 0.289,-1.3086 -0.098,-1.0234 -0.488,-0.3711 -1.059,-1.9609 -0.476,-2.1446 c 0.386,-0.3086 0.574,-0.8711 0.574,-1.6797 -0.188,-0.3086 -0.285,-0.7109 -0.285,-1.207 l -0.289,-0.75 c 0,-0.3086 0,-0.8125 0,-1.4922 0,-0.5586 -0.039,-0.9609 -0.098,-1.2109 l -0.387,-0.4649 0.485,-0.6523 -0.77,-0.8359 c 0.383,0 0.574,-0.4063 0.574,-1.2149 0.129,-0.3789 0.196,-0.625 0.196,-0.7461 0,-0.1836 0,-0.4062 0,-0.6523 0,-0.6211 0,-1.211 0,-1.7774 l 0,-0.1797 c 0,-0.1289 0.414,-1.4023 1.25,-3.8242 l 0.191,-0.9375 1.063,-1.1172 0.578,-1.3086 0.574,-0.2734 0.387,-0.5625 0.484,-0.0937 0.863,-0.1875 0.485,0.0976 0.285,0 c 0.644,0 1.41,0.2422 2.312,0.7461 0.258,0.6211 0.93,1.2734 2.028,1.957 0.06,0.3086 0.45,0.8985 1.15,1.7696 l 1.64,1.1172 0.58,1.1211 c 0.51,0.3085 1.06,0.4687 1.63,0.4687 0.71,0 1.48,-0.1875 2.31,-0.5586 0.39,-0.625 0.58,-1.5547 0.58,-2.8047"
               style="fill:#f8a82d;fill-opacity:1;fill-rule:nonzero;stroke:none"
               id="path82"
               inkscape:connector-curvature="0" />
            <path
               d="m 1043.24,70.1133 -0.39,0.6523 -0.77,0.1875 -2.98,2.3321 -1.93,0.2773 -1.54,0 -0.19,0.375 -0.78,-0.375 -0.86,0.375 -2.5,0 0.28,-0.375 -2.21,-0.7422 -0.38,-0.4687 -0.3,-0.0938 c -1.15,-0.9336 -1.95,-1.7109 -2.4,-2.3281 l -0.68,-2.2383 -0.38,-0.8437 0.96,-1.3008 -1.64,-1.2149 0.2,-0.3789 c -0.7,-1.1758 -1.05,-2.332 -1.05,-3.4453 l -0.77,-0.9375 -0.01,-1.6758 -0.78,-0.8359 -0.19,-0.8438 -0.28,-0.1875 0,-1.2968 -0.29,-0.4727 c 0,-0.7422 -0.07,-1.3359 -0.2,-1.7695 l 0.2,-0.4649 -0.87,-1.7695 0.39,-0.5586 -0.68,-0.9375 0.68,-1.7656 -1.06,-1.3086 0.19,-1.7695 0,-0.2774 0.38,-0.1875 0.49,0.0938 c 0.31,0.3086 0.64,0.5937 0.96,0.8398 l -0.19,0.75 1.34,0.1836 0.29,0.6524 5.65,4.4843 0.58,0.1797 0.67,1.5938 c 0.39,0.125 0.93,0.3711 1.63,0.7461 l 0.63,1.4765 0.76,0 -0.29,1.586 1.35,0.1836 c 0.13,0.25 0.34,0.5624 0.63,0.9414 0.29,0.3671 0.59,0.7109 0.91,1.0195 l 4.92,6.3398 0.76,1.3985 -0.09,0.3789 0.67,1.0195 0.19,1.0313 0.87,0.7421 z m 9.15,4.8515 -0.96,-1.2148 0.76,-2.2383 -1.25,-1.3984 -0.48,-1.9531 -0.29,-0.4649 0.19,-0.4687 c 0,-0.8711 -0.22,-1.5235 -0.67,-1.961 l -0.19,-0.2773 0,-0.375 c 0.19,-0.4336 0.29,-0.8399 0.29,-1.211 0,-0.3085 -0.04,-0.5312 -0.1,-0.6484 l 0.1,-0.3789 -0.39,-1.0234 0.29,-1.1211 -0.77,-0.75 0.29,-1.3008 0.58,-0.6524 -0.87,-0.7461 0,-1.4921 -0.68,-1.4883 0.49,-1.4961 -0.58,-0.7422 0.96,-0.6523 -1.35,-2.1446 -0.09,-0.2812 0.96,-0.1875 -0.67,-2.1446 0,-0.3711 c 0,-0.4374 -0.03,-0.7773 -0.1,-1.0273 l 0.1,-0.2812 1.54,-0.1875 1.25,-1.8633 -0.67,-1.3985 1.06,0.0938 c 0.38,-0.7461 0.6,-1.3945 0.67,-1.961 l -1.45,-1.3945 c -0.45,-0.4375 -1.09,-0.8711 -1.92,-1.3008 l -1.64,-0.8437 -0.48,0.4648 -0.97,-0.4648 -2.98,3.3437 0,1.5743 c -0.38,1.2382 -0.58,2.3789 -0.58,3.4336 l 0,0.5546 -0.58,5.4805 0.78,3.9023 -0.58,2.2266 -1.64,-2.6133 -0.87,-2.4257 -0.77,-0.375 -1.35,-2.0626 -2.4,-2.1562 -0.68,-1.1289 -2.12,-1.7813 -0.48,-1.2187 -3.08,-1.875 -3.27,-3.5664 -1.83,-0.3789 -1.25,-0.9336 c -1.61,0.0586 -2.83,0.6562 -3.66,1.7773 -2.89,1.375 -4.4,3.336 -4.53,5.8907 l 0.48,0.2812 -0.1,0.5625 -0.09,1.125 -0.58,1.2109 0.58,1.3125 0.19,1.9649 0.68,3.082 c 0,0.0703 0,0.1875 0,0.3789 -0.07,0.1211 -0.1,0.25 -0.1,0.3711 0,0.2539 0.06,0.5625 0.19,0.9375 -0.06,0.125 -0.09,0.375 -0.09,0.7461 0,0.4375 0.19,1.1563 0.57,2.1563 l 0.68,0.2773 c -0.39,0.3125 -0.58,0.6524 -0.58,1.0313 0,0.25 0,0.4375 0,0.5585 0,0.1876 0,0.4063 0,0.6563 0,0.75 0.39,1.3125 1.16,1.6836 0.19,0.625 0.54,1.2461 1.06,1.8672 l -0.48,0.7539 1.15,1.3984 0,0.375 c 0,1.1758 0.42,2.2617 1.25,3.2617 l -0.1,1.6758 0.39,0.3711 c 0,0.0625 0,0.1563 0,0.2813 -0.06,0.125 -0.09,0.2187 -0.09,0.2812 0,0.375 0.12,0.6836 0.38,0.9336 l 0,0.5586 c 0.25,0.6211 0.93,1.5508 2.02,2.7969 1.09,1.2422 1.9,2.332 2.41,3.2617 l 0.48,-0.4648 1.06,0.4648 0.48,0.1875 3.18,1.3984 7.41,-0.3711 0,-0.6523 2.32,-0.4688 c 1.47,0 2.43,-0.4648 2.88,-1.3984 0,0.1875 0.03,0.4024 0.1,0.6524 0,0.1875 0,0.3086 0,0.371 l 2.02,-1.7695 1.84,-0.375 3.46,0.8438 1.25,-2.3321 1.45,-0.5586"
               style="fill:#f8a82d;fill-opacity:1;fill-rule:nonzero;stroke:none"
               id="path84"
               inkscape:connector-curvature="0" />
            <path
               d="m 1120.18,44.1016 -0.57,-1.0313 c 0,-1.7969 -0.65,-3.2031 -1.93,-4.1914 0,-0.6211 -0.23,-1.1172 -0.68,-1.4883 l -0.47,-1.0312 -1.26,-0.8399 -0.58,-1.0195 -3.85,-1.9609 -1.83,-0.4688 -2.79,-0.1797 -1.54,0.6485 -1.25,0 -1.26,0.8242 -0.96,0.0976 -3.85,1.9219 -3.47,2.75 c -1.03,0.875 -2.57,2.1133 -4.62,3.7344 l -2.12,2.7969 -1.73,1.3945 -0.29,0.6523 -0.87,1.0274 c -0.83,0.9922 -1.83,2.0547 -2.98,3.1719 l -1.64,0.5586 -1.83,3.5468 0.29,1.3946 c 0.39,1.9843 1.41,3.1093 3.08,3.3554 l 1.83,-0.5586 1.54,-1.4922 1.64,-1.0234 1.54,0 0.39,-0.2812 c 0.51,0 0.93,-0.0352 1.24,-0.0938 0.65,0.3086 1.77,0.6524 3.38,1.0274 l 0.86,0.1835 0.58,1.2149 2.31,0 c 0.71,0.5586 1.44,0.8672 2.22,0.9297 l 0.19,0 c 0.19,0.4336 0.45,0.9648 0.77,1.5859 l 1.83,0.8438 0.77,0.7422 1.45,2.3281 0.67,0 c 0.26,0.625 0.51,1.4961 0.77,2.6133 l 0.87,0.5625 -0.68,0.3671 0.39,1.586 c -0.13,0.25 -0.49,0.4648 -1.06,0.6523 l -1.15,-0.3711 -0.38,0.7539 -0.97,0.3672 -0.29,0.3711 c -0.96,0.1211 -2.34,0.25 -4.15,0.3711 l 0,0.1875 -0.57,0 c -0.52,0 -0.9,0 -1.16,0 -0.83,0 -2.06,-0.4375 -3.66,-1.3086 l -1.35,0 c -2.44,-0.8008 -3.81,-1.3906 -4.14,-1.7617 l -2.12,-0.6484 -2.98,-2.3282 -2.8,-2.6914 -0.04,-0.375 -1.82,-3.082 -0.56,-1.7734 -0.37,-0.1836 0,-0.375 c -0.19,-0.3711 -0.35,-0.7188 -0.48,-1.0235 l -0.58,-0.2812 0.2,-0.2813 -0.29,-0.4648 c -0.07,-0.1289 -0.1,-0.2852 -0.1,-0.4649 0,-0.3125 0.13,-0.5937 0.39,-0.8437 0,-1.3086 -0.3,-2.1484 -0.89,-2.5195 -0.12,-0.25 -0.17,-0.4961 -0.17,-0.7461 0,-0.1875 0,-0.3438 0,-0.4649 0,-1.0586 -0.23,-1.9297 -0.68,-2.6172 -0.32,-0.3125 -0.51,-0.5234 -0.58,-0.6523 l 0,-4.7578 c -0.45,-1.1172 -0.67,-2.0235 -0.67,-2.7071 0,-0.625 0,-0.9648 0,-1.0234 0,-0.6875 -0.39,-1.4062 -1.15,-2.1484 -0.77,-0.7422 -1.5,-1.1172 -2.18,-1.1172 -0.86,0 -1.76,0.5273 -2.68,1.582 l -1.02,2.8867 0,9.2344 0.39,1.2149 0,1.0273 c 0,1.2383 0.06,2.4961 0.19,3.7734 0.13,1.2735 0.19,1.9414 0.19,2.0039 l 0,1.586 0.1,0.8398 0,2.6133 0.38,0.7383 -0.38,1.1211 0.38,3.082 0,3.2578 -0.38,1.8672 0.38,0.7422 -0.1,0.375 -0.42,5.0352 -0.73,3.0781 0,0.8359 0.77,3.1719 -0.38,1.2109 -0.2,2.2383 c -0.12,1.4961 -0.19,2.1445 -0.19,1.961 0,2.1718 1.74,3.3203 5.23,3.4453 l 2.09,1.125 -0.29,-4.5703 0.29,-2.6133 -0.58,-2.7032 0.17,-2.9882 0.41,-1.6758 -0.29,-1.586 0.29,-2.2382 -0.29,-1.8633 0.29,-1.961 0,-0.4648 0.38,-0.9336 -0.67,-2.6094 0,-0.5586 0.67,-1.7734 c -0.29,-0.1289 -0.44,-0.5938 -0.44,-1.3984 l -0.28,-2.2266 0.15,-0.8438 1.15,1.9571 0.58,2.1445 1.35,2.1445 c 0,0.6172 0.22,1.1758 0.67,1.6758 l 1.06,0 0.77,1.5821 2.22,1.0273 c 0.89,0.875 1.92,1.4961 3.08,1.8672 l 0.58,0.4648 1.54,0.7461 1.25,0.2813 c 1.35,1.1172 4.27,1.8633 8.77,2.2343 l 7.5,-0.5546 1.54,-0.8399 0.77,-0.0937 1.65,-1.6797 0.09,0.5586 c 0.84,-0.3711 1.44,-0.9649 1.83,-1.7735 0.32,0.0664 0.45,0.0977 0.39,0.0977 0.25,0 0.51,-0.0977 0.77,-0.2813 l 2.02,-4.0078 -0.1,-0.4687 c 0.32,-0.6211 0.48,-1.1797 0.48,-1.6719 0,-0.875 -0.35,-1.7461 -1.05,-2.6133 l 0,-0.5625 -1.35,-3.4492 -2.03,-2.7031 -0.58,-0.0977 -1.15,-1.4883 c -0.71,0 -1.25,0.1875 -1.64,0.5625 l 0,-1.4921 -0.77,-0.4649 -0.57,-1.0312 -1.74,-0.4649 c -0.26,-0.0586 -0.55,-0.3437 -0.86,-0.8359 -4.44,-1.6836 -6.91,-2.5235 -7.42,-2.5235 -0.19,0 -0.57,0.0508 -1.11,0.1446 -0.55,0.0937 -1.01,0.1406 -1.4,0.1406 -0.25,0 -0.44,-0.0352 -0.57,-0.0937 0.06,-0.1836 0.41,-0.8633 1.06,-2.0352 l 1.26,-0.7461 1.75,-2.957 2.61,-1.4805 0.2,-0.3789 0.87,-0.4609 1.26,-1.3868 2.27,-1.8281 3.07,-1.2187 1.74,-0.4688 1.25,0.0938 0.67,0.2773 c 1.28,0.1875 2.5,0.6875 3.66,1.4922 l 1.64,2.8867 0.96,1.125 0.58,1.6758 c 0.96,0.3125 1.73,0.4648 2.31,0.4648 1.47,0 2.43,-0.8046 2.88,-2.4218"
               style="fill:#f8a82d;fill-opacity:1;fill-rule:nonzero;stroke:none"
               id="path86"
               inkscape:connector-curvature="0" />
            <path
               d="m 1144.64,71.7031 c 0,0.1836 -0.09,0.5586 -0.29,1.1172 l -0.48,0.0938 -0.19,-0.0938 c -0.06,0 -0.19,0 -0.39,0 -0.13,-0.0625 -0.25,-0.0937 -0.38,-0.0937 -0.06,0 -0.16,0.0312 -0.29,0.0937 -0.13,0 -0.22,0 -0.29,0 l -0.96,-0.6523 -0.87,-0.0977 -0.48,-0.1836 -1.63,-2.0547 -1.06,-0.7422 -1.55,-2.6093 -0.86,-0.5625 c -0.19,-1.0586 -0.64,-1.9571 -1.35,-2.6992 l -0.38,-0.6524 c 0.7,0.4297 1.5,0.6524 2.4,0.6524 l 0.68,0.2734 0.28,0.8437 1.35,-0.0937 0.77,1.1211 0.58,0 1.06,-0.375 0.48,1.3945 0.68,0 0,1.0274 1.25,0.2851 0.29,0.2774 0.19,0.8398 1.25,1.7695 c 0.13,0.3086 0.19,0.6797 0.19,1.1211 z m 9.54,-26.8515 c 0,-0.75 -0.58,-1.6797 -1.74,-2.7969 -0.32,-1 -0.8,-1.8086 -1.44,-2.4297 l -0.58,-0.0938 -1.06,-1.7695 -1.73,-0.2773 -1.83,-1.125 -0.97,-1.6719 -1.05,0 c -0.71,-0.2695 -1.29,-0.4336 -1.74,-0.4883 l -0.57,-0.7265 c -0.2,0 -0.49,0 -0.87,0 -0.83,0 -1.64,-0.5274 -2.41,-1.5821 l -1.35,1.1172 c -0.26,0 -0.64,0 -1.15,0 -0.84,0 -1.54,0.1524 -2.12,0.4649 l -1.64,0 -0.77,0.4609 c -2.44,0.3672 -3.98,1.2656 -4.62,2.6797 l 0,0.2773 -1.16,0.5586 -0.57,1.5664 -1.16,0.7422 0,1.3906 -1.16,4.0664 0,3.3282 0.58,1.4765 0,1.9453 0.48,1.4727 -0.09,0.6484 0.67,1.1133 -0.19,-0.1836 c 0,0.5508 0.16,1.1446 0.48,1.7656 l 0,0.4649 -0.29,2.2344 c 0,1.0586 0.48,1.9961 1.44,2.8007 0.07,0.125 0.1,0.3165 0.1,0.5626 0,0.25 -0.11,0.7578 -0.34,1.539 -0.22,0.7774 -0.33,1.3203 -0.33,1.6328 0,0.7461 0.19,1.5235 0.57,2.3321 0.52,-0.75 1.26,-1.1211 2.22,-1.1211 l 0.29,0 c 0.13,0.2461 0.41,0.5273 0.87,0.8359 0.51,1.5547 1.21,2.8594 2.12,3.9141 l 0.38,0.3789 c 0,0.2422 0.19,0.957 0.58,2.1445 l 0.77,0 0.19,0.4648 0.77,0.1875 c 0.32,0.4922 0.53,0.7891 0.63,0.8829 0.09,0.0937 0.78,0.4843 2.07,1.1679 0.25,0.4336 0.64,0.836 1.16,1.211 0.25,0.1211 0.57,0.25 0.96,0.3711 l 0.38,0.5625 c 1.74,0.5585 2.82,0.8359 3.27,0.8359 0.52,0 1,-0.125 1.45,-0.3711 l 0.48,0.0937 0.67,-0.375 c 0.78,-0.5585 1.55,-1.0234 2.32,-1.3984 l 1.64,-1.2109 0,-0.375 c 1.47,-1.1172 2.21,-2.7031 2.21,-4.75 l -0.29,-0.9375 0.29,-3.0742 -0.87,-0.5586 -0.96,-2.4258 -1.83,-1.957 -0.1,-1.4922 c -2.05,-1.4336 -3.95,-2.5821 -5.68,-3.4532 -0.58,-0.8672 -1.48,-1.3007 -2.7,-1.3007 l -0.28,0 -1.84,-1.1172 -1.53,0 -2.32,-0.9336 -1.73,0.8359 -0.19,0 c -0.13,-0.5 -0.26,-1.25 -0.39,-2.2461 l -0.77,-0.5703 -0.09,-1.1211 -0.58,-1.5976 c 0.13,-1.5039 0.19,-2.4688 0.19,-2.9024 l -0.32,-0.2851 c 0,-0.8164 -0.03,-1.4141 -0.08,-1.7852 0,-0.0625 -0.03,-0.1523 -0.08,-0.2773 0,-0.1289 0,-0.2266 0,-0.2852 0,-0.5 0.26,-0.9063 0.77,-1.2187 0.19,-0.75 0.51,-1.2188 0.96,-1.4063 l 0.68,-0.5625 2.12,-0.5664 0,-0.2774 0.77,-0.1874 3.27,0 1.93,0.2734 0.96,0.6484 0.58,0.1836 0.96,1.3828 0.48,0.0938 2.41,0.7344 c 0.26,0.4336 0.67,0.8007 1.25,1.1054 l 0.29,0.461 c 1.28,0.2461 2.02,0.8906 2.21,1.9375 0.9,0.8593 2.06,1.2851 3.47,1.2851 l 0.39,0 c 1.21,-1.3594 1.83,-2.4804 1.83,-3.3476"
               style="fill:#f8a82d;fill-opacity:1;fill-rule:nonzero;stroke:none"
               id="path88"
               inkscape:connector-curvature="0" />
            <path
               d="m 1196.74,71.8867 -0.77,-3.0742 -3.56,-0.4648 -1.93,-1.2149 -1.25,0.5625 -1.34,-0.7265 -1.45,-0.5508 -0.97,-0.6368 -0.03,-0.3593 -2,-0.9727 -1.34,-1.6953 -0.68,0 c -1.02,-1.0586 -1.76,-1.7109 -2.21,-1.9609 l -1.35,-2.1446 -0.48,-0.1875 c -0.19,-0.4961 -0.42,-1.2421 -0.68,-2.2421 l -1.34,-0.4649 -0.58,-1.1172 -0.77,-0.9297 -0.19,-1.4023 -0.77,-0.2774 0,-1.4023 -0.29,-0.2773 c 0.2,-0.3086 0.42,-0.6524 0.68,-1.0274 l -1.45,-0.5547 -0.19,-1.2148 -0.96,-1.582 0.58,-1.2149 -1.26,-1.6836 c 0.13,-0.6211 0.19,-1.0547 0.19,-1.3008 0,-0.0625 0,-0.1836 0,-0.3672 -0.06,-0.1914 -0.09,-0.3476 -0.09,-0.4648 l 0.19,-0.8437 1.64,-1.6797 -1.25,-2.1446 -1.16,-0.8398 -2.69,-1.3086 -3.57,1.3984 0,2.1446 -0.39,0.8437 0.3,1.3984 c -0.13,0.9922 -0.19,1.7383 -0.19,2.2344 0,0.1914 0.03,0.4375 0.09,0.75 0,0.3086 0,0.5235 0,0.6524 l -0.09,0.9297 c -0.45,0.4375 -0.68,0.9296 -0.68,1.4961 0,0.4921 0.23,1.0546 0.68,1.6796 0,0.3086 -0.07,1.2383 -0.2,2.7969 l 0.29,0.2774 -0.29,1.2148 0.2,1.1172 -0.2,0.6523 0.29,2.1446 -0.58,0.9296 0.38,1.0313 -0.38,1.2031 c 0.07,0.3789 0.1,0.8711 0.1,1.4961 0,0.9336 -0.13,1.5508 -0.39,1.8633 l 0.39,0.5586 -0.39,1.6797 -0.86,1.2148 0.48,1.4883 -0.39,0.5625 -0.38,2.2344 0,0.7461 c -0.33,0.375 -0.48,0.8437 -0.48,1.4023 0,1.2383 1.41,2.2969 4.23,3.168 l 2.41,-0.4649 0.48,-1.7734 0.97,-1.2148 -0.29,-2.5118 c 0.19,-1.246 0.42,-2.6132 0.67,-4.1015 l 0.29,-1.4922 c 0.06,-0.1289 0.13,-0.4688 0.19,-1.0273 0,-0.375 -0.16,-0.7813 -0.48,-1.2149 l 0.29,-1.8633 -0.19,-2.0508 -0.39,-0.9336 0.29,-0.371 0.19,-0.9297 c 0.39,0.4297 0.61,0.8945 0.68,1.3945 l 0.38,1.4023 c 0.19,0.3711 0.48,0.6524 0.87,0.836 l 0.38,1.3984 1.35,0.7461 0.19,1.1172 1.07,1.1172 0.76,1.4062 c 0.84,0.8633 1.64,1.4258 2.41,1.6719 l 0.2,0.2813 0.86,1.3086 0.97,0.1875 0.29,0.2773 0.38,0.5547 1.06,0.5625 0.58,0.6523 0.57,-0.0937 0.77,0.375 0.39,0.5586 1.16,0.5625 1.63,1.0234 2.31,0.7422 c 0.9,0.125 1.38,0.1875 1.45,0.1875 l 0,-0.0938 c -0.07,0 -0.1,-0.0351 -0.1,-0.0937 l 0.1,0 c 0.25,0 0.64,0.125 1.15,0.375 0.33,0.25 0.78,0.3711 1.35,0.3711 0.26,0 0.71,-0.0625 1.35,-0.1875 1.67,-0.0625 2.6,-0.8086 2.79,-2.2344"
               style="fill:#f8a82d;fill-opacity:1;fill-rule:nonzero;stroke:none"
               id="path90"
               inkscape:connector-curvature="0" />
            <path
               d="m 921.883,120.551 c 2.48,0 4.601,-0.821 6.355,-2.473 1.758,-1.644 2.633,-3.648 2.633,-6 0,-2.351 -0.875,-4.363 -2.633,-6.027 -1.754,-1.664 -3.875,-2.504 -6.355,-2.504 -2.485,0 -4.598,0.84 -6.356,2.504 -1.757,1.664 -2.636,3.676 -2.636,6.027 0,2.352 0.879,4.356 2.636,6 1.758,1.652 3.871,2.473 6.356,2.473"
               style="fill:#6c3418;fill-opacity:1;fill-rule:nonzero;stroke:none"
               id="path92"
               inkscape:connector-curvature="0" />
            <path
               d="m 215.82,183.855 45.785,0 0,-14.816 -29.933,0 0,-14.387 29.933,0 0,-14.543 -29.933,0 0,-20.929 29.933,0 0,-14.875 -45.785,0 0,79.55"
               style="fill:#6c3418;fill-opacity:1;fill-rule:nonzero;stroke:none"
               id="path94"
               inkscape:connector-curvature="0" />
            <path
               d="m 302.676,162.766 -11.25,-27.313 22.437,0 z m -8.192,21.089 16.188,0 32.254,-79.55 -16.586,0 -6.567,16.386 -34.218,0 -6.821,-16.386 -16.597,0 32.347,79.55"
               style="fill:#6c3418;fill-opacity:1;fill-rule:nonzero;stroke:none"
               id="path96"
               inkscape:connector-curvature="0" />
            <path
               d="m 391.695,173.043 -11.82,-9.898 c -4.152,5.48 -8.375,8.222 -12.684,8.222 -2.093,0 -3.804,-0.535 -5.136,-1.601 -1.332,-1.063 -2,-2.258 -2,-3.598 0,-1.332 0.476,-2.59 1.429,-3.777 1.293,-1.59 5.196,-4.996 11.707,-10.223 6.09,-4.832 9.786,-7.879 11.079,-9.141 3.238,-3.101 5.531,-6.062 6.882,-8.894 1.348,-2.836 2.032,-5.922 2.032,-9.274 0,-6.527 -2.379,-11.921 -7.137,-16.168 -4.762,-4.257 -10.957,-6.382 -18.609,-6.382 -5.969,0 -11.176,1.382 -15.606,4.16 -4.437,2.773 -8.23,7.14 -11.391,13.086 l 13.418,7.679 c 4.036,-7.027 8.684,-10.543 13.938,-10.543 2.734,0 5.039,0.754 6.906,2.274 1.867,1.508 2.797,3.258 2.797,5.242 0,1.801 -0.703,3.609 -2.109,5.406 -1.414,1.805 -4.512,4.563 -9.313,8.278 -9.137,7.066 -15.039,12.519 -17.703,16.359 -2.664,3.836 -4,7.672 -4,11.492 0,5.52 2.219,10.242 6.648,14.192 4.438,3.949 9.907,5.925 16.415,5.925 4.183,0 8.175,-0.921 11.957,-2.761 3.789,-1.836 7.886,-5.192 12.3,-10.055"
               style="fill:#6c3418;fill-opacity:1;fill-rule:nonzero;stroke:none"
               id="path98"
               inkscape:connector-curvature="0" />
            <path
               d="m 394.852,183.855 17.144,0 15.645,-28.613 15.574,28.613 16.922,0 -24.543,-45.101 0,-34.449 -16.078,0 0,34.449 -24.664,45.101"
               style="fill:#6c3418;fill-opacity:1;fill-rule:nonzero;stroke:none"
               id="path100"
               inkscape:connector-curvature="0" />
            <path
               d="m 462.523,183.855 46.352,0 0,-14.921 -15.281,0 0,-64.629 -16.192,0 0,64.629 -14.879,0 0,14.921"
               style="fill:#6c3418;fill-opacity:1;fill-rule:nonzero;stroke:none"
               id="path102"
               inkscape:connector-curvature="0" />
            <path
               d="m 551.656,171.039 c -7.761,0 -14.289,-2.559 -19.574,-7.68 -5.293,-5.121 -7.937,-11.629 -7.937,-19.519 0,-8.801 3.332,-15.754 9.992,-20.879 5.172,-3.996 11.109,-6 17.804,-6 7.571,0 14.024,2.594 19.352,7.789 5.32,5.191 7.988,11.594 7.988,19.195 0,7.575 -2.683,13.981 -8.047,19.227 -5.367,5.246 -11.89,7.867 -19.578,7.867 z m 0.176,14.82 c 11.863,0 22.063,-4.074 30.606,-12.226 8.539,-8.149 12.808,-18.074 12.808,-29.793 0,-11.61 -4.215,-21.438 -12.637,-29.477 -8.425,-8.035 -18.648,-12.054 -30.668,-12.054 -12.589,0 -23.046,4.121 -31.375,12.382 -8.332,8.258 -12.496,18.063 -12.496,29.414 0,7.61 1.938,14.606 5.817,20.985 3.883,6.383 9.218,11.437 16.004,15.172 6.793,3.73 14.105,5.597 21.941,5.597"
               style="fill:#6c3418;fill-opacity:1;fill-rule:nonzero;stroke:none"
               id="path104"
               inkscape:connector-curvature="0" />
            <path
               d="m 618.668,139.137 0,-20.391 4.008,0 c 6.629,0 11.097,0.793 13.402,2.375 2.309,1.586 3.465,3.895 3.465,6.926 0,3.426 -1.359,6.129 -4.063,8.113 -2.71,1.985 -7.207,2.977 -13.492,2.977 z m 0,30.277 0,-16.758 3.492,0 c 3.891,0 6.781,0.774 8.672,2.321 1.887,1.554 2.836,3.66 2.836,6.332 0,2.488 -0.898,4.457 -2.691,5.918 -1.797,1.461 -4.52,2.187 -8.188,2.187 z m -15.961,-65.109 0,79.55 13.188,0 c 7.648,0 13.242,-0.468 16.777,-1.402 5.023,-1.265 9.023,-3.605 11.992,-7.035 2.969,-3.426 4.453,-7.457 4.453,-12.113 0,-3.028 -0.676,-5.778 -2.023,-8.243 -1.356,-2.472 -3.547,-4.785 -6.586,-6.953 5.094,-2.273 8.816,-5.109 11.172,-8.519 2.359,-3.406 3.539,-7.434 3.539,-12.082 0,-4.473 -1.223,-8.543 -3.657,-12.223 -2.433,-3.676 -5.574,-6.43 -9.414,-8.25 -3.847,-1.816 -9.152,-2.73 -15.925,-2.73 l -23.516,0"
               style="fill:#6c3418;fill-opacity:1;fill-rule:nonzero;stroke:none"
               id="path106"
               inkscape:connector-curvature="0" />
            <path
               d="m 702.277,171.039 c -7.765,0 -14.289,-2.559 -19.582,-7.68 -5.289,-5.121 -7.933,-11.629 -7.933,-19.519 0,-8.801 3.332,-15.754 9.988,-20.879 5.18,-3.996 11.109,-6 17.809,-6 7.57,0 14.019,2.594 19.351,7.789 5.324,5.191 7.988,11.594 7.988,19.195 0,7.575 -2.687,13.981 -8.046,19.227 -5.368,5.246 -11.891,7.867 -19.575,7.867 z m 0.168,14.82 c 11.864,0 22.067,-4.074 30.61,-12.226 8.535,-8.149 12.808,-18.074 12.808,-29.793 0,-11.61 -4.215,-21.438 -12.636,-29.477 -8.426,-8.035 -18.649,-12.054 -30.668,-12.054 -12.586,0 -23.047,4.121 -31.375,12.382 -8.332,8.258 -12.496,18.063 -12.496,29.414 0,7.61 1.937,14.606 5.82,20.985 3.875,6.383 9.211,11.437 16,15.172 6.789,3.73 14.101,5.597 21.937,5.597"
               style="fill:#6c3418;fill-opacity:1;fill-rule:nonzero;stroke:none"
               id="path108"
               inkscape:connector-curvature="0" />
            <path
               d="m 792.75,171.039 c -7.762,0 -14.285,-2.559 -19.574,-7.68 -5.289,-5.121 -7.938,-11.629 -7.938,-19.519 0,-8.801 3.332,-15.754 9.992,-20.879 5.176,-3.996 11.11,-6 17.805,-6 7.574,0 14.02,2.594 19.348,7.789 5.328,5.191 7.988,11.594 7.988,19.195 0,7.575 -2.683,13.981 -8.047,19.227 -5.363,5.246 -11.886,7.867 -19.574,7.867 z m 0.172,14.82 c 11.863,0 22.066,-4.074 30.605,-12.226 8.539,-8.149 12.809,-18.074 12.809,-29.793 0,-11.61 -4.211,-21.438 -12.633,-29.477 -8.43,-8.035 -18.648,-12.054 -30.668,-12.054 -12.59,0 -23.047,4.121 -31.379,12.382 -8.328,8.258 -12.496,18.063 -12.496,29.414 0,7.61 1.942,14.606 5.82,20.985 3.883,6.383 9.215,11.437 16.004,15.172 6.789,3.73 14.102,5.597 21.938,5.597"
               style="fill:#6c3418;fill-opacity:1;fill-rule:nonzero;stroke:none"
               id="path110"
               inkscape:connector-curvature="0" />
            <path
               d="m 843.914,183.855 16.137,0 0,-27.425 22.769,27.425 19.164,0 -29.281,-35.5 32.133,-44.05 -18.934,0 -25.851,35.347 0,-35.347 -16.137,0 0,79.55"
               style="fill:#6c3418;fill-opacity:1;fill-rule:nonzero;stroke:none"
               id="path112"
               inkscape:connector-curvature="0" />
            <path
               d="m 1010.78,169.875 -11.163,-10.094 c -7.597,7.617 -16.14,11.418 -25.637,11.418 -8.011,0 -14.761,-2.594 -20.25,-7.793 -5.488,-5.195 -8.23,-11.601 -8.23,-19.215 0,-5.304 1.215,-10.019 3.645,-14.129 2.425,-4.117 5.867,-7.351 10.316,-9.695 4.437,-2.344 9.375,-3.515 14.805,-3.515 4.636,0 8.867,0.82 12.703,2.46 3.832,1.645 8.051,4.633 12.648,8.965 l 10.823,-10.715 c -6.2,-5.738 -12.049,-9.71 -17.561,-11.933 -5.512,-2.211 -11.801,-3.32 -18.871,-3.32 -13.039,0 -23.711,3.918 -32.012,11.757 -8.305,7.844 -12.461,17.891 -12.461,30.149 0,7.937 1.891,14.98 5.668,21.144 3.789,6.168 9.203,11.125 16.254,14.871 7.051,3.754 14.641,5.629 22.777,5.629 6.918,0 13.575,-1.39 19.989,-4.16 6.397,-2.769 11.917,-6.711 16.557,-11.824"
               style="fill:#6c3418;fill-opacity:1;fill-rule:nonzero;stroke:none"
               id="path114"
               inkscape:connector-curvature="0" />
            <path
               d="m 1056.58,171.039 c -7.76,0 -14.28,-2.559 -19.57,-7.68 -5.29,-5.121 -7.93,-11.629 -7.93,-19.519 0,-8.801 3.33,-15.754 9.98,-20.879 5.18,-3.996 11.12,-6 17.81,-6 7.57,0 14.02,2.594 19.35,7.789 5.32,5.191 7.99,11.594 7.99,19.195 0,7.575 -2.69,13.981 -8.05,19.227 -5.37,5.246 -11.89,7.867 -19.58,7.867 z m 0.18,14.82 c 11.87,0 22.06,-4.074 30.6,-12.226 8.54,-8.149 12.81,-18.074 12.81,-29.793 0,-11.61 -4.21,-21.438 -12.64,-29.477 -8.42,-8.035 -18.64,-12.054 -30.66,-12.054 -12.59,0 -23.05,4.121 -31.38,12.382 -8.33,8.258 -12.49,18.063 -12.49,29.414 0,7.61 1.94,14.606 5.82,20.985 3.88,6.383 9.21,11.437 16,15.172 6.79,3.73 14.1,5.597 21.94,5.597"
               style="fill:#6c3418;fill-opacity:1;fill-rule:nonzero;stroke:none"
               id="path116"
               inkscape:connector-curvature="0" />
            <path
               d="m 1115.77,183.855 15.55,0 19.45,-55.48 19.61,55.48 15.55,0 14.07,-79.55 -15.44,0 -8.99,50.242 -17.82,-50.242 -14.07,0 -17.66,50.242 -9.21,-50.242 -15.56,0 14.52,79.55"
               style="fill:#6c3418;fill-opacity:1;fill-rule:nonzero;stroke:none"
               id="path118"
               inkscape:connector-curvature="0" />
          </g>
        </g>
      </g>
    </g>
  </g>
</svg>
