<?xml version="1.0" encoding="UTF-8" standalone="no"?>
<svg
   xmlns:dc="http://purl.org/dc/elements/1.1/"
   xmlns:cc="http://creativecommons.org/ns#"
   xmlns:rdf="http://www.w3.org/1999/02/22-rdf-syntax-ns#"
   xmlns:svg="http://www.w3.org/2000/svg"
   xmlns="http://www.w3.org/2000/svg"
   version="1.1"
   id="svg2"
   viewBox="0 0 57.999998 42.1"
   height="11.881556mm"
   width="16.368889mm">
  <defs
     id="defs4" />
  <metadata
     id="metadata7">
    <rdf:RDF>
      <cc:Work
         rdf:about="">
        <dc:format>image/svg+xml</dc:format>
        <dc:type
           rdf:resource="http://purl.org/dc/dcmitype/StillImage" />
        <dc:title></dc:title>
      </cc:Work>
    </rdf:RDF>
  </metadata>
  <g
     transform="translate(-453.69802,-311.08173)"
     id="layer1">
    <g
       transform="translate(437.47613,301.09388)"
       id="g3684">
      <g
         transform="translate(6.2218863,-13.912148)"
         id="g3875">
        <g
           id="g3817">
          <path
             style="fill:#000000"
             d="m 66,66 -54,0 0,-28 54,0 0,28 z m -52,-2 50,0 0,-24 -50,0 0,24 z"
             id="path3819" />
        </g>
        <g
           id="g3821">
          <path
             style="fill:#000000"
             d="m 45,66 -12,0 0,-16 12,0 0,16 z m -10,-2 8,0 0,-12 -8,0 0,12 z"
             id="path3823" />
        </g>
        <g
           id="g3825">
          <path
             style="fill:#000000"
             d="m 29,56 -10,0 0,-11 10,0 0,11 z m -8,-2 6,0 0,-7 -6,0 0,7 z"
             id="path3827" />
        </g>
        <g
           id="g3829">
          <rect
             style="fill:#000000"
             x="23"
             y="47"
             width="2"
             height="7"
             id="rect3831" />
        </g>
        <g
           id="g3833">
          <path
             style="fill:#000000"
             d="m 59,56 -10,0 0,-11 10,0 0,11 z m -8,-2 6,0 0,-7 -6,0 0,7 z"
             id="path3835" />
        </g>
        <g
           id="g3837">
          <rect
             style="fill:#000000"
             x="53"
             y="47"
             width="2"
             height="7"
             id="rect3839" />
        </g>
        <g
           id="g3841">
          <rect
             style="fill:#000000"
             x="13"
             y="60"
             width="21"
             height="2"
             id="rect3843" />
        </g>
        <g
           id="g3845">
          <rect
             style="fill:#000000"
             x="44"
             y="60"
             width="21"
             height="2"
             id="rect3847" />
        </g>
        <g
           id="g3849">
          <rect
             style="fill:#000000"
             x="38"
             y="42"
             width="2"
             height="3"
             id="rect3851" />
        </g>
        <g
           id="g3853">
          <path
             style="fill:#000000"
             d="m 43.6,48 -9.2,0 2,-4 5.2,0 2,4 z m -6,-2 2.8,0 -2.8,0 z"
             id="path3855" />
        </g>
        <g
           id="g3857">
          <rect
             style="fill:#000000"
             x="40"
             y="57"
             width="2"
             height="2"
             id="rect3859" />
        </g>
        <g
           id="g3861">
          <path
             style="fill:#000000"
             d="M 68,40 10,40 10,34.3 39,23.9 68,34.3 68,40 Z M 12,38 66,38 66,35.7 39,26.1 12,35.7 12,38 Z"
             id="path3863" />
        </g>
      </g>
    </g>
  </g>
  <style
     type="text/css"
     id="style3461">
	.st0{display:none;enable-background:new    ;}
	.st1{font-family:'Arial-BoldMT';}
	.st2{font-size:5px;}
</style>
  <style
     type="text/css"
     id="style3497">
	.st0{display:none;enable-background:new    ;}
	.st1{font-family:'Arial-BoldMT';}
	.st2{font-size:5px;}
</style>
  <style
     type="text/css"
     id="style3526">
	.st0{display:none;enable-background:new    ;}
	.st1{font-family:'Arial-BoldMT';}
	.st2{font-size:5px;}
</style>
  <style
     type="text/css"
     id="style3550">
	.st0{display:none;enable-background:new    ;}
	.st1{font-family:'Arial-BoldMT';}
	.st2{font-size:5px;}
</style>
  <style
     type="text/css"
     id="style3574">
	.st0{display:none;enable-background:new    ;}
	.st1{font-family:'Arial-BoldMT';}
	.st2{font-size:5px;}
</style>
</svg>
