<?xml version="1.0" encoding="utf-8"?>
<!-- Generator: Adobe Illustrator 19.1.1, SVG Export Plug-In . SVG Version: 6.00 Build 0)  -->
<svg version="1.1" id="Layer_1" xmlns="http://www.w3.org/2000/svg" xmlns:xlink="http://www.w3.org/1999/xlink" x="0px" y="0px"
	 viewBox="-242 336.8 125 121.2" style="enable-background:new -242 336.8 125 121.2;" xml:space="preserve">
<style type="text/css">
	.st0{fill:#FFFFFF;}
</style>
<title>HL_portrait_mono (1)</title>
<path class="st0" d="M-146.5,351.1c-0.2,0-0.3,0.3-0.3,0.5c0,0,0,0,0,0l0.1,0.5c0,0.2,0.2,0.3,0.4,0.3h0.1c0.2,0,0.3-0.3,0.3-0.5
	c0,0,0,0,0,0l-0.1-0.5C-146.1,351.2-146.3,351.1-146.5,351.1C-146.5,351.1-146.5,351.1-146.5,351.1z"/>
<path class="st0" d="M-145.9,357.3c0,0.3,0,0.7,0.1,1.1c0,0.2,0.2,0.4,0.4,0.4l0,0c0.2,0,0.4-0.2,0.4-0.4c0,0,0,0,0,0
	c0-0.4,0-0.7-0.1-1.1c0-0.2-0.2-0.4-0.4-0.4c0,0,0,0,0,0C-145.8,356.9-145.9,357.1-145.9,357.3z"/>
<path class="st0" d="M-154.3,399.2h0.1c0.2,0,0.3-0.1,0.3-0.3l0.4-1c0.1-0.2,0-0.4-0.2-0.5c-0.2-0.1-0.4,0-0.5,0.2l0,0l-0.4,1
	C-154.7,398.8-154.6,399.1-154.3,399.2C-154.3,399.2-154.3,399.2-154.3,399.2z"/>
<path class="st0" d="M-152.1,393.1h0.1c0.2,0,0.3-0.1,0.4-0.3l0.3-1c0.1-0.2,0-0.4-0.2-0.5s-0.4,0-0.5,0.2l-0.3,1
	C-152.4,392.8-152.3,393.1-152.1,393.1C-152.1,393.1-152.1,393.1-152.1,393.1z"/>
<path class="st0" d="M-151,388.6l-0.3,1c-0.1,0.2,0,0.4,0.3,0.5h0.1c0.2,0,0.3-0.1,0.4-0.3l0.3-1c0-0.2-0.1-0.4-0.3-0.4
	C-150.8,388.4-150.9,388.4-151,388.6z"/>
<path class="st0" d="M-146.3,354.2c0.1,0.3,0.1,0.7,0.1,1c0,0.2,0.2,0.3,0.4,0.3h0c0.2,0,0.4-0.2,0.3-0.4c0,0,0,0,0,0
	c0-0.4-0.1-0.7-0.2-1.1c0-0.2-0.2-0.4-0.4-0.3c0,0,0,0,0,0C-146.2,353.7-146.3,353.9-146.3,354.2
	C-146.3,354.2-146.3,354.2-146.3,354.2z"/>
<path class="st0" d="M-155.9,403.4c-0.2-0.1-0.4,0-0.5,0.2c0,0,0,0,0,0l-0.4,1c-0.1,0.2,0,0.4,0.2,0.5c0,0,0,0,0,0h0.1
	c0.2,0,0.3-0.1,0.4-0.3l0.4-1C-155.6,403.7-155.7,403.5-155.9,403.4z"/>
<path class="st0" d="M-154.8,400.4c-0.2-0.1-0.4,0-0.5,0.2c0,0,0,0,0,0l-0.4,1c-0.1,0.2,0,0.4,0.2,0.5c0,0,0,0,0,0h0.1
	c0.2,0,0.3-0.1,0.4-0.3l0.4-1C-154.5,400.7-154.6,400.5-154.8,400.4z"/>
<path class="st0" d="M-145.7,366.5c-0.2,0-0.4,0.1-0.4,0.3c0,0,0,0,0,0c0,0.3-0.1,0.7-0.1,1.1c0,0.2,0.1,0.4,0.3,0.4c0,0,0,0,0,0
	l0,0c0.2,0,0.4-0.2,0.4-0.4c0-0.4,0.1-0.7,0.1-1.1C-145.3,366.7-145.5,366.6-145.7,366.5z"/>
<path class="st0" d="M-149.6,385.3c-0.2-0.1-0.4,0.1-0.5,0.3c0,0,0,0,0,0l-0.3,1c-0.1,0.2,0.1,0.4,0.3,0.5c0,0,0,0,0,0h0.1
	c0.2,0,0.3-0.1,0.4-0.3l0.3-1C-149.3,385.5-149.4,385.3-149.6,385.3z"/>
<path class="st0" d="M-146.1,369.7c-0.2,0-0.4,0.1-0.4,0.3c0,0,0,0,0,0c-0.1,0.3-0.1,0.7-0.2,1c0,0.2,0.1,0.4,0.3,0.4c0,0,0,0,0,0
	h0.1c0.2,0,0.4-0.1,0.4-0.3c0.1-0.4,0.1-0.7,0.2-1.1C-145.7,369.9-145.9,369.7-146.1,369.7z"/>
<path class="st0" d="M-146.6,372.8c-0.2,0-0.4,0.1-0.5,0.3c-0.1,0.4-0.1,0.7-0.2,1c0,0.2,0.1,0.4,0.3,0.5c0,0,0,0,0,0h0.1
	c0.2,0,0.3-0.1,0.4-0.3c0.1-0.3,0.1-0.7,0.2-1C-146.2,373.1-146.4,372.9-146.6,372.8z"/>
<path class="st0" d="M-145.4,363.3c-0.2,0-0.4,0.2-0.4,0.4c0,0.4,0,0.7-0.1,1.1c0,0.2,0.1,0.4,0.4,0.4c0,0,0,0,0,0l0,0
	c0.2,0,0.4-0.2,0.4-0.4c0-0.4,0-0.7,0.1-1.1C-145.1,363.5-145.2,363.3-145.4,363.3z"/>
<path class="st0" d="M-148.7,382.2c-0.2-0.1-0.4,0.1-0.5,0.3l-0.3,1c-0.1,0.2,0.1,0.4,0.3,0.5h0.1c0.2,0,0.3-0.1,0.4-0.3l0.3-1
	C-148.4,382.5-148.5,382.3-148.7,382.2z"/>
<path class="st0" d="M-145,360.5c0-0.2-0.2-0.4-0.4-0.4l0,0l0,0c-0.2,0-0.4,0.2-0.4,0.4l0,0v1.1c0,0.2,0.2,0.4,0.4,0.4c0,0,0,0,0,0
	l0,0c0.2,0,0.4-0.2,0.4-0.4l0,0V360.5z"/>
<path class="st0" d="M-147.9,379.1c-0.2,0-0.4,0.1-0.5,0.3c0,0,0,0,0,0l-0.3,1c-0.1,0.2,0.1,0.4,0.3,0.5c0,0,0,0,0,0h0.1
	c0.2,0,0.3-0.1,0.4-0.3l0.3-1C-147.6,379.4-147.7,379.2-147.9,379.1C-147.9,379.1-147.9,379.1-147.9,379.1z"/>
<path class="st0" d="M-147.2,376c-0.2,0-0.4,0.1-0.5,0.3c0,0,0,0,0,0l-0.2,1c0,0.2,0.1,0.4,0.3,0.5c0,0,0,0,0,0h0.1
	c0.2,0,0.3-0.1,0.4-0.3l0.2-1C-146.8,376.2-147,376-147.2,376C-147.2,376-147.2,376-147.2,376z"/>
<path class="st0" d="M-168.2,337.7L-168.2,337.7l1.1-0.1c0.2,0,0.4-0.2,0.4-0.4c0-0.2-0.2-0.4-0.4-0.4c0,0,0,0,0,0l-1.1,0.1
	c-0.2,0-0.4,0.2-0.4,0.4S-168.4,337.7-168.2,337.7z"/>
<path class="st0" d="M-171.4,338.1L-171.4,338.1l1.1-0.1c0.2,0,0.4-0.2,0.3-0.4s-0.2-0.4-0.4-0.3l-1.1,0.1c-0.2,0-0.4,0.2-0.4,0.4
	S-171.6,338.1-171.4,338.1z"/>
<path class="st0" d="M-161.8,337.9l1,0.2h0.1c0.2,0,0.4-0.1,0.4-0.4c0-0.2-0.1-0.4-0.4-0.4l-1.1-0.2c-0.2,0-0.4,0.1-0.4,0.3
	C-162.2,337.7-162.1,337.9-161.8,337.9C-161.9,337.9-161.8,337.9-161.8,337.9z"/>
<path class="st0" d="M-155.8,339.6c0.3,0.2,0.6,0.3,0.9,0.5c0.1,0,0.1,0.1,0.2,0c0.2,0,0.4-0.2,0.4-0.4c0-0.1-0.1-0.3-0.2-0.3
	c-0.3-0.2-0.7-0.4-1-0.5c-0.2-0.1-0.4,0.1-0.5,0.3C-156,339.3-155.9,339.5-155.8,339.6z"/>
<path class="st0" d="M-165,337.6h1.1l0,0c0.2,0,0.4-0.2,0.4-0.4c0-0.2-0.2-0.4-0.4-0.4h-1.1l0,0c-0.2,0-0.4,0.2-0.4,0.4
	S-165.2,337.6-165,337.6z"/>
<path class="st0" d="M-158.7,338.5c0.3,0.1,0.7,0.2,1,0.3h0.1c0.2,0,0.4-0.2,0.4-0.4c0-0.2-0.1-0.3-0.3-0.4c-0.3-0.1-0.7-0.2-1-0.3
	c-0.2-0.1-0.4,0.1-0.5,0.3C-159,338.2-158.9,338.4-158.7,338.5z"/>
<path class="st0" d="M-174.6,338.6L-174.6,338.6l1.1-0.2c0.2,0,0.4-0.2,0.3-0.5c0,0,0,0,0,0c0-0.2-0.2-0.3-0.4-0.3c0,0,0,0,0,0
	l-1.1,0.2c-0.2,0-0.4,0.2-0.3,0.5C-175,338.5-174.8,338.7-174.6,338.6L-174.6,338.6z"/>
<path class="st0" d="M-177.7,339.4h0.1l1-0.3c0.2-0.1,0.3-0.3,0.3-0.5c-0.1-0.2-0.3-0.3-0.5-0.3l0,0l-1,0.3
	c-0.2,0.1-0.3,0.3-0.3,0.5C-178,339.3-177.8,339.4-177.7,339.4z"/>
<path class="st0" d="M-180.8,340.3h0.1l1-0.3c0.2-0.1,0.3-0.3,0.3-0.5c-0.1-0.2-0.3-0.3-0.5-0.3l0,0l-1,0.3
	c-0.2,0.1-0.3,0.3-0.2,0.5C-181.1,340.1-181,340.2-180.8,340.3z"/>
<path class="st0" d="M-152.7,341.5c0.2,0.1,0.4,0.1,0.6-0.1c0.1-0.2,0.1-0.4-0.1-0.6l0,0l-0.4-0.3c-0.2-0.1-0.4-0.1-0.6,0.1
	c-0.1,0.2-0.1,0.4,0.1,0.6L-152.7,341.5z"/>
<path class="st0" d="M-178.8,377.4c0.7,1.1,0.8,2.4,0.4,3.6c1.8-1,3.8-1.6,5.9-1.8c0.7,0,1.3,0.1,1.9,0.5c0.7,0.5,2.7,2.7,0.8,11.9
	c-0.4,1.7,0.7,3.4,2.4,3.7c0,0,0,0,0,0c0.2,0,0.4,0.1,0.7,0.1c1.5,0,2.7-1,3.1-2.5c2-9.3,0.9-15.4-3.3-18.4
	c-1.6-1.1-3.5-1.6-5.5-1.6c-3.2,0.1-6.2,1-9,2.6C-180.4,375.7-179.4,376.4-178.8,377.4z"/>
<path class="st0" d="M-180.6,382.2c1.5-0.8,2.1-2.7,1.2-4.3c-0.8-1.5-2.7-2.1-4.3-1.2c-0.1,0.1-0.2,0.1-0.3,0.2
	c-0.6,0.4-1.2,0.8-1.8,1.3l-2.1,10.5C-185.8,386.2-183.3,384-180.6,382.2z"/>
<path class="st0" d="M-187,363.2c0.2,0,0.4,0.1,0.6,0.1c1.5,0,2.8-1.1,3.1-2.5l2.3-11.7c-0.7,0.6-1.6,0.9-2.5,0.9
	c-0.3,0-0.5,0-0.8-0.1c-1.2-0.2-2.2-1-2.8-2l-2.3,11.7C-189.8,361.2-188.7,362.9-187,363.2z"/>
<path class="st0" d="M-166.1,412.9c-0.3,0.1-0.7,0.2-1.1,0.3c-0.1-0.6-0.3-2.2,0.4-5.9c-1.8,1.4-4.3,1.1-5.7-0.6
	c-0.2-0.2-0.3-0.4-0.4-0.6c-1.1,5.9-1,10.3,2.1,12.4c1,0.7,2.2,1,3.4,1c1.7-0.1,3.4-0.5,5-1.3C-164.5,417.2-165.9,415.2-166.1,412.9
	z"/>
<path class="st0" d="M-198.9,406.8c-1,4.6-1.8,8.9-1.9,9c-0.4,1.7,0.6,3.4,2.2,3.8c1.7,0.4,3.4-0.6,3.8-2.2c0-0.1,0-0.2,0.1-0.3
	c0-0.1,0.9-4.4,1.9-9C-194.9,408.7-197.2,408.2-198.9,406.8z"/>
<path class="st0" d="M-191.5,346.9c1.6-0.9,3.3-1.6,5-2c0,0.1,0,0.3-0.1,0.4c-0.4,1.7,0.6,3.4,2.3,3.8c1.7,0.4,3.4-0.6,3.8-2.3
	c0-0.1,0-0.2,0.1-0.3c0.8-4.1-0.7-6.1-2.1-7c-1-0.6-2.1-0.9-3.3-0.9c-2.7,0-6,1.3-9,2.9C-192.9,342.7-191.6,344.7-191.5,346.9z"/>
<path class="st0" d="M-199.9,384l0.7-0.8l-0.7-3.7c0.8-0.7,0.9-1.9,0.2-2.7c-0.7-0.8-1.9-0.9-2.7-0.2c-0.8,0.7-0.9,1.9-0.2,2.7
	c0.2,0.3,0.5,0.5,0.8,0.6l0.1,0.7l0.7,0.5l-0.4,0.6l0.5,0.3l-0.4,0.5l0.5,0.4l-0.4,0.5L-199.9,384z M-201.1,378
	c-0.3,0.1-0.7-0.2-0.7-0.5c-0.1-0.3,0.2-0.7,0.5-0.7c0.3-0.1,0.7,0.2,0.7,0.5c0,0,0,0,0,0C-200.5,377.6-200.8,377.9-201.1,378
	C-201.1,378-201.1,378-201.1,378L-201.1,378z"/>
<path class="st0" d="M-149.8,348.6c0.6,0.9,1.7,1.2,2.6,0.6s1.2-1.7,0.6-2.6c-0.4-0.6-1-0.9-1.7-0.9l-0.4-0.6l-0.8-0.2l0.1-0.7
	l-0.6-0.1l0.2-0.6l-0.6-0.1l0.1-0.7l-1.2-0.1l-0.4,1l2,3.2C-150.2,347.3-150.2,348-149.8,348.6z M-148.2,347.6
	c0.3-0.2,0.7-0.1,0.9,0.2c0.2,0.3,0.1,0.7-0.2,0.9c-0.3,0.2-0.7,0.1-0.9-0.2c0,0,0,0,0,0C-148.6,348.2-148.5,347.8-148.2,347.6
	L-148.2,347.6z"/>
<path class="st0" d="M-170.8,396.1l-1.6,7.3c-0.4,1.7,0.5,3.4,2.2,3.8c1.7,0.4,3.4-0.5,3.8-2.2c0-0.1,0-0.2,0.1-0.3l2-9.2
	c-0.7,0.6-1.6,0.9-2.5,0.9c-0.3,0-0.6,0-0.9-0.1c-1.1-0.2-2-0.9-2.6-1.8c-0.1-0.1-0.1-0.2-0.2-0.3l-0.3,1.1
	c-6.4,1.2-12.7,2.7-18.9,4.5c-1.1-2.9-4.3-4.3-7.2-3.2c-1.5,0.6-2.7,1.7-3.2,3.2c-6.2-2.2-15.9-7-18.2-15.9s3.1-20,16.3-32.7
	c0.4,0.3,0.8,0.6,1.2,0.9c-1.4,4.4-2.6,11.7-1.5,22.5c0,0.2,0.2,0.4,0.4,0.4l0,0c0.2,0,0.4-0.2,0.4-0.4c0,0,0,0,0,0
	c-1.2-10.5,0.1-17.8,1.4-22.1c2.9,1,6.1-0.5,7.1-3.4c1-2.9-0.5-6.1-3.4-7.1c-2.9-1-6.1,0.5-7.1,3.4c-0.6,1.8-0.3,3.8,0.9,5.3
	c-13.4,13-19,24.2-16.5,33.5s12.4,14.2,18.8,16.4c-0.7,3,1.2,6,4.2,6.6c3,0.7,6-1.2,6.6-4.2c0.2-0.8,0.2-1.6,0-2.4
	C-184.6,399.2-177.6,397.4-170.8,396.1z"/>
<path class="st0" d="M-150.1,396.9c-0.5-0.8-1.3-1.5-2.3-1.8l0-0.1c0.1-0.2,0-0.4-0.2-0.5s-0.4,0-0.5,0.2v0.1
	c-2.6-0.9-6.5-0.9-10.9-0.5l-0.2,0.8c4.4-0.5,8.3-0.5,10.8,0.4l-0.1,0.2c-0.1,0.2,0,0.4,0.2,0.5c0,0,0,0,0,0h0.1
	c0.2,0,0.3-0.1,0.4-0.3v-0.1c0.8,0.3,1.4,0.8,1.8,1.5c1.3,2.1-0.4,5.9-5,11c-0.4-0.4-0.8-0.7-1.3-0.9l0.3-0.5c0.1-0.2,0-0.4-0.2-0.5
	c-0.2-0.1-0.4,0-0.5,0.2l-0.2,0.5c-2.9-1-6.1,0.6-7,3.5c-1,2.9,0.6,6.1,3.5,7s6.1-0.6,7-3.5c0.6-1.8,0.3-3.8-0.9-5.2
	C-150.3,403.4-148.6,399.4-150.1,396.9z"/>
<path class="st0" d="M-197.3,395.7c0.2-0.1,0.5-0.2,0.7-0.3c2.1-0.6,4.3-0.1,6,1.3l6.7-33.4c-1.8,1.4-4.3,1.1-5.7-0.6
	c-0.1-0.2-0.3-0.4-0.4-0.6l-6.6,33.1c-1.1-3.4-2.1-6.7-2.8-10c0-0.2-0.3-0.3-0.5-0.3s-0.3,0.3-0.3,0.5l0,0
	C-199.4,388.8-198.4,392.2-197.3,395.7z"/>
<path class="st0" d="M-230.4,457.7v-10.8c0.1-1.3-0.3-2.6-1.1-3.6c-0.9-0.8-2.1-1.2-3.3-1.1c-1.6-0.1-3.2,0.4-4.4,1.5
	c-0.9,1-1.4,2.6-1.4,4.9v9.2h-1.5v-23.8h1.5v7.6l-0.1,2.1h0.1c0.6-0.9,1.4-1.7,2.4-2.2c1.1-0.5,2.3-0.7,3.5-0.7c3.8,0,5.6,2,5.6,6.1
	v10.9H-230.4L-230.4,457.7z"/>
<path class="st0" d="M-210.1,449.4c0.1,2.3-0.6,4.5-2,6.4c-1.4,1.5-3.4,2.4-5.4,2.3c-1.4,0-2.7-0.3-3.9-1c-1.1-0.7-2-1.8-2.6-3
	c-0.6-1.4-0.9-3-0.9-4.5c-0.1-2.3,0.6-4.5,2-6.3c1.4-1.5,3.4-2.4,5.4-2.3c2-0.1,4,0.7,5.4,2.3C-210.7,444.9-210,447.1-210.1,449.4z
	 M-223.2,449.4c-0.1,1.9,0.4,3.8,1.5,5.3c2.1,2.3,5.7,2.6,8,0.5c0.2-0.2,0.3-0.3,0.5-0.5c1.1-1.6,1.6-3.4,1.5-5.3
	c0.1-1.9-0.4-3.8-1.5-5.3c-1-1.3-2.6-2-4.3-1.9c-1.6-0.1-3.2,0.6-4.2,1.9C-222.8,445.6-223.3,447.5-223.2,449.4z"/>
<path class="st0" d="M-201.5,456.7c0.8,0,1.7-0.1,2.5-0.3v1.2c-0.8,0.3-1.7,0.4-2.5,0.4c-1.2,0.1-2.4-0.3-3.3-1.2
	c-0.8-1.1-1.1-2.4-1-3.7v-10.7h-2.5v-0.9l2.5-0.7l0.8-3.8h0.8v4h4.9v1.3h-4.9v10.5c-0.1,1,0.2,2,0.7,2.8
	C-203,456.4-202.3,456.7-201.5,456.7z"/>
<path class="st0" d="M-189,458c-2.1,0.1-4.2-0.7-5.6-2.2c-1.4-1.8-2.1-4-2-6.3c-0.1-2.3,0.6-4.5,2-6.4c1.3-1.6,3.2-2.5,5.3-2.4
	c1.8-0.1,3.5,0.6,4.6,2c1.2,1.6,1.8,3.6,1.7,5.6v1.2h-12c-0.1,1.9,0.5,3.7,1.6,5.2c1.1,1.2,2.8,1.9,4.5,1.8c0.8,0,1.7-0.1,2.5-0.2
	c0.9-0.2,1.8-0.5,2.7-0.9v1.4c-0.8,0.4-1.7,0.7-2.6,0.8C-187.2,457.9-188.1,458-189,458z M-189.4,442.1c-1.5-0.1-2.9,0.5-3.9,1.6
	c-1.1,1.3-1.7,2.9-1.7,4.6h10.3c0.1-1.6-0.3-3.2-1.3-4.5C-186.8,442.7-188.1,442.1-189.4,442.1L-189.4,442.1z"/>
<path class="st0" d="M-177.3,457.7h-1.5v-23.8h1.5L-177.3,457.7L-177.3,457.7z"/>
<path class="st0" d="M-170.5,457.7h-1.5v-23.8h1.5V457.7z"/>
<path class="st0" d="M-151.6,449.4c0.1,2.3-0.6,4.5-2,6.4c-1.4,1.5-3.4,2.4-5.4,2.3c-1.4,0-2.7-0.3-3.9-1c-1.1-0.7-2-1.8-2.5-3
	c-0.6-1.4-0.9-3-0.9-4.5c-0.1-2.3,0.6-4.5,2-6.3c1.4-1.5,3.4-2.4,5.4-2.3c2-0.1,4,0.7,5.4,2.3C-152.1,444.9-151.4,447.1-151.6,449.4
	z M-164.7,449.4c-0.1,1.9,0.4,3.8,1.5,5.3c2.1,2.3,5.7,2.6,8,0.5c0.2-0.2,0.3-0.3,0.5-0.5c1.1-1.6,1.6-3.4,1.5-5.3
	c0.1-1.9-0.4-3.8-1.5-5.3c-1-1.3-2.6-2-4.3-1.9c-1.6-0.1-3.2,0.6-4.2,1.9C-164.3,445.6-164.8,447.5-164.7,449.4L-164.7,449.4z"/>
<path class="st0" d="M-133.6,449.4c0.1,2.3-0.6,4.5-2,6.4c-1.4,1.5-3.4,2.4-5.4,2.3c-1.4,0-2.7-0.3-3.9-1c-1.1-0.7-2-1.8-2.5-3
	c-0.6-1.4-0.9-3-0.9-4.5c-0.1-2.3,0.6-4.5,2-6.3c1.4-1.5,3.4-2.4,5.4-2.3c2-0.1,4,0.7,5.4,2.3C-134.1,444.9-133.4,447.1-133.6,449.4
	z M-146.7,449.4c-0.1,1.9,0.4,3.8,1.5,5.3c2.1,2.3,5.7,2.6,8,0.5c0.2-0.2,0.3-0.3,0.5-0.5c1.1-1.6,1.6-3.4,1.5-5.3
	c0.1-1.9-0.4-3.8-1.5-5.3c-1-1.3-2.6-2-4.3-1.9c-1.6-0.1-3.2,0.6-4.2,1.9C-146.3,445.6-146.8,447.5-146.7,449.4L-146.7,449.4z"/>
<path class="st0" d="M-127.8,450.4l8.5-9.3h1.8l-6.5,7.1l7.1,9.5h-1.8l-6.3-8.4l-2.7,2.5v5.9h-1.5v-23.8h1.5v11.9L-127.8,450.4
	L-127.8,450.4z"/>
</svg>
