<?xml version="1.0" encoding="UTF-8" standalone="no"?>
<svg
   xmlns:dc="http://purl.org/dc/elements/1.1/"
   xmlns:cc="http://creativecommons.org/ns#"
   xmlns:rdf="http://www.w3.org/1999/02/22-rdf-syntax-ns#"
   xmlns:svg="http://www.w3.org/2000/svg"
   xmlns="http://www.w3.org/2000/svg"
   version="1.1"
   id="svg2"
   viewBox="0 0 24.016 31.899999"
   height="9.0028887mm"
   width="6.7778487mm">
  <defs
     id="defs4" />
  <metadata
     id="metadata7">
    <rdf:RDF>
      <cc:Work
         rdf:about="">
        <dc:format>image/svg+xml</dc:format>
        <dc:type
           rdf:resource="http://purl.org/dc/dcmitype/StillImage" />
        <dc:title></dc:title>
      </cc:Work>
    </rdf:RDF>
  </metadata>
  <g
     transform="translate(-370.95933,-426.83599)"
     id="layer1">
    <g
       transform="translate(366.95933,426.83599)"
       id="g3479">
      <g
         style="display:none"
         class="st0"
         id="g3460">
        <path
           style="display:inline"
           class="st1"
           d="M 24.5,16.8 C 25.4,15.1 26,13.1 26,11 26,4.9 21.5,0 16,0 10.5,0 6,4.9 6,11 6,13.1 6.6,15.1 7.5,16.8 3.5,19 0,22.6 0,28 l 0,4 32,0 0,-4 C 32,22.6 28.5,19 24.5,16.8 Z M 16,4 c 3.3,0 6,3.1 6,7 0,3.9 -2.7,7 -6,7 -3.3,0 -6,-3.1 -6,-7 0,-3.9 2.7,-7 6,-7 z M 4,28 c 0,-4.1 3.1,-6.6 6.2,-8.1 1.6,1.3 3.6,2.1 5.8,2.1 2.2,0 4.2,-0.8 5.8,-2.1 3.1,1.5 6.2,4 6.2,8.1 L 4,28 Z"
           id="path3462" />
      </g>
      <g
         id="g3464">
        <path
           d="M 28,12 C 28,5.4 22.6,0 16,0 9.4,0 4,5.4 4,12 c 0,0 0,0.1 0,0.1 0,0.3 0,0.9 0.2,1.9 0.2,1 0.5,2 0.9,2.9 1.3,3.4 4.3,8.4 10.9,15 l 0,0 c 0,0 0,0 0,0 0,0 0,0 0,0 l 0,0 C 22.7,25.2 25.7,20.1 27,16.7 27.4,15.9 27.6,15 27.8,14.2 28.1,12.8 28,12 28,12 Z m -12,6 c -3.3,0 -6,-2.7 -6,-6 0,-3.3 2.7,-6 6,-6 3.3,0 6,2.7 6,6 0,3.3 -2.7,6 -6,6 z"
           id="path3466" />
      </g>
      <text
         transform="translate(0,47)"
         style="font-size:5px;font-family:Arial-BoldMT;display:none;enable-background:new"
         id="text3468">Created by Noe Araujo</text>
      <text
         transform="translate(0,52)"
         style="font-size:5px;font-family:Arial-BoldMT;display:none;enable-background:new"
         id="text3470">from the Noun Project</text>
    </g>
  </g>
  <style
     type="text/css"
     id="style3361">
	.st0{fill:#231F20;}
	.st1{display:none;enable-background:new    ;}
	.st2{font-family:'Arial-BoldMT';}
	.st3{font-size:5px;}
</style>
  <style
     type="text/css"
     id="style3382">
	.st0{display:none;enable-background:new    ;}
	.st1{font-family:'Arial-BoldMT';}
	.st2{font-size:5px;}
</style>
  <style
     type="text/css"
     id="style3437">
	.st0{fill:#231F20;}
	.st1{display:none;enable-background:new    ;}
	.st2{font-family:'Arial-BoldMT';}
	.st3{font-size:5px;}
</style>
  <style
     type="text/css"
     id="style3458">
	.st0{display:none;}
	.st1{display:inline;}
</style>
</svg>
