<svg id="Layer_1" data-name="Layer 1" xmlns="http://www.w3.org/2000/svg" viewBox="0 0 361.75 46.32"><defs><style>.cls-1{fill:#fff;}</style></defs><title>29--Ostrovok_w</title><path class="cls-1" d="M211,357H186.47a1.7,1.7,0,0,0-1.74,1.77v4.71a1.78,1.78,0,0,0,1.77,1.69h7.25v27a1.63,1.63,0,0,0,1.69,1.75H202a1.67,1.67,0,0,0,1.73-1.69V365.17h7.35a1.73,1.73,0,0,0,1.65-1.71v-4.74A1.66,1.66,0,0,0,211,357Zm111,0h-8.36a1.67,1.67,0,0,0-1.65,1.26l-6.42,22.81-6.41-22.85a1.69,1.69,0,0,0-1.66-1.21H289.2a1.06,1.06,0,0,0-1,1.49c0.4,1.21,11,33.61,11.19,34.31A1.67,1.67,0,0,0,301,394h9.28a1.62,1.62,0,0,0,1.6-1.15l11.27-34.39A1.08,1.08,0,0,0,322.08,357Zm-148,14.87a43.62,43.62,0,0,1-6.14-3.14,2.46,2.46,0,0,1-1.13-2,2.08,2.08,0,0,1,.89-1.7,4.69,4.69,0,0,1,2.84-.69,20.22,20.22,0,0,1,7.33,1.67,1.71,1.71,0,0,0,2.33-1c0.65-1.6,1.54-3.87,1.77-4.46a1.72,1.72,0,0,0-1-2.29,28,28,0,0,0-10.14-2q-6.53,0-10.26,2.87a9.52,9.52,0,0,0-3.73,8,11.8,11.8,0,0,0,.87,4.75,9.84,9.84,0,0,0,2.69,3.55,23.77,23.77,0,0,0,5.45,3.2q4,1.8,4.94,2.38a5,5,0,0,1,1.35,1.16,2.21,2.21,0,0,1,.42,1.33,2.4,2.4,0,0,1-1,2,5.53,5.53,0,0,1-3.28.77,22.68,22.68,0,0,1-5.67-.91,19,19,0,0,1-1.93-.63,1.67,1.67,0,0,0-2.25,1l-1.79,4.48a1.64,1.64,0,0,0,.92,2.27,25.27,25.27,0,0,0,4.3,1.42,31.12,31.12,0,0,0,6.22.52A18.7,18.7,0,0,0,175.8,393a11.42,11.42,0,0,0,5.06-4.17,11,11,0,0,0,1.75-6.13,10,10,0,0,0-1.87-6.23Q178.87,374,174.07,371.87Zm-38.33-15.54a19.11,19.11,0,1,0,19.13,19.11A19.11,19.11,0,0,0,135.74,356.33Zm0,28.32a9.2,9.2,0,1,1,9.21-9.21A9.22,9.22,0,0,1,135.74,384.65Zm102.08-5.21c6.22-1.37,8.58-5.72,8.58-11.15,0-7.28-4.78-11.28-14.82-11.28H218a1.67,1.67,0,0,0-1.7,1.71v33.6A1.68,1.68,0,0,0,218,394h6.26a1.7,1.7,0,0,0,1.73-1.61V380.51h2.56s8.5,12.28,8.82,12.73a1.54,1.54,0,0,0,1.43.72h7.09a1.09,1.09,0,0,0,.92-1.71Zm-6.89-6.21h-5v-8.66h5.4c3.42,0,5.37,1.74,5.37,4.06C236.72,371.7,234.42,373.22,230.94,373.22Zm203.93,6.21c6.22-1.37,8.58-5.72,8.58-11.15,0-7.28-4.78-11.28-14.83-11.28H415a1.67,1.67,0,0,0-1.7,1.71v33.6A1.68,1.68,0,0,0,415,394h6.26a1.7,1.7,0,0,0,1.73-1.61V380.51h2.56l8.82,12.73a1.56,1.56,0,0,0,1.43.72h7.09a1.09,1.09,0,0,0,.92-1.71ZM428,373.22h-5v-8.66h5.4c3.42,0,5.37,1.74,5.37,4.06C433.77,371.7,431.47,373.22,428,373.22Zm-22.42,11.64a4.86,4.86,0,1,0,4.86,4.86A4.86,4.86,0,0,0,405.57,384.86ZM476.65,357H470a1.74,1.74,0,0,0-1.68,1.73v19.9q0,3.92-1.47,5.69a6.17,6.17,0,0,1-8.66,0q-1.46-1.77-1.47-5.69v-19.9a1.74,1.74,0,0,0-1.68-1.73h-6.63a1.74,1.74,0,0,0-1.74,1.78v20.64q0,7.26,4.06,11.14c2.71,2.58,6.74,3.87,11.78,3.87s9.07-1.29,11.78-3.87,4.06-6.29,4.06-11.14V358.78A1.74,1.74,0,0,0,476.65,357Zm-88.91,16.56s10.3-14.61,10.56-15a1.06,1.06,0,0,0-.92-1.56h-8a1.69,1.69,0,0,0-1.38.73c-0.34.47-7.36,10.76-7.36,10.76l-3,1.78V358.72a1.72,1.72,0,0,0-1.73-1.72h-6.58a1.68,1.68,0,0,0-1.73,1.77v33.48a1.66,1.66,0,0,0,1.74,1.72h6.57a1.67,1.67,0,0,0,1.72-1.64V381.6l3-1.77,6.87,13.3A1.64,1.64,0,0,0,389,394h8.41a1.07,1.07,0,0,0,.94-1.56Zm-118.9-17.23a19.12,19.12,0,0,0-17.91,25.78,1.69,1.69,0,0,0,1.91,1.12c2.3-.34,6.79-1,7.49-1.12a1.12,1.12,0,0,0,.78-1.68,9.21,9.21,0,1,1,9,4.13l-14.45,2.15a1.15,1.15,0,0,0-.53,2c3.48,3.59,13.75,13.93,13.75,13.93s10.23-10.31,13.7-13.87A19.11,19.11,0,0,0,268.83,356.33Zm74.5,0a19.11,19.11,0,1,0,19.13,19.11A19.11,19.11,0,0,0,343.33,356.33Zm0,28.32a9.2,9.2,0,1,1,9.21-9.21A9.22,9.22,0,0,1,343.33,384.65Z" transform="translate(-116.63 -356.33)"/></svg>