<svg id="Layer_1" data-name="Layer 1" xmlns="http://www.w3.org/2000/svg" viewBox="0 0 116.53 38.65"><defs><style>.cls-1,.cls-2{fill:#fff;}.cls-1{fill-rule:evenodd;}</style></defs><title>32--Ozontravel_w</title><path class="cls-1" d="M311.58,434.49h10.17c2.77,0,7.71,1,7.71,5.34v8.56c0,4.34-4.94,5.33-7.71,5.33H311.58c-2.77,0-7.71-1-7.71-5.33v-8.56c0-4.35,4.94-5.34,7.71-5.34m13.9,5.73c0-1.74-1.26-2.28-3.76-2.28h-10.1c-2.5,0-3.76.54-3.76,2.28V448c0,1.74,1.26,2.27,3.76,2.27h10.1c2.5,0,3.76-.53,3.76-2.27v-7.79Z" transform="translate(-243.87 -434.49)"/><path class="cls-1" d="M251.62,434.49h10.18c2.77,0,7.71,1,7.71,5.34v8.56c0,4.34-4.94,5.33-7.71,5.33H251.62c-2.77,0-7.72-1-7.72-5.33v-8.56c0-4.35,4.95-5.34,7.72-5.34m13.89,5.73c0-1.74-1.26-2.28-3.76-2.28h-10.1c-2.5,0-3.76.54-3.76,2.28V448c0,1.74,1.26,2.27,3.76,2.27h10.1c2.5,0,3.76-.53,3.76-2.27v-7.79Z" transform="translate(-243.87 -434.49)"/><path class="cls-1" d="M299.21,435.25a1.09,1.09,0,0,0-.94-0.53H274.72a1.11,1.11,0,0,0-1.1,1.11v1.31a1.11,1.11,0,0,0,1.1,1.1h18.45L274.72,449a2.3,2.3,0,0,0-1.1,1.73v1.79a0.69,0.69,0,0,0,.16.47,1.13,1.13,0,0,0,.94.53h23.54a1.1,1.1,0,0,0,1.11-1.09V451.1a1.11,1.11,0,0,0-1.11-1.1H279.82l18.45-10.74a2.3,2.3,0,0,0,1.11-1.74v-1.79A0.67,0.67,0,0,0,299.21,435.25Z" transform="translate(-243.87 -434.49)"/><path class="cls-1" d="M359.27,434.72h-1.78a1.1,1.1,0,0,0-1.1,1.11v12.54l-18.07-13.31a1.06,1.06,0,0,0-.79-0.34h-1.8a1.11,1.11,0,0,0-1.09,1.1v16.59a1.1,1.1,0,0,0,1.09,1.1h1.8a1.1,1.1,0,0,0,1.09-1.1v-12.5l18.08,13.3,0.08,0.05a1.15,1.15,0,0,0,.71.25h1.78a1.1,1.1,0,0,0,1.09-1.1V435.83A1.1,1.1,0,0,0,359.27,434.72Z" transform="translate(-243.87 -434.49)"/><path class="cls-2" d="M276.91,463.94a4.21,4.21,0,0,0-1.41-.18H271v2.16h4.78a4.25,4.25,0,0,0,1-.1,0.88,0.88,0,0,0,.48-0.26,0.33,0.33,0,0,0,.07-0.22v-1a0.37,0.37,0,0,0-.09-0.25A0.79,0.79,0,0,0,276.91,463.94Z" transform="translate(-243.87 -434.49)"/><polygon class="cls-2" points="48.21 32.32 51.91 32.32 50.06 29.6 48.21 32.32"/><path class="cls-2" d="M360.4,461.14a1.63,1.63,0,0,0-1.63-1.63H245.5a1.63,1.63,0,0,0-1.63,1.63s0,0,0,0h0v10.27h0s0,0,0,0a1.63,1.63,0,0,0,1.63,1.63H358.77a1.63,1.63,0,0,0,1.63-1.63s0,0,0,0h0V461.19h0S360.4,461.16,360.4,461.14ZM259,463.6a0.63,0.63,0,0,1-.46.17H255.6v5.84a0.64,0.64,0,0,1-.16.47,0.61,0.61,0,0,1-.46.17,2.83,2.83,0,0,1-.65,0A0.53,0.53,0,0,1,254,470a0.68,0.68,0,0,1-.1-0.37v-5.84H251a0.57,0.57,0,0,1-.63-0.63,1.07,1.07,0,0,1,.09-0.53,0.43,0.43,0,0,1,.22-0.19,0.84,0.84,0,0,1,.32-0.06h7.51a0.59,0.59,0,0,1,.47.21,0.93,0.93,0,0,1,.15.56A0.64,0.64,0,0,1,259,463.6Zm20,1.74a1.63,1.63,0,0,1-.3,1,2.11,2.11,0,0,1-.87.66,5.42,5.42,0,0,1-2,.36h-1.61l4,1.7a0.81,0.81,0,0,1,.33.25,0.56,0.56,0,0,1,.12.36,0.51,0.51,0,0,1-.27.47,1.36,1.36,0,0,1-.68.14,2,2,0,0,1-.56-0.06L271,467.56v2a0.65,0.65,0,0,1-.16.47,0.62,0.62,0,0,1-.46.17,3.1,3.1,0,0,1-.55,0l-0.08,0h0a0.56,0.56,0,0,1-.27-0.2,0.68,0.68,0,0,1-.1-0.37V463a0.56,0.56,0,0,1,.63-0.62h5.58a5.82,5.82,0,0,1,2.18.35,2.18,2.18,0,0,1,1,.68,1.66,1.66,0,0,1,.32,1v0.92Zm20.33,4.82a0.79,0.79,0,0,1-.58.23A0.88,0.88,0,0,1,298,470l-1.19-1.72h-5.7L289.89,470a0.67,0.67,0,0,1-.54.35,0.91,0.91,0,0,1-.52-0.17,0.6,0.6,0,0,1-.3-0.5v0l0-.14,4.39-6.71a1.17,1.17,0,0,1,1-.48,1.16,1.16,0,0,1,.46.08,0.64,0.64,0,0,1,.31.27l0,0,0,0.08,4.65,6.58a0.54,0.54,0,0,1,0,.26A0.79,0.79,0,0,1,299.31,470.16Zm18.53-6.82-4.49,6.39a1.1,1.1,0,0,1-.94.52,1.09,1.09,0,0,1-.94-0.51l-4.51-6.4a0.84,0.84,0,0,1-.17-0.45,0.48,0.48,0,0,1,.24-0.42,1.14,1.14,0,0,1,.58-0.12,0.94,0.94,0,0,1,.79.28l4,5.72,4-5.72a0.94,0.94,0,0,1,.79-0.28,1.18,1.18,0,0,1,.59.12,0.48,0.48,0,0,1,.24.42A0.89,0.89,0,0,1,317.83,463.33Zm12,5.08a0.65,0.65,0,0,0,.28.21,3.2,3.2,0,0,0,1.28.19h4.46a0.62,0.62,0,0,1,.46.17,0.65,0.65,0,0,1,.16.47,0.93,0.93,0,0,1-.15.57,0.57,0.57,0,0,1-.47.22h-4.53a5,5,0,0,1-2-.4,2.24,2.24,0,0,1-.89-0.67,1.62,1.62,0,0,1-.3-1v-3.77a1.65,1.65,0,0,1,.4-1.07,3.7,3.7,0,0,1,3-1h4.27a0.58,0.58,0,0,1,.47.21,0.92,0.92,0,0,1,.15.56,0.65,0.65,0,0,1-.16.46,0.63,0.63,0,0,1-.46.17h-3.83a6.43,6.43,0,0,0-1.36.11,1.26,1.26,0,0,0-.67.3,0.35,0.35,0,0,0-.11.27v1.19h6.12a0.65,0.65,0,0,1,.48.18,0.7,0.7,0,0,1,.16.5,0.83,0.83,0,0,1-.16.55,0.64,0.64,0,0,1-.49.2h-6.1v1.11A0.41,0.41,0,0,0,329.8,468.42Zm23.92,1.65a0.64,0.64,0,0,1-.47.17h-1.89a8.25,8.25,0,0,1-2.42-.28,2.15,2.15,0,0,1-1.05-.71,1.85,1.85,0,0,1-.36-1.15V463a0.65,0.65,0,0,1,.16-0.46,0.64,0.64,0,0,1,.46-0.16,2.74,2.74,0,0,1,.64,0,0.51,0.51,0,0,1,.3.21,0.66,0.66,0,0,1,.1.37v5.11a0.46,0.46,0,0,0,.19.38,1.51,1.51,0,0,0,.67.27,7.21,7.21,0,0,0,1.39.07h1.81a0.58,0.58,0,0,1,.48.21,0.94,0.94,0,0,1,.15.57A0.67,0.67,0,0,1,353.72,470.07Z" transform="translate(-243.87 -434.49)"/></svg>