<?xml version="1.0" encoding="UTF-8" standalone="no"?>
<svg
   xmlns:dc="http://purl.org/dc/elements/1.1/"
   xmlns:cc="http://creativecommons.org/ns#"
   xmlns:rdf="http://www.w3.org/1999/02/22-rdf-syntax-ns#"
   xmlns:svg="http://www.w3.org/2000/svg"
   xmlns="http://www.w3.org/2000/svg"
   version="1.1"
   id="svg2"
   viewBox="0 0 46.000001 40.99399"
   height="11.569415mm"
   width="12.982223mm">
  <defs
     id="defs4" />
  <metadata
     id="metadata7">
    <rdf:RDF>
      <cc:Work
         rdf:about="">
        <dc:format>image/svg+xml</dc:format>
        <dc:type
           rdf:resource="http://purl.org/dc/dcmitype/StillImage" />
        <dc:title></dc:title>
      </cc:Work>
    </rdf:RDF>
  </metadata>
  <g
     transform="translate(-401.56303,-371.75519)"
     id="layer1">
    <path
       style="clip-rule:evenodd;fill-rule:evenodd"
       d="m 447.56303,407.74918 0,0 c 0,2.762 -2.238,5 -5,5 l 0,0 -36,0 0,0 c -2.762,0 -5,-2.238 -5,-5 l 0,-29 c 0,-2.209 1.791,-4 4,-4 l 0,0 20.171,0 8.099,-2.934 c 0.513,-0.187 1.081,0.078 1.268,0.589 l 0.853,2.345 3.609,0 c 2.209,0 4,1.791 4,4 l 0,2 0,0 c 2.209,0 4,1.791 4,4 l 0,23 z m -42,-31 0,0 c -1.104,0 -2,0.896 -2,2 0,1.104 0.896,2 2,2 l 3.445,0 0,0 0.189,0 c 0.013,-0.005 0.021,-0.016 0.034,-0.021 l 10.982,-3.979 -14.65,0 z m 29.078,0.181 -1.062,-2.924 -10e-4,0 0,0 -2.051,0.743 0.003,0 -5.514,2 -0.01,0 -11.039,4 21.062,0 -1.388,-3.819 z m 6.922,1.819 c 0,-1.104 -0.896,-2 -2,-2 l -2.883,0 1.454,4 3.429,0 0,0 0,-2 z m 2,4 -38,0 0,0 c -0.732,0 -1.41,-0.211 -2,-0.555 l 0,25.555 c 0,1.657 1.344,3 3,3 l 36,0 c 1.657,0 3,-1.343 3,-3 l 0,-7 -4,0 c -2.209,0 -4,-1.791 -4,-4 0,-2.209 1.791,-4 4,-4 l 4,0 0,-8 c 0,-1.104 -0.896,-2 -2,-2 z m 2,16 0,-4 -4,0 c -1.104,0 -2,0.896 -2,2 0,1.104 0.896,2 2,2 l 4,0 z m -4,-3 2,0 0,2 -2,0 0,-2 z"
       id="path3451" />
  </g>
</svg>
