<?xml version="1.0" encoding="UTF-8" standalone="no"?>
<svg
   xmlns:dc="http://purl.org/dc/elements/1.1/"
   xmlns:cc="http://creativecommons.org/ns#"
   xmlns:rdf="http://www.w3.org/1999/02/22-rdf-syntax-ns#"
   xmlns:svg="http://www.w3.org/2000/svg"
   xmlns="http://www.w3.org/2000/svg"
   version="1.1"
   id="svg2"
   viewBox="0 0 95.099997 89.999998"
   height="25.4mm"
   width="26.839333mm">
  <defs
     id="defs4" />
  <metadata
     id="metadata7">
    <rdf:RDF>
      <cc:Work
         rdf:about="">
        <dc:format>image/svg+xml</dc:format>
        <dc:type
           rdf:resource="http://purl.org/dc/dcmitype/StillImage" />
        <dc:title></dc:title>
      </cc:Work>
    </rdf:RDF>
  </metadata>
  <g
     transform="translate(-507.32838,-299.58919)"
     id="layer1">
    <g
       transform="translate(504.82838,295.18919)"
       id="g3543">
      <g
         id="g3528">
        <path
           d="m 93.5,60.4 -30.1,0 15.1,-37 15,37 z m -56.9,-6.7 -30.1,0 15.1,-37 15,37 z M 95.8,60.4 80,21.8 c 1.4,-0.6 2.4,-1.8 2.6,-3.4 0.3,-2.3 -1.4,-4.4 -3.7,-4.7 l -26.6,-3.3 0,-2.8 C 52.3,5.8 50.9,4.4 49.1,4.4 47.3,4.4 46,5.9 46,7.6 l 0,2 -23.8,-2.9 c -2.3,-0.3 -4.4,1.4 -4.7,3.7 -0.2,1.9 0.9,3.7 2.6,4.4 L 4.2,53.7 2.5,53.7 C 2.5,61.6 11,68 21.6,68 32.1,68 40.7,61.6 40.7,53.6 L 39,53.6 23.3,15.4 46,18.2 46,86 31,86 c -2.3,0 -4.2,1.9 -4.2,4.2 0,2.3 1.9,4.2 4.2,4.2 l 38.1,0 c 2.3,0 4.2,-1.9 4.2,-4.2 0,-2.3 -1.9,-4.2 -4.2,-4.2 l -16.7,0 0,-67 24.4,3 -15.7,38.4 -1.7,0 c 0,7.9 8.5,14.4 19.1,14.4 10.5,0 19.1,-6.4 19.1,-14.4 l -1.8,0 z"
           id="path3530" />
      </g>
      <text
         style="font-size:5px;font-family:Arial-BoldMT;display:none;enable-background:new"
         transform="translate(0,115)"
         class="st0 st1 st2"
         id="text3532">Created by Rediffusion</text>
      <text
         style="font-size:5px;font-family:Arial-BoldMT;display:none;enable-background:new"
         transform="translate(0,120)"
         class="st0 st1 st2"
         id="text3534">from the Noun Project</text>
    </g>
  </g>
  <style
     type="text/css"
     id="style3461">
	.st0{display:none;enable-background:new    ;}
	.st1{font-family:'Arial-BoldMT';}
	.st2{font-size:5px;}
</style>
  <style
     type="text/css"
     id="style3497">
	.st0{display:none;enable-background:new    ;}
	.st1{font-family:'Arial-BoldMT';}
	.st2{font-size:5px;}
</style>
  <style
     type="text/css"
     id="style3526">
	.st0{display:none;enable-background:new    ;}
	.st1{font-family:'Arial-BoldMT';}
	.st2{font-size:5px;}
</style>
</svg>
