<?xml version="1.0" encoding="UTF-8" standalone="no"?>
<svg
   xmlns:dc="http://purl.org/dc/elements/1.1/"
   xmlns:cc="http://creativecommons.org/ns#"
   xmlns:rdf="http://www.w3.org/1999/02/22-rdf-syntax-ns#"
   xmlns:svg="http://www.w3.org/2000/svg"
   xmlns="http://www.w3.org/2000/svg"
   version="1.1"
   id="svg2"
   viewBox="0 0 161.09998 124.4"
   height="35.108444mm"
   width="45.465996mm">
  <defs
     id="defs4" />
  <metadata
     id="metadata7">
    <rdf:RDF>
      <cc:Work
         rdf:about="">
        <dc:format>image/svg+xml</dc:format>
        <dc:type
           rdf:resource="http://purl.org/dc/dcmitype/StillImage" />
        <dc:title></dc:title>
      </cc:Work>
    </rdf:RDF>
  </metadata>
  <g
     transform="translate(-425.53334,-283.7124)"
     id="layer1">
    <g
       transform="translate(392.63334,230.8124)"
       id="g3589">
      <path
         d="m 98.6,101.5 c -1.8,0 -3.5,-0.4 -5,-1.2 0.1,0.6 0.2,1.2 0.3,1.8 1.8,7.4 8.6,13.2 8.7,13.2 l -5.1,6.2 C 97.1,121.2 88.6,114.1 86.1,104 83.7,94.4 88,86.9 88.9,85.4 c 1.8,-3.4 5.5,-5.7 9.6,-5.7 6,0 10.9,4.9 10.9,10.9 0,6 -4.7,10.9 -10.8,10.9 z m 42.7,-11 c 0,-6 -4.9,-10.9 -10.9,-10.9 -4.1,0 -7.8,2.3 -9.6,5.7 -0.9,1.4 -5.2,8.9 -2.8,18.6 2.5,10 11,17.2 11.4,17.5 l 5.1,-6.2 c -0.1,-0.1 -6.9,-5.8 -8.7,-13.2 -0.1,-0.6 -0.2,-1.2 -0.3,-1.8 1.5,0.8 3.2,1.2 5,1.2 5.9,0.1 10.8,-4.8 10.8,-10.9 z m 31.5,86.8 -28.6,-22.3 -96,0 c -8.5,0 -15.3,-6.9 -15.3,-15.3 l 0,-71.5 c 0,-8.5 6.9,-15.3 15.3,-15.3 l 130.5,0 c 8.5,0 15.3,6.9 15.3,15.3 l 0,71.4 c 0,8.5 -6.9,15.3 -15.3,15.3 l -5.8,0 -0.1,22.4 z M 48.2,60.9 c -4,0 -7.3,3.3 -7.3,7.3 l 0,71.4 c 0,4 3.3,7.3 7.3,7.3 l 100.4,0 16.1,12.2 0,-12.2 13.9,0 c 4,0 7.3,-3.3 7.3,-7.3 l 0,-71.4 c 0,-4 -3.3,-7.3 -7.3,-7.3 0,0 -130.4,0 -130.4,0 z"
         id="path3576" />
      <text
         style="font-size:5px;font-family:Arial-BoldMT;display:none;enable-background:new"
         transform="translate(0,241.8)"
         class="st0 st1 st2"
         id="text3578">Created by dilayorganci</text>
      <text
         style="font-size:5px;font-family:Arial-BoldMT;display:none;enable-background:new"
         transform="translate(0,246.8)"
         class="st0 st1 st2"
         id="text3580">from the Noun Project</text>
    </g>
  </g>
  <style
     type="text/css"
     id="style3461">
	.st0{display:none;enable-background:new    ;}
	.st1{font-family:'Arial-BoldMT';}
	.st2{font-size:5px;}
</style>
  <style
     type="text/css"
     id="style3497">
	.st0{display:none;enable-background:new    ;}
	.st1{font-family:'Arial-BoldMT';}
	.st2{font-size:5px;}
</style>
  <style
     type="text/css"
     id="style3526">
	.st0{display:none;enable-background:new    ;}
	.st1{font-family:'Arial-BoldMT';}
	.st2{font-size:5px;}
</style>
  <style
     type="text/css"
     id="style3550">
	.st0{display:none;enable-background:new    ;}
	.st1{font-family:'Arial-BoldMT';}
	.st2{font-size:5px;}
</style>
  <style
     type="text/css"
     id="style3574">
	.st0{display:none;enable-background:new    ;}
	.st1{font-family:'Arial-BoldMT';}
	.st2{font-size:5px;}
</style>
</svg>
