<?xml version="1.0" encoding="UTF-8" standalone="no"?>
<svg
   xmlns:dc="http://purl.org/dc/elements/1.1/"
   xmlns:cc="http://creativecommons.org/ns#"
   xmlns:rdf="http://www.w3.org/1999/02/22-rdf-syntax-ns#"
   xmlns:svg="http://www.w3.org/2000/svg"
   xmlns="http://www.w3.org/2000/svg"
   version="1.1"
   id="svg2"
   viewBox="0 0 57.999998 31.999999"
   height="9.0311108mm"
   width="16.368889mm">
  <defs
     id="defs4" />
  <metadata
     id="metadata7">
    <rdf:RDF>
      <cc:Work
         rdf:about="">
        <dc:format>image/svg+xml</dc:format>
        <dc:type
           rdf:resource="http://purl.org/dc/dcmitype/StillImage" />
        <dc:title></dc:title>
      </cc:Work>
    </rdf:RDF>
  </metadata>
  <g
     transform="translate(-453.98873,-317.15278)"
     id="layer1">
    <g
       transform="translate(437.47613,301.09388)"
       id="g3684">
      <g
         transform="translate(7.5125968,-17.941102)"
         id="g3787">
        <g
           id="g3729">
          <path
             style="fill:#000000"
             d="m 65,66 -54,0 0,-28 54,0 0,28 z m -52,-2 50,0 0,-24 -50,0 0,24 z"
             id="path3731" />
        </g>
        <g
           id="g3733">
          <path
             style="fill:#000000"
             d="m 44,66 -12,0 0,-16 12,0 0,16 z m -10,-2 8,0 0,-12 -8,0 0,12 z"
             id="path3735" />
        </g>
        <g
           id="g3737">
          <path
             style="fill:#000000"
             d="m 28,56 -10,0 0,-11 10,0 0,11 z m -8,-2 6,0 0,-7 -6,0 0,7 z"
             id="path3739" />
        </g>
        <g
           id="g3741">
          <rect
             style="fill:#000000"
             x="22"
             y="47"
             width="2"
             height="7"
             id="rect3743" />
        </g>
        <g
           id="g3745">
          <path
             style="fill:#000000"
             d="m 58,56 -10,0 0,-11 10,0 0,11 z m -8,-2 6,0 0,-7 -6,0 0,7 z"
             id="path3747" />
        </g>
        <g
           id="g3749">
          <rect
             style="fill:#000000"
             x="52"
             y="47"
             width="2"
             height="7"
             id="rect3751" />
        </g>
        <g
           id="g3753">
          <rect
             style="fill:#000000"
             x="12"
             y="60"
             width="21"
             height="2"
             id="rect3755" />
        </g>
        <g
           id="g3757">
          <rect
             style="fill:#000000"
             x="43"
             y="60"
             width="21"
             height="2"
             id="rect3759" />
        </g>
        <g
           id="g3761">
          <rect
             style="fill:#000000"
             x="37"
             y="42"
             width="2"
             height="3"
             id="rect3763" />
        </g>
        <g
           id="g3765">
          <path
             style="fill:#000000"
             d="m 42.6,48 -9.2,0 2,-4 5.2,0 2,4 z m -6,-2 2.8,0 -2.8,0 z"
             id="path3767" />
        </g>
        <g
           id="g3769">
          <rect
             style="fill:#000000"
             x="39"
             y="57"
             width="2"
             height="2"
             id="rect3771" />
        </g>
        <g
           id="g3773">
          <path
             style="fill:#000000"
             d="m 67,40 -58,0 0,-6 58,0 0,6 z m -56,-2 54,0 0,-2 -54,0 0,2 z"
             id="path3775" />
        </g>
      </g>
    </g>
  </g>
  <style
     type="text/css"
     id="style3461">
	.st0{display:none;enable-background:new    ;}
	.st1{font-family:'Arial-BoldMT';}
	.st2{font-size:5px;}
</style>
  <style
     type="text/css"
     id="style3497">
	.st0{display:none;enable-background:new    ;}
	.st1{font-family:'Arial-BoldMT';}
	.st2{font-size:5px;}
</style>
  <style
     type="text/css"
     id="style3526">
	.st0{display:none;enable-background:new    ;}
	.st1{font-family:'Arial-BoldMT';}
	.st2{font-size:5px;}
</style>
  <style
     type="text/css"
     id="style3550">
	.st0{display:none;enable-background:new    ;}
	.st1{font-family:'Arial-BoldMT';}
	.st2{font-size:5px;}
</style>
  <style
     type="text/css"
     id="style3574">
	.st0{display:none;enable-background:new    ;}
	.st1{font-family:'Arial-BoldMT';}
	.st2{font-size:5px;}
</style>
</svg>
