<?xml version="1.0" encoding="UTF-8" standalone="no"?>
<svg
   xmlns:dc="http://purl.org/dc/elements/1.1/"
   xmlns:cc="http://creativecommons.org/ns#"
   xmlns:rdf="http://www.w3.org/1999/02/22-rdf-syntax-ns#"
   xmlns:svg="http://www.w3.org/2000/svg"
   xmlns="http://www.w3.org/2000/svg"
   version="1.1"
   id="svg2"
   viewBox="0 0 76.558998 87.136998"
   height="24.591997mm"
   width="21.606651mm">
  <defs
     id="defs4" />
  <metadata
     id="metadata7">
    <rdf:RDF>
      <cc:Work
         rdf:about="">
        <dc:format>image/svg+xml</dc:format>
        <dc:type
           rdf:resource="http://purl.org/dc/dcmitype/StillImage" />
        <dc:title></dc:title>
      </cc:Work>
    </rdf:RDF>
  </metadata>
  <g
     transform="translate(-454.8373,-295.00095)"
     id="layer1">
    <g
       transform="translate(437.47613,301.09388)"
       id="g3684">
      <g
         transform="translate(5.6401637,-12.803925)"
         id="g3951">
        <g
           id="g3905">
          <polygon
             points="25.734,14.891 27.492,15.912 29.146,16.888 28.749,15.009 28.352,13.13 28.354,13.128 28.355,13.13 29.735,11.795 31.116,10.46 29.199,10.343 27.282,10.225 26.508,8.468 25.734,6.711 24.96,8.468 24.186,10.225 24.179,10.245 24.179,10.245 24.186,10.225 22.27,10.343 20.353,10.46 21.734,11.795 23.114,13.13 23.115,13.127 23.118,13.13 22.721,15.009 22.324,16.888 23.978,15.912 "
             id="polygon3907" />
          <polygon
             points="37.827,14.891 39.585,15.912 41.239,16.888 40.842,15.009 40.445,13.13 40.447,13.128 40.448,13.13 41.828,11.795 43.209,10.46 41.292,10.343 39.375,10.225 38.601,8.468 37.827,6.711 37.053,8.468 36.279,10.225 36.272,10.245 36.272,10.245 36.279,10.225 34.363,10.343 32.446,10.46 33.827,11.795 35.207,13.13 35.208,13.127 35.211,13.13 34.814,15.009 34.417,16.888 36.071,15.912 "
             id="polygon3909" />
          <polygon
             points="49.92,14.891 51.678,15.912 53.332,16.888 52.935,15.009 52.538,13.13 52.54,13.128 52.541,13.13 53.921,11.795 55.302,10.46 53.385,10.343 51.468,10.225 50.694,8.468 49.92,6.711 49.146,8.468 48.372,10.225 48.365,10.245 48.365,10.245 48.372,10.225 46.456,10.343 44.539,10.46 45.92,11.795 47.3,13.13 47.301,13.127 47.304,13.13 46.907,15.009 46.51,16.888 48.164,15.912 "
             id="polygon3911" />
          <polygon
             points="62.173,14.891 63.93,15.912 65.584,16.888 65.187,15.009 64.79,13.13 64.792,13.128 64.793,13.13 66.173,11.795 67.554,10.46 65.637,10.343 63.721,10.225 62.947,8.468 62.173,6.711 61.399,8.468 60.625,10.225 60.617,10.245 60.617,10.245 60.625,10.225 58.708,10.343 56.791,10.46 58.172,11.795 59.552,13.13 59.553,13.127 59.556,13.13 59.159,15.009 58.762,16.888 60.416,15.912 "
             id="polygon3913" />
          <polygon
             points="74.266,14.891 76.023,15.912 77.677,16.888 77.28,15.009 76.883,13.13 76.885,13.128 76.886,13.13 78.266,11.795 79.647,10.46 77.73,10.343 75.814,10.225 75.04,8.468 74.266,6.711 73.492,8.468 72.718,10.225 70.801,10.343 68.884,10.46 70.265,11.795 71.645,13.13 71.646,13.127 71.649,13.13 71.252,15.009 70.855,16.888 72.509,15.912 "
             id="polygon3915" />
          <path
             d="m 86.779,24.859 -2.524,0 0,-4.913 c 0,-0.829 -0.672,-1.5 -1.5,-1.5 l -65.51,0 c -0.829,0 -1.5,0.671 -1.5,1.5 l 0,4.913 -2.524,0 c -0.829,0 -1.5,0.671 -1.5,1.5 l 0,65.989 c 0,0.828 0.671,1.5 1.5,1.5 l 31.342,0 10.874,0 31.343,0 c 0.828,0 1.5,-0.672 1.5,-1.5 l 0,-65.989 c -0.001,-0.829 -0.673,-1.5 -1.501,-1.5 z m -68.034,-3.413 62.51,0 0,3.413 -62.51,0 0,-3.413 z m 35.192,69.402 -7.874,0 0,-16.044 7.874,0 0,16.044 z m 31.342,0 -28.342,0 0,-17.544 c 0,-0.828 -0.672,-1.5 -1.5,-1.5 l -10.874,0 c -0.829,0 -1.5,0.672 -1.5,1.5 l 0,17.544 -28.342,0 0,-62.989 2.039,0 c 0.153,0.053 0.315,0.087 0.486,0.087 l 65.51,0 c 0.171,0 0.333,-0.035 0.486,-0.087 l 2.039,0 0,62.989 z"
             id="path3917" />
          <path
             d="m 33.867,31.596 -10.874,0 c -0.829,0 -1.5,0.671 -1.5,1.5 l 0,7.044 c 0,0.829 0.671,1.5 1.5,1.5 l 10.874,0 c 0.829,0 1.5,-0.671 1.5,-1.5 l 0,-7.044 c 0,-0.829 -0.672,-1.5 -1.5,-1.5 z m -1.5,7.044 -7.874,0 0,-4.044 7.874,0 0,4.044 z"
             id="path3919" />
          <path
             d="m 55.437,31.596 -10.874,0 c -0.829,0 -1.5,0.671 -1.5,1.5 l 0,7.044 c 0,0.829 0.671,1.5 1.5,1.5 l 10.874,0 c 0.828,0 1.5,-0.671 1.5,-1.5 l 0,-7.044 c 0,-0.829 -0.672,-1.5 -1.5,-1.5 z m -1.5,7.044 -7.874,0 0,-4.044 7.874,0 0,4.044 z"
             id="path3921" />
          <path
             d="m 77.008,31.596 -10.874,0 c -0.828,0 -1.5,0.671 -1.5,1.5 l 0,7.044 c 0,0.829 0.672,1.5 1.5,1.5 l 10.874,0 c 0.828,0 1.5,-0.671 1.5,-1.5 l 0,-7.044 c 0,-0.829 -0.672,-1.5 -1.5,-1.5 z m -1.5,7.044 -7.874,0 0,-4.044 7.874,0 0,4.044 z"
             id="path3923" />
          <path
             d="m 33.867,44.999 -10.874,0 c -0.829,0 -1.5,0.671 -1.5,1.5 l 0,7.044 c 0,0.828 0.671,1.5 1.5,1.5 l 10.874,0 c 0.829,0 1.5,-0.672 1.5,-1.5 l 0,-7.044 c 0,-0.829 -0.672,-1.5 -1.5,-1.5 z m -1.5,7.044 -7.874,0 0,-4.044 7.874,0 0,4.044 z"
             id="path3925" />
          <path
             d="m 55.437,44.999 -10.874,0 c -0.829,0 -1.5,0.671 -1.5,1.5 l 0,7.044 c 0,0.828 0.671,1.5 1.5,1.5 l 10.874,0 c 0.828,0 1.5,-0.672 1.5,-1.5 l 0,-7.044 c 0,-0.829 -0.672,-1.5 -1.5,-1.5 z m -1.5,7.044 -7.874,0 0,-4.044 7.874,0 0,4.044 z"
             id="path3927" />
          <path
             d="m 77.008,44.999 -10.874,0 c -0.828,0 -1.5,0.671 -1.5,1.5 l 0,7.044 c 0,0.828 0.672,1.5 1.5,1.5 l 10.874,0 c 0.828,0 1.5,-0.672 1.5,-1.5 l 0,-7.044 c 0,-0.829 -0.672,-1.5 -1.5,-1.5 z m -1.5,7.044 -7.874,0 0,-4.044 7.874,0 0,4.044 z"
             id="path3929" />
          <path
             d="m 33.867,58.401 -10.874,0 c -0.829,0 -1.5,0.672 -1.5,1.5 l 0,7.045 c 0,0.828 0.671,1.5 1.5,1.5 l 10.874,0 c 0.829,0 1.5,-0.672 1.5,-1.5 l 0,-7.045 c 0,-0.828 -0.672,-1.5 -1.5,-1.5 z m -1.5,7.045 -7.874,0 0,-4.045 7.874,0 0,4.045 z"
             id="path3931" />
          <path
             d="m 55.437,58.401 -10.874,0 c -0.829,0 -1.5,0.672 -1.5,1.5 l 0,7.045 c 0,0.828 0.671,1.5 1.5,1.5 l 10.874,0 c 0.828,0 1.5,-0.672 1.5,-1.5 l 0,-7.045 c 0,-0.828 -0.672,-1.5 -1.5,-1.5 z m -1.5,7.045 -7.874,0 0,-4.045 7.874,0 0,4.045 z"
             id="path3933" />
          <path
             d="m 77.008,58.401 -10.874,0 c -0.828,0 -1.5,0.672 -1.5,1.5 l 0,7.045 c 0,0.828 0.672,1.5 1.5,1.5 l 10.874,0 c 0.828,0 1.5,-0.672 1.5,-1.5 l 0,-7.045 c 0,-0.828 -0.672,-1.5 -1.5,-1.5 z m -1.5,7.045 -7.874,0 0,-4.045 7.874,0 0,4.045 z"
             id="path3935" />
          <path
             d="m 33.867,71.804 -10.874,0 c -0.829,0 -1.5,0.672 -1.5,1.5 l 0,7.045 c 0,0.828 0.671,1.5 1.5,1.5 l 10.874,0 c 0.829,0 1.5,-0.672 1.5,-1.5 l 0,-7.045 c 0,-0.828 -0.672,-1.5 -1.5,-1.5 z m -1.5,7.045 -7.874,0 0,-4.045 7.874,0 0,4.045 z"
             id="path3937" />
          <path
             d="m 77.008,71.804 -10.874,0 c -0.828,0 -1.5,0.672 -1.5,1.5 l 0,7.045 c 0,0.828 0.672,1.5 1.5,1.5 l 10.874,0 c 0.828,0 1.5,-0.672 1.5,-1.5 l 0,-7.045 c 0,-0.828 -0.672,-1.5 -1.5,-1.5 z m -1.5,7.045 -7.874,0 0,-4.045 7.874,0 0,4.045 z"
             id="path3939" />
        </g>
      </g>
    </g>
  </g>
  <style
     type="text/css"
     id="style3461">
	.st0{display:none;enable-background:new    ;}
	.st1{font-family:'Arial-BoldMT';}
	.st2{font-size:5px;}
</style>
  <style
     type="text/css"
     id="style3497">
	.st0{display:none;enable-background:new    ;}
	.st1{font-family:'Arial-BoldMT';}
	.st2{font-size:5px;}
</style>
  <style
     type="text/css"
     id="style3526">
	.st0{display:none;enable-background:new    ;}
	.st1{font-family:'Arial-BoldMT';}
	.st2{font-size:5px;}
</style>
  <style
     type="text/css"
     id="style3550">
	.st0{display:none;enable-background:new    ;}
	.st1{font-family:'Arial-BoldMT';}
	.st2{font-size:5px;}
</style>
  <style
     type="text/css"
     id="style3574">
	.st0{display:none;enable-background:new    ;}
	.st1{font-family:'Arial-BoldMT';}
	.st2{font-size:5px;}
</style>
</svg>
