<?xml version="1.0" encoding="UTF-8" standalone="no"?>
<!-- Created with Inkscape (http://www.inkscape.org/) -->

<svg
   xmlns:dc="http://purl.org/dc/elements/1.1/"
   xmlns:cc="http://creativecommons.org/ns#"
   xmlns:rdf="http://www.w3.org/1999/02/22-rdf-syntax-ns#"
   xmlns:svg="http://www.w3.org/2000/svg"
   xmlns="http://www.w3.org/2000/svg"
   xmlns:sodipodi="http://sodipodi.sourceforge.net/DTD/sodipodi-0.dtd"
   xmlns:inkscape="http://www.inkscape.org/namespaces/inkscape"
   width="16.368889mm"
   height="14.393333mm"
   viewBox="0 0 57.999998 51.000001"
   id="svg2"
   version="1.1"
   inkscape:version="0.91 r13725"
   sodipodi:docname="hotel-2.svg">
  <defs
     id="defs4" />
  <sodipodi:namedview
     id="base"
     pagecolor="#ffffff"
     bordercolor="#666666"
     borderopacity="1.0"
     inkscape:pageopacity="0.0"
     inkscape:pageshadow="2"
     inkscape:zoom="3.959798"
     inkscape:cx="1.734551"
     inkscape:cy="23.322972"
     inkscape:document-units="px"
     inkscape:current-layer="g3684"
     showgrid="false"
     fit-margin-top="0"
     fit-margin-left="0"
     fit-margin-right="0"
     fit-margin-bottom="0"
     inkscape:window-width="1920"
     inkscape:window-height="1018"
     inkscape:window-x="-8"
     inkscape:window-y="-8"
     inkscape:window-maximized="1" />
  <metadata
     id="metadata7">
    <rdf:RDF>
      <cc:Work
         rdf:about="">
        <dc:format>image/svg+xml</dc:format>
        <dc:type
           rdf:resource="http://purl.org/dc/dcmitype/StillImage" />
        <dc:title></dc:title>
      </cc:Work>
    </rdf:RDF>
  </metadata>
  <g
     inkscape:label="Layer 1"
     inkscape:groupmode="layer"
     id="layer1"
     transform="translate(-449.47614,-316.09388)">
    <g
       id="g3684"
       transform="translate(437.47613,301.09388)">
      <g
         id="g3596">
        <g
           id="g3598">
          <path
             id="path3600"
             d="m 68,66 -54,0 0,-47 54,0 0,47 z m -52,-2 50,0 0,-43 -50,0 0,43 z"
             inkscape:connector-curvature="0"
             style="fill:#000000" />
        </g>
        <g
           id="g3602">
          <path
             id="path3604"
             d="m 47,66 -12,0 0,-16 12,0 0,16 z m -10,-2 8,0 0,-12 -8,0 0,12 z"
             inkscape:connector-curvature="0"
             style="fill:#000000" />
        </g>
        <g
           id="g3606">
          <rect
             id="rect3608"
             height="2"
             width="52"
             y="38"
             x="15"
             style="fill:#000000" />
        </g>
        <g
           id="g3610">
          <path
             id="path3612"
             d="m 31,35 -10,0 0,-11 10,0 0,11 z m -8,-2 6,0 0,-7 -6,0 0,7 z"
             inkscape:connector-curvature="0"
             style="fill:#000000" />
        </g>
        <g
           id="g3614">
          <rect
             id="rect3616"
             height="7"
             width="2"
             y="26"
             x="25"
             style="fill:#000000" />
        </g>
        <g
           id="g3618">
          <path
             id="path3620"
             d="m 46,35 -10,0 0,-11 10,0 0,11 z m -8,-2 6,0 0,-7 -6,0 0,7 z"
             inkscape:connector-curvature="0"
             style="fill:#000000" />
        </g>
        <g
           id="g3622">
          <rect
             id="rect3624"
             height="7"
             width="2"
             y="26"
             x="40"
             style="fill:#000000" />
        </g>
        <g
           id="g3626">
          <path
             id="path3628"
             d="m 61,35 -10,0 0,-11 10,0 0,11 z m -8,-2 6,0 0,-7 -6,0 0,7 z"
             inkscape:connector-curvature="0"
             style="fill:#000000" />
        </g>
        <g
           id="g3630">
          <rect
             id="rect3632"
             height="7"
             width="2"
             y="26"
             x="55"
             style="fill:#000000" />
        </g>
        <g
           id="g3634">
          <path
             id="path3636"
             d="m 31,56 -10,0 0,-11 10,0 0,11 z m -8,-2 6,0 0,-7 -6,0 0,7 z"
             inkscape:connector-curvature="0"
             style="fill:#000000" />
        </g>
        <g
           id="g3638">
          <rect
             id="rect3640"
             height="7"
             width="2"
             y="47"
             x="25"
             style="fill:#000000" />
        </g>
        <g
           id="g3642">
          <path
             id="path3644"
             d="m 61,56 -10,0 0,-11 10,0 0,11 z m -8,-2 6,0 0,-7 -6,0 0,7 z"
             inkscape:connector-curvature="0"
             style="fill:#000000" />
        </g>
        <g
           id="g3646">
          <rect
             id="rect3648"
             height="7"
             width="2"
             y="47"
             x="55"
             style="fill:#000000" />
        </g>
        <g
           id="g3650">
          <rect
             id="rect3652"
             height="2"
             width="21"
             y="60"
             x="15"
             style="fill:#000000" />
        </g>
        <g
           id="g3654">
          <rect
             id="rect3656"
             height="2"
             width="21"
             y="60"
             x="46"
             style="fill:#000000" />
        </g>
        <g
           id="g3658">
          <rect
             id="rect3660"
             height="3"
             width="2"
             y="42"
             x="40"
             style="fill:#000000" />
        </g>
        <g
           id="g3662">
          <path
             id="path3664"
             d="m 45.6,48 -9.2,0 2,-4 5.2,0 2,4 z m -6,-2 2.8,0 -2.8,0 z"
             inkscape:connector-curvature="0"
             style="fill:#000000" />
        </g>
        <g
           id="g3666">
          <rect
             id="rect3668"
             height="2"
             width="2"
             y="57"
             x="42"
             style="fill:#000000" />
        </g>
        <g
           id="g3670">
          <path
             id="path3672"
             d="m 70,21 -58,0 0,-6 58,0 0,6 z m -56,-2 54,0 0,-2 -54,0 0,2 z"
             inkscape:connector-curvature="0"
             style="fill:#000000" />
        </g>
      </g>
    </g>
  </g>
  <style
     id="style3461"
     type="text/css">
	.st0{display:none;enable-background:new    ;}
	.st1{font-family:'Arial-BoldMT';}
	.st2{font-size:5px;}
</style>
  <style
     id="style3497"
     type="text/css">
	.st0{display:none;enable-background:new    ;}
	.st1{font-family:'Arial-BoldMT';}
	.st2{font-size:5px;}
</style>
  <style
     id="style3526"
     type="text/css">
	.st0{display:none;enable-background:new    ;}
	.st1{font-family:'Arial-BoldMT';}
	.st2{font-size:5px;}
</style>
  <style
     id="style3550"
     type="text/css">
	.st0{display:none;enable-background:new    ;}
	.st1{font-family:'Arial-BoldMT';}
	.st2{font-size:5px;}
</style>
  <style
     id="style3574"
     type="text/css">
	.st0{display:none;enable-background:new    ;}
	.st1{font-family:'Arial-BoldMT';}
	.st2{font-size:5px;}
</style>
</svg>
