<svg xmlns="http://www.w3.org/2000/svg" xmlns:xlink="http://www.w3.org/1999/xlink" version="1.1" x="0px" y="0px" viewBox="0 0 71.1 66.7" enable-background="new 0 0 71.1 66.7" xml:space="preserve"><path d="M64.8,6.7c-0.1-0.1-0.1-0.1-0.2-0.2C56-2.2,42-2.2,33.4,6.5c-6.6,6.6-8.2,16.4-4.6,24.5l-28,28L0,66.7h12.3v-5.4l5.4,0v-3.5  l7.3,0l0-5.4h5.4l0-5.4l5.4,0v-2.5l8.2,0l0-1c7.2,1.7,15.1-0.3,20.7-5.9C73.2,29.2,73.3,15.3,64.8,6.7L64.8,6.7L64.8,6.7z   M60.7,20.7c-2.9,2.9-7.5,2.9-10.3,0s-2.9-7.5,0-10.3s7.5-2.9,10.3,0C63.6,13.2,63.6,17.8,60.7,20.7z"></path></svg>