<?xml version="1.0" encoding="UTF-8" standalone="no"?>
<svg
   xmlns:dc="http://purl.org/dc/elements/1.1/"
   xmlns:cc="http://creativecommons.org/ns#"
   xmlns:rdf="http://www.w3.org/1999/02/22-rdf-syntax-ns#"
   xmlns:svg="http://www.w3.org/2000/svg"
   xmlns="http://www.w3.org/2000/svg"
   version="1.1"
   id="svg2"
   viewBox="0 0 86.645181 85.175002"
   height="24.038279mm"
   width="24.453196mm">
  <defs
     id="defs4" />
  <metadata
     id="metadata7">
    <rdf:RDF>
      <cc:Work
         rdf:about="">
        <dc:format>image/svg+xml</dc:format>
        <dc:type
           rdf:resource="http://purl.org/dc/dcmitype/StillImage" />
        <dc:title></dc:title>
      </cc:Work>
    </rdf:RDF>
  </metadata>
  <g
     transform="translate(-449.88604,-355.52458)"
     id="layer1">
    <g
       transform="translate(440.55304,348.14758)"
       id="g3387">
      <g
         id="g3349">
        <path
           style="fill:#000000"
           d="M 13,85.667 9.333,50 c 0,0 15.667,-4.333 20.5,0 l 0,35.667 c 0,0 -9.833,3.5 -16.833,0 z"
           id="path3351" />
      </g>
      <g
         id="g3353">
        <path
           style="fill:#000000"
           d="m 33.833,83 0,-32.167 c 0,0 0.167,-7.834 15.333,-17.667 0,0 14.333,-11.933 13.5,-25.133 0,0 8.833,-1.867 11,7.3 0,0 1.833,13.167 -4,19.167 0,0 -3.499,3.333 -3.333,5.833 0,0 0.167,4 4.5,2.167 0,0 19.979,-3.625 23.666,4.667 0,0 2.188,3.396 0,9.333 0,0 -4.563,4.827 -21.188,2 0,0 -12.188,-2.563 -1.646,-7 0,0 9.333,-2.938 16.167,-0.5 0,0 -2,-6.167 -19.167,-2.167 0,0 -5.835,0.333 -3.834,9.5 0,0 -1.875,0.854 -2.708,4.854 0,0 -1.625,5.479 1.542,7.646 0,0 -4.333,5.167 -1.5,10.667 0,0 -4.167,6.167 -2.5,9.5 0,0 -6.334,-0.721 -13.667,-3.777 C 46,87.223 36.833,82.334 33.833,83 Z"
           id="path3355" />
        <path
           style="fill:#000000"
           d="M 60.526,91.601 59.61,91.497 C 59.547,91.489 53.121,90.732 45.807,87.684 45.685,87.621 37.8,83.437 34.478,83.437 c -0.205,0 -0.386,0.018 -0.537,0.051 l -0.608,0.135 0,-32.79 C 33.34,50.492 33.68,42.61 48.895,32.747 48.988,32.664 62.976,20.855 62.168,8.065 L 62.141,7.633 62.564,7.544 c 0.032,-0.007 0.805,-0.167 1.948,-0.167 2.908,0 8.029,1.019 9.642,7.841 0.085,0.594 1.808,13.525 -4.128,19.631 -0.939,0.896 -3.315,3.595 -3.192,5.451 0.012,0.233 0.158,2.181 1.986,2.181 0.516,0 1.128,-0.148 1.819,-0.441 l 0.106,-0.032 c 0.044,-0.008 4.449,-0.797 9.45,-0.797 7.983,0 13.088,1.989 14.762,5.752 0.059,0.08 2.26,3.608 0.012,9.709 l -0.105,0.171 c -0.117,0.124 -2.983,3.044 -12.023,3.044 -2.884,0 -6.118,-0.301 -9.611,-0.895 -0.642,-0.135 -6.109,-1.354 -6.347,-3.835 -0.136,-1.414 1.366,-2.762 4.591,-4.119 0.237,-0.077 4.839,-1.506 10.003,-1.506 1.849,0 3.541,0.187 5.052,0.557 -1.029,-0.921 -3.235,-2.106 -7.784,-2.106 -2.805,0 -6.157,0.45 -9.963,1.336 -0.147,0.017 -1.686,0.135 -2.78,1.59 -1.17,1.557 -1.398,4.018 -0.679,7.317 l 0.086,0.395 -0.367,0.167 c -0.01,0.005 -1.666,0.853 -2.426,4.501 -0.025,0.092 -1.491,5.197 1.335,7.131 l 0.454,0.312 -0.353,0.423 c -0.041,0.049 -4.082,4.985 -1.439,10.117 l 0.136,0.263 -0.166,0.246 c -0.04,0.059 -3.983,5.964 -2.467,8.996 l 0.41,0.824 z M 34.479,82.438 c 3.571,0 11.424,4.167 11.757,4.344 5.647,2.353 10.76,3.308 12.682,3.607 -0.786,-3.22 1.959,-7.802 2.675,-8.923 -2.25,-4.719 0.428,-9.184 1.381,-10.538 -2.881,-2.498 -1.395,-7.654 -1.327,-7.883 0.657,-3.163 1.989,-4.481 2.627,-4.948 -0.696,-3.44 -0.379,-6.066 0.943,-7.808 1.381,-1.819 3.34,-1.951 3.423,-1.955 3.795,-0.892 7.224,-1.351 10.104,-1.351 8.218,0 9.516,3.705 9.566,3.862 l 0.313,0.967 -0.957,-0.342 c -1.745,-0.623 -3.828,-0.938 -6.19,-0.938 -5.012,0 -9.612,1.43 -9.658,1.444 -3.537,1.491 -3.989,2.575 -3.94,3.087 0.127,1.323 3.464,2.51 5.538,2.947 3.42,0.581 6.597,0.877 9.425,0.877 7.812,0 10.765,-2.265 11.231,-2.672 1.997,-5.533 0.027,-8.748 0.007,-8.78 -1.931,-4.33 -8.612,-5.225 -13.883,-5.225 -4.619,0 -8.712,0.684 -9.22,0.772 -0.795,0.331 -1.521,0.498 -2.156,0.498 -2.258,0 -2.939,-2.045 -2.985,-3.127 -0.179,-2.69 3.338,-6.073 3.488,-6.216 5.58,-5.74 3.867,-18.607 3.85,-18.736 -1.446,-6.106 -6.047,-7.025 -8.66,-7.025 -0.555,0 -1.015,0.042 -1.322,0.081 0.5,13.112 -13.116,24.605 -13.703,25.093 -14.747,9.565 -15.151,17.22 -15.153,17.296 l 0,31.594 c 0.046,-0.002 0.095,-0.002 0.144,-0.002 z"
           id="path3357" />
      </g>
      <g
         id="g3359">
        <path
           style="fill:#000000"
           d="m 66.167,63 c 0,0 -1.999,6.332 3.167,7.166 0,0 16.416,0.092 20.166,-0.833 0,0 4.688,-1.208 2.5,-7 0,0 -0.334,-0.833 -3.5,0 0,0 -11,0.427 -16.5,-0.37 0,0 -5.463,-1.976 -5.833,1.037 z"
           id="path3361" />
        <path
           style="fill:#000000"
           d="m 70.553,70.669 -1.222,-0.003 c -1.543,-0.243 -2.625,-0.912 -3.293,-1.995 -1.429,-2.318 -0.393,-5.68 -0.348,-5.821 0.077,-0.699 0.594,-2.022 2.962,-2.022 1.524,0 3.157,0.54 3.468,0.647 2.165,0.31 5.564,0.473 9.836,0.473 3.287,0 6.054,-0.097 6.471,-0.112 0.951,-0.247 1.755,-0.372 2.388,-0.372 1.241,0 1.567,0.479 1.649,0.684 0.795,2.104 0.823,3.886 0.088,5.303 -0.956,1.842 -2.847,2.348 -2.927,2.368 -3.116,0.767 -14.376,0.85 -19.072,0.85 z m -1.901,-8.842 c -1.838,0 -1.947,0.896 -1.989,1.233 -0.028,0.12 -0.962,3.162 0.228,5.088 0.509,0.823 1.357,1.336 2.523,1.524 l 1.139,-0.004 c 3.636,0 15.738,-0.06 18.827,-0.821 0.009,-0.003 1.547,-0.425 2.29,-1.87 0.584,-1.136 0.548,-2.611 -0.107,-4.388 -0.064,-0.038 -0.266,-0.127 -0.748,-0.127 -0.56,0 -1.295,0.119 -2.188,0.354 l -0.107,0.017 c -0.029,0.001 -2.993,0.114 -6.563,0.114 -4.412,0 -7.786,-0.165 -10.027,-0.489 l -0.099,-0.024 c -0.018,-0.007 -1.699,-0.607 -3.179,-0.607 z"
           id="path3363" />
      </g>
      <g
         id="g3365">
        <path
           style="fill:#000000"
           d="m 67.75,81.084 c 0,0 -7.543,-3.67 0,-7.25 l 21.5,-0.584 c 0,0 3.167,4.835 -3.833,7.834 l -17.667,0 z"
           id="path3367" />
        <path
           style="fill:#000000"
           d="m 85.52,81.584 -17.885,0 -0.104,-0.051 c -0.148,-0.072 -3.646,-1.802 -3.634,-4.241 0.007,-1.452 1.231,-2.768 3.638,-3.91 l 0.201,-0.048 21.779,-0.592 0.152,0.233 c 0.053,0.08 1.271,1.979 0.592,4.229 -0.54,1.79 -2.103,3.25 -4.646,4.34 l -0.093,0.04 z m -17.652,-1 17.445,0 c 2.197,-0.959 3.538,-2.189 3.986,-3.657 0.425,-1.393 -0.083,-2.66 -0.339,-3.169 l -21.09,0.573 c -1.94,0.938 -2.968,1.962 -2.973,2.966 -0.006,1.453 2.053,2.815 2.971,3.287 z"
           id="path3369" />
      </g>
      <g
         id="g3371">
        <path
           style="fill:#000000"
           d="m 65.786,84.917 c 0,0 -5.287,0.416 -0.953,5.583 0,0 1.645,1.175 7.979,1.52 1.938,0.105 5.813,-0.082 5.813,-0.082 0,0 3.125,-0.021 5.542,-1.938 0,0 4.667,-3.749 1.75,-5.583 0,0 -0.792,-1.042 -7.75,0.416 l -12.381,0.084 z"
           id="path3373" />
        <path
           style="fill:#000000"
           d="m 74.308,92.552 c 0,0 0,0 0,0 -0.562,0 -1.089,-0.01 -1.522,-0.033 -6.406,-0.349 -8.171,-1.561 -8.243,-1.611 l -0.092,-0.086 c -1.59,-1.895 -2.144,-3.456 -1.646,-4.641 0.656,-1.564 2.851,-1.755 2.943,-1.762 l 12.417,-0.086 c 2.394,-0.512 4.391,-0.776 5.836,-0.776 1.423,0 1.998,0.262 2.229,0.467 0.89,0.579 1.113,1.306 1.143,1.818 0.12,2.066 -2.583,4.3 -2.892,4.548 -2.525,2.003 -5.718,2.047 -5.853,2.048 -0.003,0 -2.374,0.114 -4.32,0.114 z m -9.143,-2.434 c 0.292,0.164 2.175,1.103 7.675,1.402 1.902,0.101 5.73,-0.081 5.761,-0.082 0.05,-0.001 3.009,-0.049 5.256,-1.83 0.725,-0.583 2.595,-2.392 2.518,-3.71 -0.024,-0.422 -0.262,-0.768 -0.724,-1.059 l -0.126,-0.113 c 0.012,0.021 -0.328,-0.17 -1.524,-0.17 -1.377,0 -3.305,0.258 -5.73,0.766 l -12.48,0.095 c -0.43,0.037 -1.718,0.32 -2.064,1.152 -0.331,0.79 0.167,2.016 1.438,3.549 z"
           id="path3375" />
      </g>
    </g>
  </g>
</svg>
