<?xml version="1.0" encoding="UTF-8" standalone="no"?>
<svg
   xmlns:dc="http://purl.org/dc/elements/1.1/"
   xmlns:cc="http://creativecommons.org/ns#"
   xmlns:rdf="http://www.w3.org/1999/02/22-rdf-syntax-ns#"
   xmlns:svg="http://www.w3.org/2000/svg"
   xmlns="http://www.w3.org/2000/svg"
   version="1.1"
   id="svg2"
   viewBox="0 0 79.899997 79.899997"
   height="22.549555mm"
   width="22.549555mm">
  <defs
     id="defs4" />
  <metadata
     id="metadata7">
    <rdf:RDF>
      <cc:Work
         rdf:about="">
        <dc:format>image/svg+xml</dc:format>
        <dc:type
           rdf:resource="http://purl.org/dc/dcmitype/StillImage" />
        <dc:title></dc:title>
      </cc:Work>
    </rdf:RDF>
  </metadata>
  <g
     transform="translate(-532.90756,-268.98234)"
     id="layer1">
    <g
       transform="translate(522.90756,258.88234)"
       id="g3517">
      <g
         id="g3499">
        <g
           id="g3501">
          <g
             id="a">
            <path
               d="m 85.3,89.2 c 0.5,0.5 1.2,0.8 1.9,0.8 0.7,0 1.4,-0.3 1.9,-0.8 0.5,-0.6 0.8,-1.2 0.8,-1.9 0,-0.8 -0.3,-1.4 -0.8,-1.9 l -24.9,-25 c 4.8,-5.6 7.2,-12.1 7.2,-19.6 0,-8.4 -3,-15.7 -9,-21.7 -6,-6 -13.3,-9 -21.7,-9 C 32.3,10.1 25,13 19,19 c -6,6 -9,13.2 -9,21.7 0,8.5 3,15.7 9,21.7 6,6 13.2,9 21.7,9 6,0 11.5,-1.5 16.3,-4.5 l 0.1,-0.1 c 1.1,-0.8 2.2,-1.6 3.4,-2.5 L 85.3,89.2 M 40.7,15.6 c 7,0 12.9,2.5 17.8,7.4 4.9,4.9 7.3,10.8 7.3,17.8 0,6.9 -2.4,12.8 -7.3,17.7 l -0.2,0.2 c -0.2,0.2 -0.4,0.4 -0.6,0.7 l -0.1,0 c -1.2,1.1 -2.4,2.1 -3.8,3 -4,2.4 -8.4,3.6 -13.3,3.6 -6.9,0 -12.9,-2.5 -17.8,-7.3 -4.9,-4.8 -7.3,-10.8 -7.4,-17.8 0,-6.9 2.5,-12.9 7.4,-17.8 4.9,-4.9 11.1,-7.5 18,-7.5 M 25.6,25 c -0.3,-0.2 -0.7,-0.3 -1.1,-0.3 -0.4,0.1 -0.7,0.3 -1,0.6 -7.7,10.4 -7.7,20.7 0,31.1 0.3,0.3 0.6,0.5 1,0.5 0.4,0.1 0.8,0 1.1,-0.3 0.3,-0.3 0.5,-0.6 0.6,-1 0.1,-0.4 0,-0.8 -0.3,-1.1 -6.9,-9.1 -6.9,-18.3 0,-27.4 0.2,-0.3 0.3,-0.7 0.3,-1.1 0,-0.4 -0.2,-0.7 -0.6,-1 z"
               id="path3504" />
          </g>
        </g>
      </g>
      <text
         style="font-size:5px;font-family:Arial-BoldMT;display:none;enable-background:new"
         transform="translate(0,115)"
         class="st0 st1 st2"
         id="text3506">Created by Oliver Kittler</text>
      <text
         style="font-size:5px;font-family:Arial-BoldMT;display:none;enable-background:new"
         transform="translate(0,120)"
         class="st0 st1 st2"
         id="text3508">from the Noun Project</text>
    </g>
  </g>
  <style
     type="text/css"
     id="style3461">
	.st0{display:none;enable-background:new    ;}
	.st1{font-family:'Arial-BoldMT';}
	.st2{font-size:5px;}
</style>
  <style
     type="text/css"
     id="style3497">
	.st0{display:none;enable-background:new    ;}
	.st1{font-family:'Arial-BoldMT';}
	.st2{font-size:5px;}
</style>
</svg>
