<?xml version="1.0" encoding="UTF-8" standalone="no"?>
<!-- Created with Inkscape (http://www.inkscape.org/) -->

<svg
   xmlns:dc="http://purl.org/dc/elements/1.1/"
   xmlns:cc="http://creativecommons.org/ns#"
   xmlns:rdf="http://www.w3.org/1999/02/22-rdf-syntax-ns#"
   xmlns:svg="http://www.w3.org/2000/svg"
   xmlns="http://www.w3.org/2000/svg"
   xmlns:sodipodi="http://sodipodi.sourceforge.net/DTD/sodipodi-0.dtd"
   xmlns:inkscape="http://www.inkscape.org/namespaces/inkscape"
   width="144.49777mm"
   height="144.526mm"
   viewBox="0 0 511.99998 512.1"
   id="svg2"
   version="1.1"
   inkscape:version="0.91 r13725"
   sodipodi:docname="pork.svg">
  <defs
     id="defs4" />
  <sodipodi:namedview
     id="base"
     pagecolor="#ffffff"
     bordercolor="#666666"
     borderopacity="1.0"
     inkscape:pageopacity="0.0"
     inkscape:pageshadow="2"
     inkscape:zoom="3.959798"
     inkscape:cx="221.29992"
     inkscape:cy="346.99909"
     inkscape:document-units="px"
     inkscape:current-layer="layer1"
     showgrid="false"
     fit-margin-top="0"
     fit-margin-left="0"
     fit-margin-right="0"
     fit-margin-bottom="0"
     inkscape:window-width="1920"
     inkscape:window-height="1018"
     inkscape:window-x="-8"
     inkscape:window-y="-8"
     inkscape:window-maximized="1" />
  <metadata
     id="metadata7">
    <rdf:RDF>
      <cc:Work
         rdf:about="">
        <dc:format>image/svg+xml</dc:format>
        <dc:type
           rdf:resource="http://purl.org/dc/dcmitype/StillImage" />
        <dc:title></dc:title>
      </cc:Work>
    </rdf:RDF>
  </metadata>
  <g
     inkscape:label="Layer 1"
     inkscape:groupmode="layer"
     id="layer1"
     transform="translate(-229.91077,-178.67)">
    <g
       id="g3486"
       transform="translate(229.91077,178.67)">
      <g
         id="g3463">
        <path
           id="path3465"
           d="m 497.4,253 c -16.4,-16.4 -43.1,-16.4 -59.5,0 -6.7,6.7 -10.5,15.4 -10.8,24.5 -0.2,9.3 3.4,18.2 10.2,24.9 5.9,5.9 14.8,8.5 23.8,6.9 10.5,-1.8 19.6,-8.8 24.3,-18.7 l -19.3,-9.2 c -1.8,3.7 -5,6.3 -8.7,6.9 -2.1,0.4 -4.1,0 -5.1,-1 -5.5,-5.5 -5.3,-13.4 0.5,-19.3 8.1,-8.1 21.2,-8.1 29.3,0 5.4,5.4 8.3,12.6 8.3,20.2 0,7.6 -3,14.8 -8.3,20.2 -12.5,12.5 -38.8,12.4 -55.7,1.2 0,-0.1 0,-0.2 0,-0.3 0,-94.3 -91.3,-170.7 -197.3,-170.7 -22.2,0 -44,3.4 -64.4,9.5 -19.5,-23.1 -55.2,-36.3 -87.4,-36.3 -8.4,0 -16.6,0.9 -24.2,2.8 l 22,87.6 c -12.2,12.9 -22.2,27.4 -29.4,43.1 l -35,0 C 4.8,245.3 0,250.1 0,256 l 0,128 c 0,5.9 4.8,10.7 10.7,10.7 l 47,0 c 12.5,19.2 29.9,36.1 50.4,49.6 l -10.3,57.3 c -1,5.8 2.9,10.5 8.8,10.5 l 85.4,0 c 5.9,0 11.5,-4.7 12.5,-10.5 l 4,-22.5 c 6.9,0.6 13.8,1 20.8,1 10.6,0 21,-0.8 31.2,-2.2 l 4.3,23.7 c 1,5.8 6.7,10.5 12.6,10.5 l 85.3,0 c 5.9,0 9.8,-4.7 8.8,-10.5 l -11.6,-65 c 34.2,-26.3 58.2,-62.7 64.9,-103.7 8,3.6 16.9,5.8 26.1,6.4 1.6,0.1 3.2,0.2 4.7,0.2 16.6,0 31.7,-5.6 41.8,-15.8 9.4,-9.4 14.6,-22 14.6,-35.3 0,-13.5 -5.2,-26 -14.6,-35.4 z M 129.6,146.7 c 3.7,2.1 8.6,5.2 13.3,9.4 -18.3,7.7 -35.1,17.7 -49.8,29.6 L 80,133.3 c 17.2,0.4 35.1,5.2 49.6,13.4 z m 55.2,344 -63.3,0 6.3,-35 c 18.4,9.4 38.6,16.3 59.7,20.4 l -2.7,14.6 z m 163,0 -63.3,0 -3,-16.9 c 21.2,-5.2 41.1,-13.4 59,-24.1 l 7.3,41 z m 43.9,-124.5 c -8.8,17.7 -21.6,33.7 -37.8,47.6 -16.3,14 -35.3,25 -56.4,32.8 -21.8,8 -44.8,12.1 -68.2,12.1 -31.4,0 -62.7,-7.3 -90.5,-21.3 -27.1,-13.5 -49,-32.3 -63.3,-54.3 l -6.3,-9.7 -11.5,0 -36.4,0 0,-106.7 24.7,0 13.7,0 5.7,-12.5 c 6,-13.3 14.6,-25.8 25.4,-37.2 10.8,-11.4 23.6,-21.5 38.1,-30 14.7,-8.6 30.6,-15.3 47.4,-19.8 17.3,-4.7 35.1,-7.1 53,-7.1 23.4,0 46.4,4.1 68.2,12.1 21.1,7.7 40,18.8 56.4,32.8 16.2,13.9 28.9,29.9 37.8,47.6 9.1,18.1 13.7,37.3 13.7,56.9 -0.1,19.5 -4.7,38.6 -13.7,56.7 z"
           inkscape:connector-curvature="0" />
        <path
           id="path3467"
           d="m 117.3,256 c -5.9,0 -10.7,4.8 -10.7,10.7 0,5.9 4.8,10.7 10.7,10.7 5.9,0 10.7,-4.8 10.7,-10.7 0,-5.9 -4.8,-10.7 -10.7,-10.7 z"
           inkscape:connector-curvature="0" />
        <path
           id="path3469"
           d="m 280.4,181.8 c -0.9,-0.3 -20.2,-6 -56.7,-6 -35.8,0 -54.6,5.5 -56.2,6 -4.4,1.3 -7.6,5.4 -7.6,10.2 0,5.9 4.8,10.7 10.7,10.7 1.1,0 2.2,-0.2 3.2,-0.5 0.9,-0.3 17.7,-5.1 49.9,-5.1 31.9,0 49.2,4.7 50.4,5.1 1,0.3 2.1,0.5 3.2,0.5 5.9,0 10.7,-4.8 10.7,-10.7 0,-4.8 -3.2,-8.9 -7.6,-10.2 z"
           inkscape:connector-curvature="0" />
        <path
           id="path3471"
           d="m 224,128 c 35.3,0 64,-28.7 64,-64 0,-35.3 -28.7,-64 -64,-64 -35.3,0 -64,28.7 -64,64 0,35.3 28.7,64 64,64 z m 0,-106.7 c 23.5,0 42.7,19.1 42.7,42.7 0,23.6 -19.1,42.7 -42.7,42.7 -23.6,0 -42.7,-19.2 -42.7,-42.7 0,-23.5 19.2,-42.7 42.7,-42.7 z"
           inkscape:connector-curvature="0" />
        <path
           id="path3473"
           d="m 224,85.8 c 5.9,0 10.7,-4.8 10.7,-10.7 l 0,-21.3 c 0,-5.9 -4.8,-10.7 -10.7,-10.7 -5.9,0 -10.7,4.8 -10.7,10.7 l 0,21.3 c 0,6 4.8,10.7 10.7,10.7 z"
           inkscape:connector-curvature="0" />
      </g>
      <text
         id="text3475"
         class="st0 st1 st2"
         transform="translate(0,527)"
         style="font-size:5px;font-family:Arial-BoldMT;display:none;enable-background:new">Created by lastspark</text>
      <text
         id="text3477"
         class="st0 st1 st2"
         transform="translate(0,532)"
         style="font-size:5px;font-family:Arial-BoldMT;display:none;enable-background:new">from the Noun Project</text>
    </g>
  </g>
  <style
     id="style3461"
     type="text/css">
	.st0{display:none;enable-background:new    ;}
	.st1{font-family:'Arial-BoldMT';}
	.st2{font-size:5px;}
</style>
</svg>
