<?xml version="1.0" encoding="UTF-8" standalone="no"?>
<svg
   xmlns:dc="http://purl.org/dc/elements/1.1/"
   xmlns:cc="http://creativecommons.org/ns#"
   xmlns:rdf="http://www.w3.org/1999/02/22-rdf-syntax-ns#"
   xmlns:svg="http://www.w3.org/2000/svg"
   xmlns="http://www.w3.org/2000/svg"
   version="1.1"
   id="svg2"
   viewBox="0 0 76.500433 88.824996"
   height="25.068388mm"
   width="21.590122mm">
  <defs
     id="defs4" />
  <metadata
     id="metadata7">
    <rdf:RDF>
      <cc:Work
         rdf:about="">
        <dc:format>image/svg+xml</dc:format>
        <dc:type
           rdf:resource="http://purl.org/dc/dcmitype/StillImage" />
        <dc:title></dc:title>
      </cc:Work>
    </rdf:RDF>
  </metadata>
  <g
     transform="translate(-390.97546,-362.52112)"
     id="layer1">
    <g
       transform="translate(379.27546,356.94612)"
       id="g3444">
      <path
         d="m 62.2,40.9 c 1,1 1,2.6 0,3.5 L 47.5,59.1 c -0.5,0.5 -1.1,0.7 -1.8,0.7 0,0 0,0 0,0 -0.7,0 -1.3,-0.3 -1.8,-0.7 l -6.2,-6.2 c -1,-1 -1,-2.6 0,-3.5 1,-1 2.6,-1 3.5,0 l 4.4,4.4 13,-12.9 c 1.1,-1 2.7,-1 3.6,0 z M 50,94.4 C 28.9,94.4 11.7,77.2 11.7,56.1 l 0,-33.1 c 0,-1 0.6,-1.9 1.5,-2.3 L 49,5.8 c 0.6,-0.3 1.3,-0.3 1.9,0 l 35.8,14.9 c 0.9,0.4 1.5,1.3 1.5,2.3 l 0,33.1 C 88.3,77.2 71.1,94.4 50,94.4 Z M 83.3,56.1 83.3,24.7 50,10.8 16.7,24.7 l 0,31.4 c 0,18.3 14.9,33.3 33.3,33.3 18.4,0 33.3,-14.9 33.3,-33.3 z"
         id="path3434" />
    </g>
  </g>
</svg>
